<?xml version="1.0" encoding="UTF-8"?>
<svg id="svg5" width="500" height="500" version="1.1" viewBox="0 0 500 500" xmlns="http://www.w3.org/2000/svg">
 <style type="text/css">
  .order-arrow { stroke-linecap: round }
 </style>
 <g id="layer1">
  <g id="jamo" class="jamo" transform="matrix(1.4795 0 0 1.4795 -41.319 -141.91)">
   <path id="path831" d="m305.56 186.96q0 2.6875-3.4553 7.6785-3.4553 4.991-3.4553 8.4463 0 34.937-6.1428 62.196-5.7588 26.875-20.732 56.437-14.973 29.946-22.268 29.946-3.0714 0-3.0714-3.4553 0-1.1518 1.5357-6.5267 1.5357-5.7588 3.4553-12.286 2.3035-6.5267 2.6875-7.6785 15.357-54.133 16.125-124.01h-72.178q-29.562 0-44.919 7.6785-11.518 5.7588-14.205 5.7588-6.1428 0-28.41-10.366-22.268-10.75-22.268-14.973 0-3.8392 5.7588-3.8392 5.3749 0 15.357 1.1518 9.982 1.1518 14.205 1.1518 42.999 1.5357 64.883 1.5357h62.579q4.991 0 14.205-3.8392 9.5981-3.8392 14.973-3.8392 25.339 0 25.339 8.8302z"/>
  </g>
  <g id="number-1" class="stroke-number">
   <path id="path828" d="m121.65 119.69c10.066 0 18.22-8.1534 18.22-18.22 0-10.066-8.1534-18.22-18.22-18.22s-18.22 8.1534-18.22 18.22c0 10.066 8.1534 18.22 18.22 18.22zm0-2.8598c-8.4849 0-15.35-6.875-15.35-15.36 0-8.4849 6.8655-15.36 15.35-15.36s15.36 6.875 15.36 15.36c0 8.4849-6.875 15.36-15.36 15.36zm2.822-25.057h-4.3466l-4.7822 2.9735v4.053l4.3371-2.6515h0.11364v15.019h4.678z"/>
  </g>
  <path id="arrow-1" class="order-arrow" d="m150.01 98.973c-1.3807-0.0076-2.5061 1.1056-2.5137 2.4863-8e-3 1.3807 1.1056 2.5062 2.4863 2.5137h276.51v222.93h-9.8106l12.311 21.299 1.1543-1.998 11.156-19.301h-9.8106v-227.93z"/>
 </g>
</svg>
