<?xml version="1.0" encoding="UTF-8"?>
<svg id="svg5" width="500" height="500" version="1.1" viewBox="0 0 500 500" xmlns="http://www.w3.org/2000/svg">
 <style type="text/css">
  .order-arrow { stroke-linecap: round }
 </style>
 <g id="layer1">
  <g id="jamo" class="jamo" transform="matrix(1.4795 0 0 1.4795 -38.195 -132.54)">
   <path id="path831" d="m313.24 322.1q0 12.286-17.277 12.286h-140.9q-21.884 0-33.785-7.6785-11.518-7.6785-11.518-28.41v-76.401q0-8.0624-5.3749-14.589-4.991-6.5267-11.518-9.2142-6.1428-3.0714-11.518-5.7588-4.991-2.6875-4.991-4.6071 0-4.991 9.2142-4.991 13.437 0 32.25 3.4553 19.196 3.4553 19.196 10.75 0 2.6875-1.1518 8.0624-1.1518 5.3749-1.1518 8.0624v85.231q0 13.437 6.1428 18.812 6.1428 4.991 19.964 4.991h47.223q29.562 0 46.839-8.0624 11.134-4.6071 21.5-4.6071 36.857 0 36.857 12.669z"/>
  </g>
  <g id="number-1" class="stroke-number">
   <path id="path828" d="m96.05 208.82c10.066 0 18.22-8.1534 18.22-18.22s-8.1534-18.22-18.22-18.22c-10.066 0-18.22 8.1534-18.22 18.22s8.1534 18.22 18.22 18.22zm0-2.8598c-8.4849 0-15.35-6.875-15.35-15.36s6.8655-15.36 15.35-15.36c8.4849 0 15.36 6.875 15.36 15.36s-6.875 15.36-15.36 15.36zm2.822-25.057h-4.3466l-4.7822 2.9735v4.053l4.3371-2.6515h0.11364v15.019h4.678z"/>
  </g>
  <path id="arrow-1" class="order-arrow" d="m96.051 217.5a2.5 2.5 0 0 0-2.5 2.5v169.6h295.36v9.8105l21.299-12.311-1.998-1.1543-19.301-11.156v9.8106h-290.36v-164.6a2.5 2.5 0 0 0-2.5-2.5z"/>
 </g>
</svg>
