<?xml version="1.0" encoding="UTF-8"?>
<svg id="svg5" width="500" height="500" version="1.1" viewBox="0 0 500 500" xmlns="http://www.w3.org/2000/svg">
 <style type="text/css">
  .order-arrow { stroke-linecap: round }
 </style>
 <g id="layer1">
  <g id="jamo" class="jamo" transform="matrix(1.4795 0 0 1.4795 -26.835 -129.41)">
   <path id="path837" d="m302.49 323.26q0 11.134-19.964 11.134h-123.24q-23.803 0-37.241-7.6785-13.437-7.6785-13.437-29.562v-74.481q0-11.134-5.7588-17.66-5.7588-6.9106-12.669-8.4463-6.9106-1.9196-12.669-3.8392-5.7588-2.3035-5.7588-5.3749 0-7.2945 24.955-7.2945 25.339 0 38.776 5.7588 9.982 3.8392 14.973 3.8392h48.758q13.053 0 26.107-1.1518 6.1428-0.76785 16.509-5.3749 10.366-4.6071 20.732-4.6071 29.562 0 29.562 11.902 0 11.518-31.482 11.518h-114.41q-14.973 0-14.973 19.196v76.017q0 15.357 7.2945 20.348 7.6785 4.6071 23.803 4.6071h56.821q24.571 0 35.705-6.5267 6.1428-3.8392 12.286-3.8392 35.321 0 35.321 11.518z"/>
  </g>
  <g id="number-1" class="stroke-number">
   <path id="path831" d="m103.63 126.8c10.066 0 18.22-8.1534 18.22-18.22s-8.1534-18.22-18.22-18.22c-10.066 0-18.22 8.1534-18.22 18.22s8.1534 18.22 18.22 18.22zm0-2.8598c-8.4849 0-15.35-6.875-15.35-15.36s6.8655-15.36 15.35-15.36c8.4849 0 15.36 6.875 15.36 15.36s-6.875 15.36-15.36 15.36zm2.822-25.057h-4.3466l-4.7822 2.9735v4.053l4.3371-2.6515h0.11364v15.019h4.678z"/>
  </g>
  <g id="number-2" class="stroke-number">
   <path id="path834" d="m103.63 209.35c10.066 0 18.22-8.1534 18.22-18.22s-8.1534-18.22-18.22-18.22c-10.066 0-18.22 8.1534-18.22 18.22s8.1534 18.22 18.22 18.22zm0-2.8598c-8.4849 0-15.35-6.875-15.35-15.36s6.8655-15.36 15.35-15.36c8.4849 0 15.36 6.875 15.36 15.36s-6.875 15.36-15.36 15.36zm-7.0265-5.6629h14.356v-3.7784h-7.8599v-0.12311l2.3201-2.1402c4.2046-3.6648 5.303-5.5303 5.303-7.7557 0-3.4943-2.8504-5.8618-7.2538-5.8618-4.2898 0-7.1591 2.4716-7.1496 6.4205h4.4413c0-1.7519 1.0796-2.7652 2.6894-2.7652 1.5814 0 2.7273 0.97538 2.7273 2.5758 0 1.4489-0.90909 2.4337-2.5 3.8636l-7.0739 6.1932z"/>
  </g>
  <path id="arrow-1" class="order-arrow" d="m370.91 96.268v9.8105h-236.91c-1.3807 0-2.5 1.1193-2.5 2.5s1.1193 2.5 2.5 2.5h236.91v9.8106l19.301-12.311v-1.1543z"/>
  <path id="arrow-2" class="order-arrow" d="m103.63 217.5c-1.3807 0-2.5 1.1193-2.5 2.5v170.73h269.78v9.8105l19.301-12.311v-1.1543l-19.301-11.156v9.8106h-264.78v-165.73c0-1.3807-1.1193-2.5-2.5-2.5z"/>
 </g>
</svg>
