<?xml version="1.0" encoding="UTF-8"?>
<svg id="svg5" width="500" height="500" version="1.1" viewBox="0 0 500 500" xmlns="http://www.w3.org/2000/svg">
 <style type="text/css">
  .order-arrow { stroke-linecap: round }
 </style>
 <g id="layer1">
  <g id="jamo" class="jamo" transform="matrix(1.4795 0 0 1.4795 -40.467 -131.4)">
   <path id="path851" d="m308.25 326.33q0 10.366-13.053 10.366-9.982 0-29.562 0.38392-19.58 0-29.178 0h-78.32q-7.6785 0-13.437-0.76785-5.7588-1.1518-10.366-1.9196-4.6071-0.76785-8.0624-3.8392-3.0714-3.0714-5.3749-4.6071-1.9196-1.5357-3.4553-6.9106t-2.3035-7.2945q-0.38392-1.9196-0.76785-9.5981-0.38392-7.6785-0.38392-9.982 0-2.6875 0-12.286 0-9.2142-7.2945-14.589-7.2945-5.3749-14.973-8.0624-7.2945-3.0714-7.2945-5.3749 0-5.3749 18.428-5.3749 19.196 0 35.705 4.991 5.7588 1.9196 10.75 1.9196h90.99q7.2945 0 8.8302-2.3035t2.3035-9.982q2.6875-31.482 2.6875-39.928 0-3.8392-5.3749-3.8392h-76.401q-18.044 0-24.955 3.8392-1.1518 0.76784-4.2232 3.0714-2.6875 1.9196-4.991 3.0714-2.3035 0.76785-4.6071 0.76785-6.5267 0-24.955-9.2142-18.428-9.5981-18.428-14.589 0-2.6875 3.8392-2.6875 2.3035 0 6.9106 0.76785 26.491 3.4553 62.196 3.4553 11.902 0 35.705-0.38393 23.803-0.38392 35.705-0.38392 4.6071 0 13.437-3.0714 8.8302-3.4553 13.821-3.4553t10.75 0.76785q5.7588 0.38392 12.286 2.6875 6.5267 2.3035 6.5267 6.1428 0 2.6875-10.366 26.107t-10.366 30.714q0 3.0714 6.5267 6.5267 6.5267 3.0714 6.5267 7.2945 0 6.9106-11.134 6.9106h-128.23q-5.7588 0-5.7588 7.6785v29.562q0 12.286 6.1428 17.277 6.1428 4.6071 18.428 4.6071h49.91q30.714 0 45.303-6.1428 8.8302-3.8392 19.58-3.8392 30.33 0 30.33 11.518z"/>
  </g>
  <g id="number-1" class="stroke-number">
   <path id="path842" d="m121.65 129.69c10.066 0 18.22-8.1534 18.22-18.22 0-10.066-8.1534-18.22-18.22-18.22s-18.22 8.1534-18.22 18.22c0 10.066 8.1534 18.22 18.22 18.22zm0-2.8598c-8.4849 0-15.35-6.875-15.35-15.36 0-8.4848 6.8655-15.36 15.35-15.36s15.36 6.875 15.36 15.36c0 8.4849-6.875 15.36-15.36 15.36zm2.822-25.057h-4.3466l-4.7822 2.9735v4.053l4.3371-2.6515h0.11364v15.019h4.678z"/>
  </g>
  <g id="number-2" class="stroke-number">
   <path id="path845" d="m121.65 223.69c10.066 0 18.22-8.1534 18.22-18.22 0-10.066-8.1534-18.22-18.22-18.22s-18.22 8.1534-18.22 18.22c0 10.066 8.1534 18.22 18.22 18.22zm0-2.8598c-8.4849 0-15.35-6.875-15.35-15.36 0-8.4848 6.8655-15.36 15.35-15.36s15.36 6.875 15.36 15.36c0 8.4849-6.875 15.36-15.36 15.36zm-7.0265-5.6629h14.356v-3.7784h-7.8598v-0.1231l2.3201-2.1402c4.2046-3.6648 5.303-5.5303 5.303-7.7557 0-3.4943-2.8504-5.8618-7.2538-5.8618-4.2898 0-7.1591 2.4716-7.1496 6.4205h4.4413c0-1.7519 1.0795-2.7652 2.6894-2.7652 1.5814 0 2.7273 0.97538 2.7273 2.5758 0 1.4489-0.90909 2.4337-2.5 3.8636l-7.0739 6.1932z"/>
  </g>
  <g id="number-3" class="stroke-number">
   <path id="path848" d="m102.44 301.41c10.066 0 18.22-8.1534 18.22-18.22s-8.1534-18.22-18.22-18.22c-10.066 0-18.22 8.1534-18.22 18.22s8.1534 18.22 18.22 18.22zm0-2.8599c-8.4849 0-15.35-6.875-15.35-15.36s6.8655-15.36 15.35-15.36c8.4849 0 15.36 6.875 15.36 15.36s-6.875 15.36-15.36 15.36zm-0.0663-5.3977c4.5455 0 7.7746-2.4053 7.7652-5.7765 9e-3 -2.3864-1.553-4.0909-4.5455-4.4413v-0.15151c2.2443-0.32197 3.8352-1.8276 3.8258-4.0057 9e-3 -3.1629-2.8504-5.5492-7.0076-5.5492-4.1856 0-7.2349 2.4242-7.2727 5.8712h4.4792c0.03788-1.3258 1.2311-2.2159 2.7936-2.2159 1.4868 0 2.5 0.89962 2.4905 2.197 9e-3 1.3447-1.1837 2.2727-2.9072 2.2727h-1.8845v3.3333h1.8845c1.9602 0 3.2386 0.96591 3.2197 2.3296 0.0189 1.3731-1.1553 2.3296-2.822 2.3296-1.6572 0-2.8788-0.88069-2.9261-2.1591h-4.7159c0.03788 3.5038 3.1913 5.9659 7.6231 5.9659z"/>
  </g>
  <path id="arrow-1" class="order-arrow" d="m150 108.97a2.5 2.5 0 0 0-2.5 2.5 2.5 2.5 0 0 0 2.5 2.5h259.5v108.93h-9.8106l12.311 21.299 1.1543-1.998 11.156-19.301h-9.8106v-113.93z"/>
  <path id="arrow-2" class="order-arrow" d="m298.91 193.16v9.8106h-148.91a2.5 2.5 0 0 0-2.5 2.5 2.5 2.5 0 0 0 2.5 2.5h148.91v9.8105l21.299-12.311-1.998-1.1543z"/>
  <path id="arrow-3" class="order-arrow" d="m102.44 308.5a2.5 2.5 0 0 0-2.5 2.5v82.695h282.96v9.8125l21.299-12.312-1.998-1.1543-19.301-11.156v9.8105h-277.96v-77.695a2.5 2.5 0 0 0-2.5-2.5z"/>
 </g>
</svg>
