<?xml version="1.0" encoding="UTF-8"?>
<svg id="svg5" width="500" height="500" version="1.1" viewBox="0 0 500 500" xmlns="http://www.w3.org/2000/svg">
 <style type="text/css">
  .order-arrow { stroke-linecap: round }
 </style>
 <g id="layer1">
  <g id="jamo" class="jamo" transform="matrix(1.4795 0 0 1.4795 -40.467 -145.89)">
   <path id="path843" d="m306.71 194.64q0 2.3035-6.1428 9.982t-6.9106 14.589l-9.5981 82.543q-0.76784 6.9106-0.76784 10.75 0 3.0714 6.9106 6.1428 7.2945 2.6875 7.2945 7.6785 0 8.0624-23.803 8.0624h-128.23q-4.991 18.428-13.437 18.428-8.4463 0-10.75-46.455l-3.8392-85.231q-0.38392-9.5981-8.4463-16.125-7.6785-6.5267-15.357-9.5981-7.6785-3.4553-7.6785-5.7588 0-5.7588 20.348-5.7588 18.428 0 37.241 4.2232 0.76785 0 3.0714 0.76785 2.3035 0.76785 3.4553 0.76785h98.284q5.3749 0 14.205-3.4553 8.8302-3.8392 11.134-3.8392 7.6785 0 20.348 3.4553 12.669 3.4553 12.669 8.8302zm-41.464 7.2945h-121.7l1.9196 120.17h116.33z"/>
  </g>
  <g id="number-1" class="stroke-number">
   <path id="path834" d="m103.69 198.13c10.066 0 18.22-8.1534 18.22-18.22s-8.1534-18.22-18.22-18.22c-10.066 0-18.22 8.1534-18.22 18.22s8.1534 18.22 18.22 18.22zm0-2.8598c-8.4849 0-15.35-6.875-15.35-15.36s6.8655-15.36 15.35-15.36c8.4849 0 15.36 6.875 15.36 15.36s-6.875 15.36-15.36 15.36zm2.822-25.057h-4.3466l-4.7822 2.9735v4.053l4.3371-2.6515h0.11364v15.019h4.678z"/>
  </g>
  <g id="number-2" class="stroke-number">
   <path id="path837" d="m121.65 117.69c10.066 0 18.22-8.1534 18.22-18.22 0-10.066-8.1534-18.22-18.22-18.22s-18.22 8.1534-18.22 18.22c0 10.066 8.1534 18.22 18.22 18.22zm0-2.8598c-8.4849 0-15.35-6.875-15.35-15.36 0-8.4849 6.8655-15.36 15.35-15.36s15.36 6.875 15.36 15.36c0 8.4849-6.875 15.36-15.36 15.36zm-7.0265-5.6629h14.356v-3.7784h-7.8598v-0.1231l2.3201-2.1402c4.2046-3.6648 5.303-5.5303 5.303-7.7557 0-3.4943-2.8504-5.8618-7.2538-5.8618-4.2898 0-7.1591 2.4716-7.1496 6.4205h4.4413c0-1.7519 1.0795-2.7652 2.6894-2.7652 1.5814 0 2.7273 0.97538 2.7273 2.5758 0 1.4489-0.90909 2.4337-2.5 3.8636l-7.0739 6.1932z"/>
  </g>
  <g id="number-3" class="stroke-number">
   <path id="path840" d="m198.74 395.91c10.066 0 18.22-8.1534 18.22-18.22s-8.1534-18.22-18.22-18.22-18.22 8.1534-18.22 18.22 8.1534 18.22 18.22 18.22zm0-2.8599c-8.4849 0-15.35-6.875-15.35-15.36s6.8655-15.36 15.35-15.36 15.36 6.875 15.36 15.36-6.875 15.36-15.36 15.36zm-0.0663-5.3977c4.5455 0 7.7746-2.4053 7.7652-5.7765 9e-3 -2.3864-1.553-4.0909-4.5455-4.4413v-0.15151c2.2443-0.32197 3.8352-1.8277 3.8258-4.0057 9e-3 -3.1629-2.8504-5.5492-7.0076-5.5492-4.1856 0-7.2349 2.4242-7.2727 5.8712h4.4792c0.0379-1.3258 1.2311-2.2159 2.7936-2.2159 1.4867 0 2.5 0.89962 2.4905 2.197 9e-3 1.3447-1.1837 2.2727-2.9072 2.2727h-1.8845v3.3333h1.8845c1.9602 0 3.2386 0.96591 3.2197 2.3296 0.0189 1.3731-1.1553 2.3296-2.822 2.3296-1.6572 0-2.8788-0.88069-2.9261-2.1591h-4.7159c0.0379 3.5038 3.1913 5.9659 7.6231 5.9659z"/>
  </g>
  <path id="arrow-1" class="order-arrow" d="m103.69 205.5a2.5 2.5 0 0 0-2.5 2.5v112.91h-9.8106l12.311 21.299 1.1543-1.998 11.156-19.301h-9.8105v-112.91a2.5 2.5 0 0 0-2.5-2.5z"/>
  <path id="arrow-2" class="order-arrow" d="m150 96.973c-1.3807 0-2.5 1.1193-2.5 2.5 0 1.3807 1.1193 2.5 2.5 2.5h281.5v198.93h-9.8106l12.311 21.299 1.1543-1.998 11.156-19.301h-9.8106v-203.93z"/>
  <path id="arrow-3" class="order-arrow" d="m360 365.38v9.8106h-132.91c-1.3807 0-2.5 1.1193-2.5 2.5s1.1193 2.5 2.5 2.5h132.91v9.8105l21.299-12.311-1.998-1.1543z"/>
 </g>
</svg>
