<?xml version="1.0" encoding="UTF-8"?>
<svg id="svg5" width="500" height="500" version="1.1" viewBox="0 0 500 500" xmlns="http://www.w3.org/2000/svg">
 <style type="text/css">
  .order-arrow { stroke-linecap: round }
 </style>
 <g id="layer1">
  <g id="jamo" class="jamo" transform="matrix(1.4795 0 0 1.4795 -35.355 -142.19)">
   <path id="path849" d="m290.2 190.8q0 2.6875-1.1518 7.6785-1.1518 4.991-1.1518 7.2945v94.061q0 49.142-18.812 49.142-5.3749 0-5.3749-17.277h-115.56q-6.5267 20.732-16.125 20.732-8.0624 0-8.0624-31.866v-102.51q0-10.366-7.2945-17.277-6.9106-6.9106-14.205-10.366-6.9106-3.4553-6.9106-5.3749 0-4.6071 10.366-4.6071 10.75 0 27.642 4.2232 16.893 4.2232 16.893 11.134 0 2.6875-1.1518 8.0624t-1.1518 8.0624v28.794h115.56v-28.026q0-8.0624-6.9106-14.589-6.9106-6.5267-13.821-10.366-6.9106-4.2232-6.9106-5.7588 0-4.2232 8.8302-4.2232 7.6785 0 26.491 4.2232 18.812 4.2232 18.812 8.8302zm-26.491 128.23v-66.035h-115.56v66.035z"/>
  </g>
  <g id="number-1" class="stroke-number">
   <path id="path837" d="m120 194.63c10.066 0 18.22-8.1534 18.22-18.22s-8.1534-18.22-18.22-18.22-18.22 8.1534-18.22 18.22 8.1534 18.22 18.22 18.22zm0-2.8598c-8.4849 0-15.35-6.875-15.35-15.36s6.8655-15.36 15.35-15.36 15.36 6.875 15.36 15.36-6.875 15.36-15.36 15.36zm2.822-25.057h-4.3466l-4.7822 2.9735v4.053l4.3371-2.6515h0.11364v15.019h4.678z"/>
  </g>
  <g id="number-2" class="stroke-number">
   <path id="path840" d="m418 194.63c10.066 0 18.22-8.1534 18.22-18.22s-8.1534-18.22-18.22-18.22-18.22 8.1534-18.22 18.22 8.1534 18.22 18.22 18.22zm0-2.8598c-8.4848 0-15.35-6.875-15.35-15.36s6.8655-15.36 15.35-15.36c8.4849 0 15.36 6.875 15.36 15.36s-6.875 15.36-15.36 15.36zm-7.0265-5.6629h14.356v-3.7784h-7.8599v-0.12311l2.3201-2.1402c4.2046-3.6648 5.303-5.5303 5.303-7.7557 0-3.4943-2.8504-5.8618-7.2538-5.8618-4.2898 0-7.1591 2.4716-7.1496 6.4205h4.4413c0-1.7519 1.0796-2.7652 2.6894-2.7652 1.5814 0 2.7273 0.97538 2.7273 2.5758 0 1.4489-0.9091 2.4337-2.5 3.8636l-7.0739 6.1932z"/>
  </g>
  <g id="number-3" class="stroke-number">
   <path id="path843" d="m210.74 205.72c10.066 0 18.22-8.1534 18.22-18.22s-8.1534-18.22-18.22-18.22-18.22 8.1534-18.22 18.22 8.1534 18.22 18.22 18.22zm0-2.8598c-8.4849 0-15.35-6.875-15.35-15.36s6.8655-15.36 15.35-15.36 15.36 6.875 15.36 15.36-6.875 15.36-15.36 15.36zm-0.0663-5.3977c4.5455 0 7.7746-2.4053 7.7652-5.7765 9e-3 -2.3864-1.553-4.0909-4.5455-4.4413v-0.15151c2.2443-0.32197 3.8352-1.8277 3.8258-4.0057 9e-3 -3.1629-2.8504-5.5492-7.0076-5.5492-4.1856 0-7.2349 2.4242-7.2727 5.8712h4.4792c0.0379-1.3258 1.2311-2.2159 2.7936-2.2159 1.4867 0 2.5 0.89962 2.4905 2.197 9e-3 1.3447-1.1837 2.2727-2.9072 2.2727h-1.8845v3.3333h1.8845c1.9602 0 3.2386 0.96591 3.2197 2.3296 0.0189 1.3731-1.1553 2.3295-2.822 2.3295-1.6572 0-2.8788-0.88068-2.9261-2.1591h-4.7159c0.0379 3.5038 3.1913 5.9659 7.6231 5.9659z"/>
  </g>
  <g id="number-4" class="stroke-number">
   <path id="path846" d="m210.74 393.72c10.066 0 18.22-8.1534 18.22-18.22s-8.1534-18.22-18.22-18.22-18.22 8.1534-18.22 18.22 8.1534 18.22 18.22 18.22zm0-2.8598c-8.4849 0-15.35-6.875-15.35-15.36s6.8655-15.36 15.35-15.36 15.36 6.875 15.36 15.36-6.875 15.36-15.36 15.36zm-9.0625-8.8826h9.3655v3.2197h4.4792v-3.2197h2.3201v-3.6932h-2.3201v-12.481h-5.8996l-7.9451 12.519zm9.4602-3.6932h-4.8012v-0.15152l4.6496-7.3674h0.15152z"/>
  </g>
  <path id="arrow-1" class="order-arrow" d="m120 202c-1.3807 0-2.5 1.1193-2.5 2.5v122.91h-9.8106l12.311 21.299 1.1543-1.998 11.156-19.301h-9.8105v-122.91c0-1.3807-1.1193-2.5-2.5-2.5z"/>
  <path id="arrow-2" class="order-arrow" d="m418 202c-1.3807 0-2.5 1.1193-2.5 2.5v122.91h-9.8106l12.311 21.299 1.1543-1.998 11.156-19.301h-9.8105v-122.91c0-1.3807-1.1193-2.5-2.5-2.5z"/>
  <path id="arrow-3" class="order-arrow" d="m324 175.19v9.8106h-84.906c-1.3807 0-2.5 1.1193-2.5 2.5s1.1193 2.5 2.5 2.5h84.906v9.8105l21.299-12.311-1.998-1.1543z"/>
  <path id="arrow-4" class="order-arrow" d="m324 363.19v9.8106h-84.906c-1.3807 0-2.5 1.1193-2.5 2.5s1.1193 2.5 2.5 2.5h84.906v9.8105l21.299-12.311-1.998-1.1543z"/>
 </g>
</svg>
