<?xml version="1.0" encoding="UTF-8"?>
<svg id="svg5" width="500" height="500" version="1.1" viewBox="0 0 500 500" xmlns="http://www.w3.org/2000/svg">
 <style type="text/css">
  .order-arrow { stroke-linecap: round }
 </style>
 <g id="layer1">
  <g id="jamo" class="jamo" transform="matrix(1.4795 0 0 1.4795 -48.135 -139.92)">
   <path id="path837" d="m322.07 332.47q0 8.8302-9.2142 8.8302-9.5981 0-38.776-24.955l-68.338-57.205q-19.964 23.035-61.428 55.285-41.08 32.25-59.892 32.25-3.4553 0-3.4553-2.6875 20.348-16.509 44.535-38.392t51.446-52.214q27.259-30.714 27.259-44.151 0-6.1428-8.4463-14.205t-8.4463-11.134q0-3.4553 7.2945-3.4553 8.0624 0 26.875 9.2142 19.196 8.8302 19.196 15.357 0 9.982-28.026 44.919l29.946 23.419q5.7588 4.6071 9.5981 6.9106 4.2232 1.9196 8.4463 3.0714 4.2232 0.76785 11.134 2.6875 8.4463 2.3035 29.178 20.732 21.116 18.428 21.116 25.723z"/>
  </g>
  <g id="number-1" class="stroke-number">
   <path id="path831" d="m221.14 191.12c10.066 0 18.22-8.1534 18.22-18.22s-8.1534-18.22-18.22-18.22c-10.066 0-18.22 8.1534-18.22 18.22s8.1534 18.22 18.22 18.22zm0-2.8598c-8.4848 0-15.35-6.875-15.35-15.36s6.8655-15.36 15.35-15.36c8.4849 0 15.36 6.875 15.36 15.36s-6.875 15.36-15.36 15.36zm2.822-25.057h-4.3466l-4.7822 2.9735v4.053l4.3371-2.6515h0.11363v15.019h4.678z"/>
  </g>
  <g id="number-2" class="stroke-number">
   <path id="path834" d="m309.28 237.86c10.066 0 18.22-8.1534 18.22-18.22s-8.1534-18.22-18.22-18.22-18.22 8.1534-18.22 18.22 8.1534 18.22 18.22 18.22zm0-2.8598c-8.4849 0-15.35-6.875-15.35-15.36s6.8655-15.36 15.35-15.36 15.36 6.875 15.36 15.36-6.875 15.36-15.36 15.36zm-7.0265-5.6629h14.356v-3.7784h-7.8599v-0.12311l2.3201-2.1402c4.2046-3.6648 5.303-5.5303 5.303-7.7557 0-3.4943-2.8504-5.8618-7.2538-5.8618-4.2898 0-7.1591 2.4716-7.1496 6.4205h4.4413c0-1.7519 1.0795-2.7652 2.6894-2.7652 1.5814 0 2.7273 0.97538 2.7273 2.5758 0 1.4489-0.90909 2.4337-2.5 3.8636l-7.0739 6.1932z"/>
  </g>
  <path id="arrow-1" class="order-arrow" d="m204.98 193c-0.96069-0.99168-2.5434-1.0168-3.5351-0.0561l-115.13 116-6.8261-7.0464-6.7321 23.662 2.2382-0.56117 21.625-5.4165-6.8261-7.0464 115.13-116c0.97261-0.97998 1.0168-2.5434 0.0561-3.5351z"/>
  <path id="arrow-2" class="order-arrow" d="m329.89 234.43c-0.85367 1.0852-0.66599 2.6569 0.41919 3.5106l89.69 72.061-6.0657 7.7107 24.351 3.4931-0.85671-2.1426-8.2719-20.702-6.0657 7.7107-89.69-72.061c-1.0763-0.86477-2.6569-0.66599-3.5106 0.41919z"/>
 </g>
</svg>
