<?xml version="1.0" encoding="UTF-8"?>
<svg id="svg5" width="500" height="500" version="1.1" viewBox="0 0 500 500" xmlns="http://www.w3.org/2000/svg">
 <style type="text/css">
  .order-arrow { stroke-linecap: round }
 </style>
 <g id="layer1">
  <g id="jamo" class="jamo" transform="matrix(1.4795 0 0 1.4795 -49.271 -133.67)">
   <path id="path831" d="m288.28 271.04q0 32.633-26.875 54.133t-60.276 21.5q-33.017 0-59.124-19.964-25.723-20.348-25.723-52.214 0-40.696 39.16-62.963 6.5267-3.8392 19.196-6.9106 13.053-3.0714 18.428-5.7588 2.6875-1.5357 2.6875-4.6071 0-4.991-8.4463-11.134-8.4463-6.5267-8.4463-8.4463 0-2.6875 4.991-2.6875 5.7588 0 19.196 4.6071 13.821 4.2232 13.821 8.4463t-6.9106 13.821q33.785 4.991 56.053 22.651 22.268 17.66 22.268 49.526zm-28.026 1.1518q0-25.723-16.125-42.232-16.125-16.893-41.848-16.893-25.339 0-41.848 16.893-16.125 16.893-16.125 42.232 0 24.571 16.509 41.848 16.893 16.893 41.464 16.893t41.08-16.893q16.893-17.277 16.893-41.848z"/>
  </g>
  <g id="number-1" class="stroke-number">
   <path id="path828" d="m195.76 165.06c10.066 0 18.22-8.1534 18.22-18.22s-8.1534-18.22-18.22-18.22-18.22 8.1534-18.22 18.22 8.1534 18.22 18.22 18.22zm0-2.8598c-8.4849 0-15.35-6.875-15.35-15.36s6.8655-15.36 15.35-15.36 15.36 6.875 15.36 15.36-6.875 15.36-15.36 15.36zm2.822-25.057h-4.3466l-4.7822 2.9735v4.053l4.3371-2.6515h0.11364v15.019h4.678z"/>
  </g>
  <path id="arrow-1" class="order-arrow" d="m169.11 155.66c-56.285 21.491-84.257 85.197-74.07 143.52 9.9317 56.859 56.65 108.64 147.87 111.2v9.9336l21.299-12.311-1.998-1.1543-19.301-11.156v9.6895c-89.305-2.5094-133.38-52.313-142.94-107.06-9.8132-56.181 17.215-117.47 70.93-137.98a2.5 2.5 0 0 0 1.4434-3.2285 2.5 2.5 0 0 0-3.2285-1.4434z"/>
 </g>
</svg>
