<?xml version="1.0" encoding="UTF-8"?>
<svg id="svg5" width="500" height="500" version="1.1" viewBox="0 0 500 500" xmlns="http://www.w3.org/2000/svg">
 <style type="text/css">
  .order-arrow { stroke-linecap: round }
 </style>
 <g id="layer1">
  <g id="jamo" class="jamo" transform="matrix(1.4795 0 0 1.4795 -45.863 -133.39)">
   <path id="path837" d="m316.69 328.63q0 9.2142-8.0624 9.2142-9.2142 0-41.848-23.419-32.25-23.419-54.901-41.848-3.4553 2.3035-19.58 13.821-16.125 11.134-27.259 18.428-11.134 6.9106-26.491 16.125-15.357 8.8302-28.026 13.821-12.669 4.6071-21.5 4.6071-5.7588 0-5.7588-3.0714 0-1.5357 6.9106-6.1428 6.9106-4.991 16.125-10.366 9.5981-5.7588 9.982-6.1428 49.142-31.098 92.142-74.097 29.562-29.562 29.562-39.16 0-2.6875-9.5981-2.6875h-26.107q-25.339 0-32.25 3.8392-0.76785 0.38392-4.2232 2.6875-3.4553 2.3035-5.7588 3.0714-2.3035 0.76785-4.991 0.76785-6.9106 0-26.491-8.4463-19.58-8.8302-19.58-14.205 0-4.6071 4.991-4.6071 2.6875 0 14.205 1.9196 21.884 3.0714 58.74 3.0714h42.615q4.991 0 14.205-3.4553 9.2142-3.4553 14.205-3.4553 9.5981 0 23.035 2.3035 13.437 1.9196 13.437 6.9106 0 5.3749-11.134 13.053-8.8302 6.9106-18.044 18.044-15.357 18.428-41.464 42.232l20.348 13.437q6.1428 4.2232 19.964 6.9106 14.205 2.6875 20.348 6.5267 11.134 6.9106 21.5 18.812 10.75 11.518 10.75 21.5z"/>
  </g>
  <g id="number-2" class="stroke-number">
   <path id="path834" d="m266.05 319.28c10.066 0 18.22-8.1534 18.22-18.22s-8.1534-18.22-18.22-18.22-18.22 8.1534-18.22 18.22 8.1534 18.22 18.22 18.22zm0-2.8598c-8.4849 0-15.35-6.875-15.35-15.36s6.8655-15.36 15.35-15.36 15.36 6.875 15.36 15.36-6.875 15.36-15.36 15.36zm-7.0265-5.6629h14.356v-3.7784h-7.8599v-0.12311l2.3201-2.1402c4.2046-3.6648 5.303-5.5303 5.303-7.7557 0-3.4943-2.8504-5.8618-7.2538-5.8618-4.2898 0-7.1591 2.4716-7.1496 6.4205h4.4413c0-1.7519 1.0796-2.7652 2.6894-2.7652 1.5814 0 2.7273 0.97538 2.7273 2.5758 0 1.4489-0.90909 2.4337-2.5 3.8636l-7.0739 6.1932z"/>
  </g>
  <g id="number-1" class="stroke-number">
   <path id="path831" d="m142.03 126.88c10.066 0 18.22-8.1534 18.22-18.22 0-10.066-8.1534-18.22-18.22-18.22s-18.22 8.1534-18.22 18.22c0 10.066 8.1534 18.22 18.22 18.22zm0-2.8598c-8.4849 0-15.35-6.875-15.35-15.36s6.8655-15.36 15.35-15.36 15.36 6.875 15.36 15.36-6.875 15.36-15.36 15.36zm2.822-25.057h-4.3466l-4.7822 2.9735v4.053l4.3371-2.6515h0.11363v15.019h4.678z"/>
  </g>
  <path id="arrow-1" class="order-arrow" d="m171 106.16c-1.3807 0-2.5 1.1193-2.5 2.5s1.1193 2.5 2.5 2.5h274.67l-115.46 127.56-7.2734-6.584-5.166 24.051 2.1973-0.70703 21.223-6.8223-7.2734-6.584 123.02-135.92z"/>
  <path id="arrow-2" class="order-arrow" d="m289.66 314.52c-0.65694 0.0898-1.2513 0.43684-1.6524 0.96484-0.83538 1.1001-0.62021 2.6693 0.48047 3.5039l65.035 52.123-5.9316 7.8145 24.408 3.0703-0.89257-2.127-8.6289-20.555-5.9316 7.8125-65.035-52.123c-0.52851-0.40066-1.1946-0.5749-1.8516-0.48437z"/>
 </g>
</svg>
