<?xml version="1.0" encoding="UTF-8"?>
<svg id="svg5" width="500" height="500" version="1.1" viewBox="0 0 500 500" xmlns="http://www.w3.org/2000/svg">
 <style type="text/css">
  .order-arrow { stroke-linecap: round }
 </style>
 <g id="layer1">
  <g id="jamo" class="jamo" transform="matrix(1.4795 0 0 1.4795 -49.555 -134.24)">
   <path id="path843" d="m241.44 188.11q0 9.2142-15.741 9.2142h-42.999q-6.1428 0-20.732-8.4463-14.205-8.4463-14.205-13.821 0-2.3035 3.8392-2.3035 5.3749 0 15.741 2.6875 10.75 2.6875 16.125 2.6875h38.008q19.964 0 19.964 9.982zm89.07 141.67q0 8.8302-8.8302 8.8302-6.9106 0-110.95-44.151-90.99 52.214-132.07 52.214-4.2232 0-4.2232-3.0714 0-1.5357 2.6875-3.0714 3.0714-1.5357 7.6785-3.4553l4.991-1.5357q38.392-13.821 84.463-43.383 61.428-39.544 61.428-52.597 0-3.0714-4.2232-3.0714h-35.705q-28.026 0-45.687 8.0624-6.1428 3.0714-9.5981 3.0714-5.3749 0-24.955-8.8302-19.196-9.2142-19.196-12.669 0-3.8392 5.3749-3.8392 8.8302 0 26.491 1.5357 17.66 1.1518 26.491 1.1518 13.053 0 39.544-0.38392t39.928-0.38392q4.2232 0 13.437-3.0714 9.2142-3.4553 15.741-3.4553 29.946 0 29.946 10.75 0 4.991-28.026 26.491-28.026 21.5-44.535 32.25 7.2945 2.3035 14.205 4.6071 6.9106 2.3035 13.053 3.8392 6.5267 1.5357 13.821 2.6875 7.2945 0.76784 14.973 0.76784 8.0624 0 30.714 12.286 23.035 11.902 23.035 18.428z"/>
  </g>
  <g id="number-1" class="stroke-number">
   <path id="path834" d="m198.03 114.88c10.066 0 18.22-8.1534 18.22-18.22 0-10.066-8.1534-18.22-18.22-18.22-10.066 0-18.22 8.1534-18.22 18.22 0 10.066 8.1534 18.22 18.22 18.22zm0-2.8598c-8.4848 0-15.35-6.875-15.35-15.36s6.8655-15.36 15.35-15.36c8.4849 0 15.36 6.875 15.36 15.36s-6.875 15.36-15.36 15.36zm2.822-25.057h-4.3466l-4.7822 2.9735v4.053l4.3371-2.6515h0.11363v15.019h4.678z"/>
  </g>
  <g id="number-2" class="stroke-number">
   <path id="path837" d="m130.03 188.88c10.066 0 18.22-8.1534 18.22-18.22s-8.1534-18.22-18.22-18.22-18.22 8.1534-18.22 18.22 8.1534 18.22 18.22 18.22zm0-2.8598c-8.4849 0-15.35-6.875-15.35-15.36s6.8655-15.36 15.35-15.36 15.36 6.875 15.36 15.36-6.875 15.36-15.36 15.36zm-7.0265-5.6629h14.356v-3.7784h-7.8599v-0.12311l2.3201-2.1402c4.2046-3.6648 5.303-5.5303 5.303-7.7557 0-3.4943-2.8504-5.8618-7.2538-5.8618-4.2898 0-7.1591 2.4716-7.1496 6.4205h4.4413c0-1.7519 1.0795-2.7652 2.6894-2.7652 1.5814 0 2.7273 0.97538 2.7273 2.5758 0 1.4489-0.90909 2.4337-2.5 3.8636l-7.0739 6.1932z"/>
  </g>
  <g id="number-3" class="stroke-number">
   <path id="path840" d="m262.71 352.08c10.066 0 18.22-8.1534 18.22-18.22 0-10.066-8.1534-18.22-18.22-18.22s-18.22 8.1534-18.22 18.22c0 10.066 8.1534 18.22 18.22 18.22zm0-2.8599c-8.4849 0-15.35-6.875-15.35-15.36 0-8.4849 6.8655-15.36 15.35-15.36s15.36 6.875 15.36 15.36c0 8.4848-6.875 15.36-15.36 15.36zm-0.0663-5.3977c4.5455 0 7.7746-2.4053 7.7652-5.7765 9e-3 -2.3864-1.553-4.0909-4.5455-4.4413v-0.15151c2.2443-0.32197 3.8352-1.8277 3.8258-4.0057 9e-3 -3.1629-2.8504-5.5492-7.0076-5.5492-4.1856 0-7.2349 2.4242-7.2727 5.8712h4.4792c0.0379-1.3258 1.2311-2.2159 2.7936-2.2159 1.4867 0 2.5 0.89962 2.4905 2.197 9e-3 1.3447-1.1837 2.2727-2.9072 2.2727h-1.8845v3.3333h1.8845c1.9602 0 3.2386 0.96591 3.2197 2.3296 0.0189 1.3731-1.1553 2.3296-2.822 2.3296-1.6572 0-2.8788-0.88069-2.9261-2.1591h-4.7159c0.0379 3.5038 3.1913 5.9659 7.6231 5.9659z"/>
  </g>
  <path id="arrow-1" class="order-arrow" d="m270.91 84.354v9.8105h-42.906a2.5 2.5 0 0 0-2.5 2.5 2.5 2.5 0 0 0 2.5 2.5h42.906v9.8105l21.299-12.311-1.998-1.1543z"/>
  <path id="arrow-2" class="order-arrow" d="m159 168.16c-1.3807 0-2.5 1.1193-2.5 2.5s1.1193 2.5 2.5 2.5h282.67l-104.65 98.898-7.2734-6.584-5.166 24.051 2.1973-0.70703 21.223-6.8223-7.2734-6.584 112.21-107.25z"/>
  <path id="arrow-3" class="order-arrow" d="m290.1 341.5a2.5 2.5 0 0 0-0.96289 0.15235 2.5 2.5 0 0 0-1.4043 1.3008 2.5 2.5 0 0 0 1.2266 3.3164l93.557 43.035-4.1016 8.9141 24.494-2.2852-1.332-1.8828-12.871-18.201-4.0996 8.9121-93.557-43.035a2.5 2.5 0 0 0-0.94922-0.22657z"/>
 </g>
</svg>
