<?xml version="1.0" encoding="UTF-8"?>
<svg id="svg5" width="500" height="500" version="1.1" viewBox="0 0 500 500" xmlns="http://www.w3.org/2000/svg">
 <style type="text/css">
  .order-arrow { stroke-linecap: round }
 </style>
 <g id="layer1">
  <g id="jamo" class="jamo" transform="matrix(1.4795 0 0 1.4795 -43.875 -141.34)">
   <path id="path834" d="m310.55 186.58q0 3.0714-3.8392 8.8302-3.4553 5.7588-3.8392 9.2142-3.0714 26.875-8.8302 56.821-5.7588 29.562-17.277 54.901-16.125 35.705-25.723 35.705-2.6875 0-2.6875-3.0714 0-3.8392 1.1518-7.2945 14.589-51.446 19.196-82.543-10.75 1.1518-30.714 3.0714-19.58 1.5357-36.089 3.4553-16.125 1.5357-30.33 3.8392-4.6071 0.76785-17.277 6.1428-12.286 5.3749-14.589 5.3749-7.6785 0-30.33-9.2142-22.651-9.2142-22.651-14.973 0-4.6071 6.5267-4.6071 2.3035 0 6.1428 0.76784 9.982 1.5357 29.946 1.5357 21.116 0 43.383-1.1518 22.268-1.1518 53.749-3.4553 31.866-2.6875 43.383-3.4553 0.76785-8.4463 1.5357-25.339 0.76785-16.893 1.5357-25.339h-78.32q-26.491 0-34.169 3.4553-2.3035 0.76785-6.1428 3.0714-3.8392 2.3035-7.2945 3.8392-3.0714 1.1518-6.5267 1.1518-6.5267 0-28.794-9.5981-21.884-9.5981-21.884-14.205 0-3.8392 5.7588-3.8392 0.38392 0 15.357 1.1518 39.16 3.0714 74.097 3.0714h62.963q5.7588 0 15.741-3.4553 10.366-3.4553 15.741-3.4553 31.098 0 31.098 9.5981z"/>
  </g>
  <g id="number-1" class="stroke-number">
   <path id="path831" d="m121.65 117.69c10.066 0 18.22-8.1534 18.22-18.22 0-10.066-8.1534-18.22-18.22-18.22s-18.22 8.1534-18.22 18.22c0 10.066 8.1534 18.22 18.22 18.22zm0-2.8598c-8.4849 0-15.35-6.875-15.35-15.36 0-8.4849 6.8655-15.36 15.35-15.36s15.36 6.875 15.36 15.36c0 8.4849-6.875 15.36-15.36 15.36zm2.822-25.057h-4.3466l-4.7822 2.9735v4.053l4.3371-2.6515h0.11364v15.019h4.678z"/>
  </g>
  <g id="number-2" class="stroke-number">
   <path id="path837" d="m121.65 315.69c10.066 0 18.22-8.1534 18.22-18.22s-8.1534-18.22-18.22-18.22-18.22 8.1534-18.22 18.22 8.1534 18.22 18.22 18.22zm0-2.8598c-8.4849 0-15.35-6.875-15.35-15.36s6.8655-15.36 15.35-15.36 15.36 6.875 15.36 15.36-6.875 15.36-15.36 15.36zm-7.0265-5.6629h14.356v-3.7784h-7.8598v-0.12311l2.3201-2.1402c4.2046-3.6648 5.303-5.5303 5.303-7.7557 0-3.4943-2.8504-5.8618-7.2538-5.8618-4.2898 0-7.1591 2.4716-7.1496 6.4205h4.4413c0-1.7519 1.0795-2.7652 2.6894-2.7652 1.5814 0 2.7273 0.97538 2.7273 2.5758 0 1.4489-0.90909 2.4337-2.5 3.8636l-7.0739 6.1932z"/>
  </g>
  <path id="arrow-1" class="order-arrow" d="m150 96.973c-1.3807 0-2.5 1.1193-2.5 2.5 0 1.3807 1.1193 2.5 2.5 2.5h281.5v216.93h-9.8106l12.311 21.299 1.1543-1.998 11.156-19.301h-9.8106v-221.93z"/>
  <path id="arrow-2" class="order-arrow" d="m309.26 257.57 0.84707 9.7739-160.35 24.857c-1.3756 0.11921-2.394 1.331-2.2748 2.7065s1.331 2.394 2.7065 2.2748l160.35-24.857 0.84706 9.7739 20.156-14.104-2.0902-0.97748z"/>
 </g>
</svg>
