<?xml version="1.0" encoding="UTF-8"?>
<svg id="svg5" width="500" height="500" version="1.1" viewBox="0 0 500 500" xmlns="http://www.w3.org/2000/svg">
 <style type="text/css">
  .order-arrow { stroke-linecap: round }
 </style>
 <g id="layer1">
  <g id="jamo" class="jamo" transform="matrix(1.4795 0 0 1.4795 -36.491 -130.55)">
   <path id="path862" d="m306.33 326.33q0 11.518-20.732 11.518-21.116 0-62.963-0.38393-41.848-0.38392-62.579-0.38392-49.142 0-49.142-39.16v-81.392q0-11.134-7.6785-17.66-7.2945-6.5267-14.973-9.2142-7.2945-3.0714-7.2945-5.3749 0-6.1428 16.125-6.1428 8.8302 0 26.107 4.2232 17.277 4.2232 26.107 4.2232h76.017q9.2142 0 21.116-4.991 11.902-4.991 16.509-4.991 36.089 0 36.089 11.518 0 11.134-19.964 11.134-7.6785 0-23.803-0.38392-16.125-0.38392-23.803-0.38392h-80.624q-5.7588 0-8.4463 0.76784-2.6875 0.38392-4.991 3.0714-1.9196 2.3035-1.9196 7.6785v41.848h90.99q11.134 0 21.116-4.2232 9.982-4.2232 12.669-4.2232 34.169 0 34.169 12.286 0 9.5981-18.812 9.5981-6.5267 0-18.812-0.38392-12.286-0.76785-18.812-0.76785h-102.51v33.785q0 13.821 5.3749 20.348 5.7588 6.5267 19.196 6.5267h72.945q6.9106 0 18.812-4.6071 11.902-4.6071 18.044-4.6071 36.473 0 36.473 10.75z"/>
  </g>
  <g id="number-3" class="stroke-number">
   <path id="path859" d="m103.63 207.35c10.066 0 18.22-8.1534 18.22-18.22s-8.1534-18.22-18.22-18.22c-10.066 0-18.22 8.1534-18.22 18.22s8.1534 18.22 18.22 18.22zm0-2.8598c-8.4849 0-15.35-6.875-15.35-15.36s6.8655-15.36 15.35-15.36c8.4849 0 15.36 6.875 15.36 15.36s-6.875 15.36-15.36 15.36zm-0.0663-5.3977c4.5455 0 7.7746-2.4053 7.7652-5.7765 9e-3 -2.3864-1.553-4.0909-4.5455-4.4413v-0.15152c2.2443-0.32197 3.8352-1.8276 3.8258-4.0057 9e-3 -3.1629-2.8504-5.5492-7.0076-5.5492-4.1856 0-7.2349 2.4242-7.2727 5.8712h4.4792c0.0379-1.3258 1.2311-2.2159 2.7936-2.2159 1.4868 0 2.5 0.89963 2.4905 2.197 9e-3 1.3447-1.1837 2.2727-2.9072 2.2727h-1.8845v3.3333h1.8845c1.9602 0 3.2386 0.96592 3.2197 2.3296 0.0189 1.3731-1.1553 2.3296-2.822 2.3296-1.6572 0-2.8788-0.88068-2.9261-2.1591h-4.7159c0.03788 3.5038 3.1913 5.9659 7.6231 5.9659z"/>
  </g>
  <g id="number-2" class="stroke-number">
   <path id="path856" d="m189.63 302.8c10.066 0 18.22-8.1534 18.22-18.22s-8.1534-18.22-18.22-18.22c-10.066 0-18.22 8.1534-18.22 18.22s8.1534 18.22 18.22 18.22zm0-2.8598c-8.4848 0-15.35-6.875-15.35-15.36s6.8655-15.36 15.35-15.36c8.4849 0 15.36 6.875 15.36 15.36s-6.875 15.36-15.36 15.36zm-7.0265-5.6629h14.356v-3.7784h-7.8599v-0.12311l2.3201-2.1402c4.2046-3.6648 5.303-5.5303 5.303-7.7557 0-3.4943-2.8504-5.8618-7.2538-5.8618-4.2898 0-7.1591 2.4716-7.1496 6.4205h4.4413c0-1.7519 1.0796-2.7652 2.6894-2.7652 1.5814 0 2.7273 0.97538 2.7273 2.5758 0 1.4489-0.9091 2.4337-2.5 3.8636l-7.0739 6.1932z"/>
  </g>
  <g id="number-1" class="stroke-number">
   <path id="path853" d="m103.63 124.8c10.066 0 18.22-8.1534 18.22-18.22s-8.1534-18.22-18.22-18.22c-10.066 0-18.22 8.1534-18.22 18.22s8.1534 18.22 18.22 18.22zm0-2.8598c-8.4849 0-15.35-6.875-15.35-15.36 0-8.4849 6.8655-15.36 15.35-15.36 8.4849 0 15.36 6.875 15.36 15.36 0 8.4849-6.875 15.36-15.36 15.36zm2.822-25.057h-4.3466l-4.7822 2.9735v4.053l4.3371-2.6515h0.11364v15.019h4.678z"/>
  </g>
  <path id="arrow-1" class="order-arrow" d="m370.91 94.268v9.8105h-236.91c-1.3807 0-2.5 1.1193-2.5 2.5s1.1193 2.5 2.5 2.5h236.91v9.8106l19.301-12.311v-1.1543z"/>
  <path id="arrow-2" class="order-arrow" d="m370.91 272.27v9.8105h-150.91c-1.3807 0-2.5 1.1193-2.5 2.5s1.1193 2.5 2.5 2.5h150.91v9.8106l19.301-12.311v-1.1543z"/>
  <path id="arrow-3" class="order-arrow" d="m103.63 215.5c-1.3807 0-2.5 1.1193-2.5 2.5v176.73h269.78v9.8105l19.301-12.311v-1.1543l-19.301-11.156v9.8106h-264.78v-171.73c0-1.3807-1.1193-2.5-2.5-2.5z"/>
 </g>
</svg>
