<?xml version="1.0" encoding="UTF-8"?>
<svg id="svg5" width="500" height="500" version="1.1" viewBox="0 0 500 500" xmlns="http://www.w3.org/2000/svg">
 <style type="text/css">
  .order-arrow { stroke-linecap: round }
 </style>
 <g id="layer1">
  <g id="jamo" class="jamo" transform="matrix(1.4795 0 0 1.4795 -49.555 -137.65)">
   <path id="path849" d="m311.32 190.42q0 10.366-14.589 10.366-10.75 0-31.866-1.1518-21.116-1.5357-31.482-1.5357h-45.303q-29.178 0-37.241 3.8392-1.5357 0.76785-4.6071 2.6875-3.0714 1.9196-5.7588 3.0714-2.3035 0.76784-4.991 0.76784-6.9106 0-26.491-9.5981-19.58-9.982-19.58-15.357 0-3.0714 5.3749-3.0714 3.0714 0 6.1428 0.38393 3.0714 0.38392 6.9106 1.1518 3.8392 0.38392 6.1428 0.76784 29.946 3.4553 70.258 3.4553h39.16q21.884 0 36.857-5.3749 8.8302-3.4553 15.741-3.4553 35.321 0 35.321 13.053zm6.9106 138.21q0 9.5981-13.821 9.5981-11.518 0-34.937-1.1518-23.419-1.5357-34.937-1.5357h-51.062q-28.026 0-38.776 5.7588-10.75 5.3749-12.669 5.3749-5.7588 0-25.723-9.5981-19.58-9.982-19.58-14.205 0-3.4553 5.7588-3.4553 3.0714 0 8.4463 0.76785 29.178 3.4553 67.954 3.4553h52.597q0.38393-0.76784 8.8302-23.035 8.4463-22.268 13.437-37.624 5.3749-15.741 5.3749-20.732 0-5.3749-11.134-13.437-10.75-8.0624-10.75-10.366 0-4.6071 9.5981-4.6071 8.0624 0 26.875 7.2945 18.812 7.2945 18.812 13.437-8.4463 13.053-16.893 28.794-8.4463 15.741-14.973 29.946-6.5267 13.821-14.205 30.33h9.982q12.286 0 22.268-3.8392 9.982-4.2232 16.509-4.2232 33.017 0 33.017 13.053zm-139.75-36.857q0 27.259-14.973 27.259-3.8392 0-6.5267-5.7588-2.6875-6.1428-3.8392-11.902-0.76785-5.7588-1.9196-14.589-0.76784-9.2142-0.76784-9.5981-2.6875-18.428-20.348-46.071-5.3749-8.8302-5.3749-9.2142 0-2.6875 2.6875-2.6875 1.9196 0 7.2945 4.2232 17.66 14.205 30.714 32.633 13.053 18.044 13.053 35.705z"/>
  </g>
  <g id="number-4" class="stroke-number">
   <path id="path846" d="m107.12 412.53c10.066 0 18.22-8.1534 18.22-18.22 0-10.066-8.1534-18.22-18.22-18.22-10.066 0-18.22 8.1534-18.22 18.22 0 10.066 8.1534 18.22 18.22 18.22zm0-2.8599c-8.4849 0-15.35-6.875-15.35-15.36 0-8.4849 6.8655-15.36 15.35-15.36 8.4849 0 15.36 6.875 15.36 15.36 0 8.4848-6.875 15.36-15.36 15.36zm-9.0625-8.8826h9.3655v3.2197h4.4792v-3.2197h2.3201v-3.6932h-2.3201v-12.481h-5.8996l-7.9451 12.519zm9.4602-3.6932h-4.8011v-0.15152l4.6496-7.3674h0.15151z"/>
  </g>
  <g id="number-3" class="stroke-number">
   <path id="path843" d="m395.48 230.45c10.066 0 18.22-8.1534 18.22-18.22s-8.1534-18.22-18.22-18.22-18.22 8.1534-18.22 18.22 8.1534 18.22 18.22 18.22zm0-2.8598c-8.4849 0-15.35-6.875-15.35-15.36s6.8655-15.36 15.35-15.36 15.36 6.875 15.36 15.36-6.875 15.36-15.36 15.36zm-0.0663-5.3977c4.5455 0 7.7746-2.4053 7.7652-5.7765 9e-3 -2.3864-1.553-4.0909-4.5455-4.4413v-0.15151c2.2443-0.32197 3.8352-1.8277 3.8258-4.0057 9e-3 -3.1629-2.8504-5.5492-7.0076-5.5492-4.1856 0-7.2349 2.4242-7.2727 5.8712h4.4792c0.0379-1.3258 1.2311-2.2159 2.7936-2.2159 1.4867 0 2.5 0.89962 2.4905 2.197 9e-3 1.3447-1.1837 2.2727-2.9072 2.2727h-1.8845v3.3333h1.8845c1.9602 0 3.2386 0.96591 3.2197 2.3296 0.0189 1.3731-1.1553 2.3295-2.822 2.3295-1.6572 0-2.8788-0.88068-2.9261-2.1591h-4.7159c0.0379 3.5038 3.1913 5.9659 7.6231 5.9659z"/>
  </g>
  <g id="number-2" class="stroke-number">
   <path id="path840" d="m111.97 230.45c10.066 0 18.22-8.1534 18.22-18.22s-8.1534-18.22-18.22-18.22-18.22 8.1534-18.22 18.22 8.1534 18.22 18.22 18.22zm0-2.8598c-8.4849 0-15.35-6.875-15.35-15.36s6.8655-15.36 15.35-15.36 15.36 6.875 15.36 15.36-6.875 15.36-15.36 15.36zm-7.0265-5.6629h14.356v-3.7784h-7.8599v-0.1231l2.3201-2.1402c4.2046-3.6648 5.303-5.5303 5.303-7.7557 0-3.4943-2.8504-5.8618-7.2538-5.8618-4.2898 0-7.1591 2.4716-7.1496 6.4205h4.4413c0-1.7519 1.0796-2.7652 2.6894-2.7652 1.5814 0 2.7273 0.97538 2.7273 2.5758 0 1.4489-0.9091 2.4337-2.5 3.8636l-7.0739 6.1932z"/>
  </g>
  <g id="number-1" class="stroke-number">
   <path id="path837" d="m107.12 124.53c10.066 0 18.22-8.1534 18.22-18.22 0-10.066-8.1534-18.22-18.22-18.22-10.066 0-18.22 8.1534-18.22 18.22 0 10.066 8.1534 18.22 18.22 18.22zm0-2.8599c-8.4849 0-15.35-6.875-15.35-15.36 0-8.4849 6.8655-15.36 15.35-15.36 8.4849 0 15.36 6.875 15.36 15.36 0 8.4848-6.875 15.36-15.36 15.36zm2.822-25.057h-4.3466l-4.7822 2.9735v4.053l4.3371-2.6515h0.11363v15.019h4.678z"/>
  </g>
  <path id="arrow-1" class="order-arrow" d="m314 94v9.8106h-176.91c-1.3807 0-2.5 1.1193-2.5 2.5s1.1193 2.5 2.5 2.5h176.91v9.8105l21.299-12.311-1.998-1.1543z"/>
  <path id="arrow-2" class="order-arrow" d="m122.29 235.52c-0.32633-0.0375-0.65685-0.0102-0.97266 0.0801-1.3281 0.37939-2.0969 1.7639-1.7168 3.0918l20.051 63.18-9.4316 2.6953 17.688 17.096 0.56055-2.2383 5.4258-21.623-9.4336 2.6953-20.051-63.18c-0.27788-0.97248-1.1143-1.6817-2.1191-1.7969z"/>
  <path id="arrow-3" class="order-arrow" d="m380.53 236.77c0-0.32848 0.64819 0.10681 0.9429 0.25185 1.2394 0.6096 1.7496 2.1088 1.1394 3.3479l-32.97 60.605 8.8017 4.3302-20.447 13.676-0.15343-2.3023-1.4926-22.243 8.8036 4.3305 32.97-60.605c0.44645-0.90753 2.405-0.37983 2.405-1.3912z"/>
  <path id="arrow-4" class="order-arrow" d="m380 382v9.8106h-242.91c-1.3807 0-2.5 1.1193-2.5 2.5s1.1193 2.5 2.5 2.5h242.91v9.8105l21.299-12.311-1.998-1.1543z"/>
 </g>
</svg>
