<?xml version="1.0" encoding="UTF-8"?>
<svg id="svg5" width="500" height="500" version="1.1" viewBox="0 0 500 500" xmlns="http://www.w3.org/2000/svg">
 <style type="text/css">
  .order-arrow { stroke-linecap: round }
 </style>
 <g id="layer1">
  <g id="jamo" class="jamo" transform="matrix(1.4795 0 0 1.4795 -46.431 -135.95)">
   <path id="path859" d="m229.16 168.53q20.348 0 20.348 9.5981 0 9.5981-16.509 9.5981h-50.678q-10.366 0-25.723-6.9106-14.973-7.2945-14.973-16.125 1.5357-1.5357 2.6875-1.5357 5.7588 0 16.509 2.6875 10.75 2.6875 16.509 2.6875zm91.374 47.99q0 10.366-17.66 10.366-18.812 0-56.437-1.5357-37.624-1.5357-56.437-1.5357-33.401 0-44.919 6.1428-11.134 6.1428-14.589 6.1428-5.7588 0-28.026-10.366-22.268-10.366-22.268-14.205 0-4.2232 8.0624-4.2232 4.6071 0 6.9106 0.38393 37.241 3.8392 77.936 3.8392h66.035q10.366 0 23.803-3.8392 13.821-4.2232 24.571-4.2232 33.017 0 33.017 13.053zm-46.071 86.383q0 24.955-22.651 40.312-22.268 15.357-48.374 15.357-26.107 0-48.758-14.589-22.651-14.589-22.651-39.16 0-11.134 3.4553-19.58 3.8392-8.8302 9.982-13.821 6.1428-5.3749 13.821-9.5981 8.0624-4.6071 16.893-6.9106 9.2142-2.6875 18.428-5.7588 3.4553-1.1518 3.4553-4.2232 0-3.4553-3.4553-7.2945t-6.1428-6.1428v-0.38392q1.1518-1.1518 3.0714-1.1518 4.6071 0 15.357 3.4553 10.75 3.4553 10.75 6.9106 0 3.4553-6.5267 8.8302 13.821 2.6875 23.419 5.7588 9.5981 3.0714 19.58 9.2142 9.982 5.7588 14.973 15.741 5.3749 9.5981 5.3749 23.035zm-24.571-0.76784q0-18.428-14.205-29.562-13.821-11.518-32.633-11.518t-32.633 11.518q-13.821 11.134-13.821 29.562 0 18.044 13.821 29.562 14.205 11.134 32.633 11.134 18.044 0 32.25-11.518 14.589-11.518 14.589-29.178z"/>
  </g>
  <g id="number-1" class="stroke-number">
   <path id="path850" d="m196.65 99.392c10.066 0 18.22-8.1534 18.22-18.22 0-10.066-8.1534-18.22-18.22-18.22s-18.22 8.1534-18.22 18.22c0 10.066 8.1534 18.22 18.22 18.22zm0-2.8599c-8.4849 0-15.35-6.875-15.35-15.36s6.8655-15.36 15.35-15.36 15.36 6.875 15.36 15.36-6.875 15.36-15.36 15.36zm2.822-25.057h-4.3466l-4.7822 2.9735v4.053l4.3371-2.6515h0.11364v15.019h4.678z"/>
  </g>
  <g id="number-2" class="stroke-number">
   <path id="path853" d="m53.743 169.91c10.066 0 18.22-8.1534 18.22-18.22s-8.1534-18.22-18.22-18.22c-10.066 0-18.22 8.1534-18.22 18.22s8.1534 18.22 18.22 18.22zm0-2.8599c-8.4849 0-15.35-6.875-15.35-15.36s6.8655-15.36 15.35-15.36c8.4849 0 15.36 6.875 15.36 15.36s-6.875 15.36-15.36 15.36zm-7.0265-5.6629h14.356v-3.7784h-7.8599v-0.1231l2.3201-2.1402c4.2046-3.6648 5.303-5.5303 5.303-7.7557 0-3.4943-2.8504-5.8618-7.2538-5.8618-4.2898 0-7.1591 2.4716-7.1496 6.4205h4.4413c0-1.7519 1.0795-2.7652 2.6894-2.7652 1.5814 0 2.7273 0.97538 2.7273 2.5758 0 1.4489-0.90909 2.4337-2.5 3.8636l-7.0739 6.1932z"/>
  </g>
  <g id="number-3" class="stroke-number">
   <path id="path856" d="m206.65 237.39c10.066 0 18.22-8.1534 18.22-18.22s-8.1534-18.22-18.22-18.22-18.22 8.1534-18.22 18.22 8.1534 18.22 18.22 18.22zm0-2.8598c-8.4849 0-15.35-6.875-15.35-15.36s6.8655-15.36 15.35-15.36 15.36 6.875 15.36 15.36-6.875 15.36-15.36 15.36zm-0.0663-5.3977c4.5455 0 7.7746-2.4053 7.7652-5.7765 9e-3 -2.3864-1.553-4.0909-4.5455-4.4413v-0.15152c2.2443-0.32197 3.8352-1.8276 3.8258-4.0057 9e-3 -3.1629-2.8504-5.5492-7.0076-5.5492-4.1856 0-7.2349 2.4242-7.2727 5.8712h4.4792c0.0379-1.3258 1.2311-2.2159 2.7936-2.2159 1.4867 0 2.5 0.89962 2.4905 2.197 9e-3 1.3447-1.1837 2.2727-2.9072 2.2727h-1.8845v3.3333h1.8845c1.9602 0 3.2386 0.96591 3.2197 2.3296 0.0189 1.3731-1.1553 2.3296-2.822 2.3296-1.6572 0-2.8788-0.88068-2.9261-2.1591h-4.7159c0.0379 3.5038 3.1913 5.9659 7.6231 5.9659z"/>
  </g>
  <path id="arrow-1" class="order-arrow" d="m284.91 68.861v9.8105h-58.906c-1.3807 0-2.5 1.1193-2.5 2.5s1.1193 2.5 2.5 2.5h58.906v9.8105l21.299-12.311-1.998-1.1543z"/>
  <path id="arrow-2" class="order-arrow" d="m332 139.38v9.8106h-248.91c-1.3807 0-2.5 1.1193-2.5 2.5s1.1193 2.5 2.5 2.5h248.91v9.8106l21.299-12.311-1.998-1.1543z"/>
  <path id="arrow-3" class="order-arrow" d="m180.51 227.55a2.5 2.5 0 0 0-1.8809 0.35547c-27.827 18.214-45.108 38.84-53.152 59.854-8.0448 21.013-6.7543 42.368 2.2578 61.551 17.371 36.975 62.954 65.952 125.01 72.525l-0.76172 9.8926 22.18-10.641-1.9023-1.3047-18.389-12.604-0.74414 9.666c-60.681-6.4749-104.52-34.864-120.86-69.66-8.4878-18.067-9.6973-37.837-2.1172-57.637 7.5802-19.799 24.049-39.673 51.223-57.459a2.5 2.5 0 0 0 0.72266-3.4609 2.5 2.5 0 0 0-1.5801-1.0781z"/>
 </g>
</svg>
