<?xml version="1.0" encoding="UTF-8"?>
<svg id="svg5" width="500" height="500" version="1.1" viewBox="0 0 500 500" xmlns="http://www.w3.org/2000/svg">
 <style type="text/css">
  .order-arrow { stroke-linecap: round }
 </style>
 <g id="layer1">
  <g id="jamo" class="jamo" transform="matrix(1.4795 0 0 1.4795 -209.45 -110.39)">
   <path id="path831" d="m376.58 239.94q0 10.366-18.044 10.366h-55.669v61.044q0 92.909-17.277 92.909-7.2945 0-7.2945-41.848v-244.18q0-8.4463-8.4463-14.205-8.4463-5.7588-16.893-9.2142-8.4463-3.8392-8.4463-6.9106 0-4.991 12.669-4.991 13.437 0 31.482 4.6071t18.044 13.437q0 4.2232-1.9196 13.053-1.9196 8.8302-1.9196 13.437v110.95h9.2142q6.5267 0 18.044-4.991 11.902-4.991 18.428-4.991 28.026 0 28.026 11.518z"/>
  </g>
  <g id="number-1" class="stroke-number">
   <path id="path834" d="m172.02 87.048c10.066 0 18.22-8.1534 18.22-18.22 0-10.066-8.1534-18.22-18.22-18.22s-18.22 8.1534-18.22 18.22c0 10.066 8.1534 18.22 18.22 18.22zm0-2.8599c-8.4849 0-15.35-6.875-15.35-15.36 0-8.4849 6.8655-15.36 15.35-15.36s15.36 6.875 15.36 15.36c0 8.4849-6.875 15.36-15.36 15.36zm2.822-25.057h-4.3466l-4.7822 2.9735v4.053l4.3371-2.6515h0.11364v15.019h4.678z"/>
  </g>
  <g id="number-2" class="stroke-number">
   <path id="path837" d="m267.03 217.53c10.066 0 18.22-8.1534 18.22-18.22 0-10.066-8.1534-18.22-18.22-18.22s-18.22 8.1534-18.22 18.22c0 10.066 8.1534 18.22 18.22 18.22zm0-2.8599c-8.4849 0-15.35-6.875-15.35-15.36 0-8.4849 6.8655-15.36 15.35-15.36s15.36 6.875 15.36 15.36c0 8.4848-6.875 15.36-15.36 15.36zm-7.0265-5.6629h14.356v-3.7784h-7.8599v-0.1231l2.3201-2.1402c4.2046-3.6648 5.303-5.5303 5.303-7.7557 0-3.4943-2.8504-5.8618-7.2538-5.8618-4.2898 0-7.1591 2.4716-7.1496 6.4205h4.4413c0-1.7519 1.0796-2.7652 2.6894-2.7652 1.5814 0 2.7273 0.97538 2.7273 2.5758 0 1.4489-0.90909 2.4337-2.5 3.8636l-7.0739 6.1932z"/>
  </g>
  <path id="arrow-1" class="order-arrow" d="m172.02 92.5a2.5 2.5 0 0 0-2.5 2.5v332.91h-9.8106l12.311 21.299 1.1543-1.998 11.156-19.301h-9.8105v-332.91a2.5 2.5 0 0 0-2.5-2.5z"/>
  <path id="arrow-2" class="order-arrow" d="m327.6 187v9.8106h-32.74a2.1593 2.5 0 0 0-2.1593 2.5 2.1593 2.5 0 0 0 2.1593 2.5h32.74v9.8105l18.396-12.311-1.7257-1.1543z"/>
 </g>
</svg>
