<?xml version="1.0" encoding="UTF-8"?>
<svg id="svg5" width="500" height="500" version="1.1" viewBox="0 0 500 500" xmlns="http://www.w3.org/2000/svg">
 <style type="text/css">
  .order-arrow { stroke-linecap: round }
 </style>
 <g id="layer1">
  <g id="jamo" class="jamo" transform="matrix(1.4795 0 0 1.4795 -209.45 -110.39)" aria-label="ㅑ">
   <path id="path843" d="m351.25 262.98q25.339 0 25.339 10.366t-26.491 10.366q0 0-47.223 0 0 120.55-18.428 120.55-6.1428 0-6.1428-41.08v-231.51q0-8.0624-0.38393-11.902-1.1518-9.982-9.5981-15.741-8.0624-5.7588-16.125-8.8302-7.6785-3.0714-7.6785-6.9106 0-5.3749 13.821-5.3749 11.134 0 29.562 5.3749 18.812 4.991 18.812 12.669 0 4.2232-1.9196 13.437-1.9196 8.8302-1.9196 13.437v64.115h7.2945q6.5267 0 17.66-4.2232 11.134-4.2232 19.196-4.2232 29.562 0 29.562 10.366 0 11.134-32.633 11.134-6.9106 0-20.732-0.38393-13.437-0.76784-20.348-0.76784v67.57h9.982q6.5267 0 18.812-4.2232 12.286-4.2232 19.58-4.2232z"/>
  </g>
  <g id="number-1" class="stroke-number">
   <path id="path834" d="m172.02 87.048c10.066 0 18.22-8.1534 18.22-18.22 0-10.066-8.1534-18.22-18.22-18.22s-18.22 8.1534-18.22 18.22c0 10.066 8.1534 18.22 18.22 18.22zm0-2.8599c-8.4849 0-15.35-6.875-15.35-15.36 0-8.4849 6.8655-15.36 15.35-15.36s15.36 6.875 15.36 15.36c0 8.4849-6.875 15.36-15.36 15.36zm2.822-25.057h-4.3466l-4.7822 2.9735v4.053l4.3371-2.6515h0.11364v15.019h4.678z"/>
  </g>
  <g id="number-2" class="stroke-number">
   <path id="path837" d="m265.03 151.53c10.066 0 18.22-8.1534 18.22-18.22 0-10.066-8.1534-18.22-18.22-18.22s-18.22 8.1534-18.22 18.22c0 10.066 8.1534 18.22 18.22 18.22zm0-2.8599c-8.4849 0-15.35-6.875-15.35-15.36 0-8.4849 6.8655-15.36 15.35-15.36s15.36 6.875 15.36 15.36c0 8.4848-6.875 15.36-15.36 15.36zm-7.0265-5.6629h14.356v-3.7784h-7.8599v-0.1231l2.3201-2.1402c4.2046-3.6648 5.303-5.5303 5.303-7.7557 0-3.4943-2.8504-5.8618-7.2538-5.8618-4.2898 0-7.1591 2.4716-7.1496 6.4205h4.4413c0-1.7519 1.0796-2.7652 2.6894-2.7652 1.5814 0 2.7273 0.97538 2.7273 2.5758 0 1.4489-0.90909 2.4337-2.5 3.8636l-7.0739 6.1932z"/>
  </g>
  <g id="number-3" class="stroke-number">
   <path id="path840" d="m265.03 353.53c10.066 0 18.22-8.1534 18.22-18.22 0-10.066-8.1534-18.22-18.22-18.22s-18.22 8.1534-18.22 18.22c0 10.066 8.1534 18.22 18.22 18.22zm0-2.8599c-8.4849 0-15.35-6.875-15.35-15.36 0-8.4849 6.8655-15.36 15.35-15.36s15.36 6.875 15.36 15.36c0 8.4848-6.875 15.36-15.36 15.36zm-0.0663-5.3977c4.5455 0 7.7746-2.4053 7.7652-5.7765 9e-3 -2.3864-1.553-4.0909-4.5455-4.4413v-0.15151c2.2443-0.32197 3.8352-1.8277 3.8258-4.0057 9e-3 -3.1629-2.8504-5.5492-7.0076-5.5492-4.1856 0-7.2349 2.4242-7.2727 5.8712h4.4792c0.0379-1.3258 1.2311-2.2159 2.7936-2.2159 1.4867 0 2.5 0.89962 2.4905 2.197 9e-3 1.3447-1.1837 2.2727-2.9072 2.2727h-1.8845v3.3333h1.8845c1.9602 0 3.2386 0.96591 3.2197 2.3296 0.0189 1.3731-1.1553 2.3296-2.822 2.3296-1.6572 0-2.8788-0.88069-2.9261-2.1591h-4.7159c0.0379 3.5038 3.1913 5.9659 7.6231 5.9659z"/>
  </g>
  <path id="arrow-1" class="order-arrow" d="m172.02 92.5a2.5 2.5 0 0 0-2.5 2.5v332.91h-9.8106l12.311 21.299 1.1543-1.998 11.156-19.301h-9.8105v-332.91a2.5 2.5 0 0 0-2.5-2.5z"/>
  <path id="arrow-2" class="order-arrow" d="m325.6 121v9.8106h-32.74a2.1593 2.5 0 0 0-2.1593 2.5 2.1593 2.5 0 0 0 2.1593 2.5h32.74v9.8105l18.396-12.311-1.7257-1.1543z"/>
  <path id="arrow-3" class="order-arrow" d="m325.6 323v9.8106h-32.74a2.1593 2.5 0 0 0-2.1593 2.5 2.1593 2.5 0 0 0 2.1593 2.5h32.74v9.8105l18.396-12.311-1.7257-1.1543z"/>
 </g>
</svg>
