<?xml version="1.0" encoding="UTF-8"?>
<svg id="svg5" width="500" height="500" version="1.1" viewBox="0 0 500 500" xmlns="http://www.w3.org/2000/svg">
 <style type="text/css">
  .order-arrow { stroke-linecap: round }
 </style>
 <g id="layer1">
  <g id="jamo" class="jamo" transform="matrix(1.4795 0 0 1.4795 -129.64 -110.39)">
   <path id="path837" d="m324.37 99.428q0 5.7588-2.3035 16.125t-2.3035 16.125v180.06q0 92.525-16.893 92.525-7.2945 0-7.2945-50.294v-115.56h-31.866q-11.134 0-22.651 6.1428-11.134 5.7588-12.669 5.7588-5.3749 0-22.651-9.5981-16.893-9.5981-16.893-14.205 0-3.4553 4.6071-3.4553l21.884 2.3035q9.5981 1.1518 28.41 1.1518h51.83v-100.2q0-11.134-0.76784-13.821-1.9196-5.7588-17.66-12.669-15.741-7.2945-15.741-10.366 0-6.5267 14.205-6.5267 10.366 0 29.562 4.991 19.196 4.6071 19.196 11.518z"/>
  </g>
  <g id="number-1" class="stroke-number">
   <path id="path831" d="m177.03 215.53c10.066 0 18.22-8.1534 18.22-18.22 0-10.066-8.1534-18.22-18.22-18.22s-18.22 8.1534-18.22 18.22c0 10.066 8.1534 18.22 18.22 18.22zm0-2.8599c-8.4849 0-15.35-6.875-15.35-15.36 0-8.4849 6.8655-15.36 15.35-15.36s15.36 6.875 15.36 15.36c0 8.4848-6.875 15.36-15.36 15.36zm2.822-25.057h-4.3466l-4.7822 2.9735v4.053l4.3371-2.6515h0.11363v15.019h4.678z"/>
  </g>
  <g id="number-2" class="stroke-number">
   <path id="path834" d="m370.02 91.048c10.066 0 18.22-8.1534 18.22-18.22 0-10.066-8.1534-18.22-18.22-18.22s-18.22 8.1534-18.22 18.22c0 10.066 8.1534 18.22 18.22 18.22zm0-2.8599c-8.4849 0-15.35-6.875-15.35-15.36 0-8.4849 6.8655-15.36 15.35-15.36s15.36 6.875 15.36 15.36c0 8.4849-6.875 15.36-15.36 15.36zm-7.0265-5.6629h14.356v-3.7784h-7.8599v-0.12311l2.3201-2.1402c4.2046-3.6648 5.303-5.5303 5.303-7.7557 0-3.4943-2.8504-5.8617-7.2538-5.8617-4.2898 0-7.1591 2.4716-7.1496 6.4205h4.4413c0-1.7519 1.0796-2.7652 2.6894-2.7652 1.5814 0 2.7273 0.97538 2.7273 2.5758 0 1.4489-0.90909 2.4337-2.5 3.8636l-7.0739 6.1932z"/>
  </g>
  <path id="arrow-1" class="order-arrow" d="m277.91 185v9.8106h-72.906a2.5 2.5 0 0 0-2.5 2.5 2.5 2.5 0 0 0 2.5 2.5h72.906v9.8105l21.299-12.311-1.998-1.1543z"/>
  <path id="arrow-2" class="order-arrow" d="m370.02 96.5a2.5 2.5 0 0 0-2.5 2.5v332.91h-9.8106l12.311 21.299 1.1543-1.998 11.156-19.301h-9.8105v-332.91a2.5 2.5 0 0 0-2.5-2.5z"/>
 </g>
</svg>
