<?xml version="1.0" encoding="UTF-8"?>
<svg id="svg5" width="500" height="500" version="1.1" viewBox="0 0 500 500" xmlns="http://www.w3.org/2000/svg">
 <style type="text/css">
  .order-arrow { stroke-linecap: round }
 </style>
 <g id="layer1">
  <g id="jamo" class="jamo" transform="matrix(1.4795 0 0 1.4795 -138.16 -110.39)">
   <path id="path843" d="m324.37 99.045q0 5.3749-2.3035 16.125-2.3035 10.75-2.3035 16.509v181.21q0 91.374-17.66 91.374-6.5267 0-6.5267-49.526v-66.419h-18.812q-8.8302 0-19.964 6.1428-10.75 6.1428-12.286 6.1428-7.6785 0-26.107-9.2142-18.044-9.5981-18.044-15.741 0-3.4553 4.991-3.4553 1.5357 0 5.3749 0.76785 14.589 2.6875 38.008 2.6875h46.839v-61.812h-16.125q-10.366 0-21.884 5.3749-11.134 5.3749-12.286 5.3749-7.6785 0-23.803-8.0624-16.125-8.4463-16.125-14.973 0-3.4553 4.2232-3.4553 1.5357 0 5.3749 0.76785 15.741 2.6875 40.312 2.6875h40.312v-69.874q0-17.66-4.991-23.803-4.6071-6.5267-21.5-13.053-7.6785-3.4553-7.6785-6.1428 0-5.7588 15.357-5.7588 10.366 0 28.794 4.6071 18.812 4.6071 18.812 11.518z"/>
  </g>
  <g id="number-1" class="stroke-number">
   <path id="path834" d="m189.03 175.53c10.066 0 18.22-8.1534 18.22-18.22 0-10.066-8.1534-18.22-18.22-18.22s-18.22 8.1534-18.22 18.22c0 10.066 8.1534 18.22 18.22 18.22zm0-2.8599c-8.4849 0-15.35-6.875-15.35-15.36 0-8.4849 6.8655-15.36 15.35-15.36s15.36 6.875 15.36 15.36c0 8.4848-6.875 15.36-15.36 15.36zm2.822-25.057h-4.3466l-4.7822 2.9735v4.053l4.3371-2.6515h0.11363v15.019h4.678z"/>
  </g>
  <g id="number-2" class="stroke-number">
   <path id="path837" d="m189.03 375.53c10.066 0 18.22-8.1534 18.22-18.22 0-10.066-8.1534-18.22-18.22-18.22s-18.22 8.1534-18.22 18.22c0 10.066 8.1534 18.22 18.22 18.22zm0-2.8599c-8.4849 0-15.35-6.875-15.35-15.36 0-8.4849 6.8655-15.36 15.35-15.36s15.36 6.875 15.36 15.36c0 8.4848-6.875 15.36-15.36 15.36zm-7.0265-5.6629h14.356v-3.7784h-7.8599v-0.1231l2.3201-2.1402c4.2046-3.6648 5.303-5.5303 5.303-7.7557 0-3.4943-2.8504-5.8618-7.2538-5.8618-4.2898 0-7.1591 2.4716-7.1496 6.4205h4.4413c0-1.7519 1.0796-2.7652 2.6894-2.7652 1.5814 0 2.7273 0.97538 2.7273 2.5758 0 1.4489-0.90909 2.4337-2.5 3.8636l-7.0739 6.1932z"/>
  </g>
  <g id="number-3" class="stroke-number">
   <path id="path840" d="m360.02 93.048c10.066 0 18.22-8.1534 18.22-18.22 0-10.066-8.1534-18.22-18.22-18.22s-18.22 8.1534-18.22 18.22c0 10.066 8.1534 18.22 18.22 18.22zm0-2.8599c-8.4849 0-15.35-6.875-15.35-15.36 0-8.4849 6.8655-15.36 15.35-15.36s15.36 6.875 15.36 15.36c0 8.4849-6.875 15.36-15.36 15.36zm-0.0663-5.3977c4.5455 0 7.7746-2.4053 7.7652-5.7765 9e-3 -2.3864-1.553-4.0909-4.5455-4.4413v-0.15152c2.2443-0.32197 3.8352-1.8277 3.8258-4.0057 9e-3 -3.1629-2.8504-5.5492-7.0076-5.5492-4.1856 0-7.2348 2.4242-7.2727 5.8712h4.4792c0.0379-1.3258 1.2311-2.2159 2.7936-2.2159 1.4868 0 2.5 0.89962 2.4905 2.197 9e-3 1.3447-1.1837 2.2727-2.9072 2.2727h-1.8845v3.3333h1.8845c1.9602 0 3.2386 0.96591 3.2197 2.3295 0.0189 1.3731-1.1553 2.3295-2.822 2.3295-1.6572 0-2.8788-0.88068-2.9261-2.1591h-4.7159c0.0379 3.5038 3.1913 5.9659 7.6231 5.9659z"/>
  </g>
  <path id="arrow-1" class="order-arrow" d="m268.91 145v9.8106h-52.906a2.5 2.5 0 0 0-2.5 2.5 2.5 2.5 0 0 0 2.5 2.5h52.906v9.8105l21.299-12.311-1.998-1.1543z"/>
  <path id="arrow-2" class="order-arrow" d="m268.91 345v9.8106h-52.906a2.5 2.5 0 0 0-2.5 2.5 2.5 2.5 0 0 0 2.5 2.5h52.906v9.8105l21.299-12.311-1.998-1.1543z"/>
  <path id="arrow-3" class="order-arrow" d="m360.02 98.5a2.5 2.5 0 0 0-2.5 2.5v332.91h-9.8106l12.311 21.299 1.1543-1.998 11.156-19.301h-9.8105v-332.91a2.5 2.5 0 0 0-2.5-2.5z"/>
 </g>
</svg>
