<?xml version="1.0" encoding="UTF-8"?>
<svg id="svg5" width="500" height="500" version="1.1" viewBox="0 0 500 500" xmlns="http://www.w3.org/2000/svg">
 <style type="text/css">
  .order-arrow { stroke-linecap: round }
 </style>
 <g id="layer1">
  <g id="jamo" class="jamo" transform="matrix(1.4795 0 0 1.4795 -51.259 -190.47)">
   <path id="path837" d="m355.08 346.67q0 12.286-16.125 12.286-5.3749 0-15.741-0.76784-9.982-1.1518-13.821-1.1518-59.508-3.4553-79.088-3.4553h-64.499q-26.491 0-42.999 7.6785-1.1518 0.38392-5.3749 2.6875-3.8392 2.3035-6.9106 3.4553-3.0714 1.1518-5.7588 1.1518-8.0624 0-30.33-11.518-22.268-11.902-22.268-18.428 0-3.4553 6.5267-3.4553 1.9196 0 6.5267 0.76785 29.946 5.3749 65.651 5.3749h60.276v-77.936q0-11.518-8.0624-16.509-7.6785-5.3749-15.741-7.2945-8.0624-2.3035-8.0624-6.1428 0-6.5267 14.205-6.5267 6.9106 0 15.741 0.76784 8.8302 0.76785 18.812 4.2232 10.366 3.0714 10.366 8.4463 0 4.6071-1.5357 13.053-1.1518 8.4463-1.1518 13.053v74.865h22.651q34.937 0 57.588-6.9106 8.8302-2.6875 15.357-2.6875 14.589 0 30.714 3.0714 13.053 2.3035 13.053 11.902z"/>
  </g>
  <g id="number-1" class="stroke-number">
   <path id="path831" d="m296.23 216.87c10.066 0 18.22-8.1534 18.22-18.22s-8.1534-18.22-18.22-18.22-18.22 8.1534-18.22 18.22 8.1534 18.22 18.22 18.22zm0-2.8598c-8.4849 0-15.35-6.875-15.35-15.36s6.8655-15.36 15.35-15.36 15.36 6.875 15.36 15.36-6.875 15.36-15.36 15.36zm2.822-25.057h-4.3466l-4.7822 2.9735v4.053l4.3371-2.6515h0.11364v15.019h4.678z"/>
  </g>
  <g id="number-2" class="stroke-number">
   <path id="path834" d="m153.34 379.23c10.066 0 18.22-8.1534 18.22-18.22s-8.1534-18.22-18.22-18.22-18.22 8.1534-18.22 18.22 8.1534 18.22 18.22 18.22zm0-2.8598c-8.4848 0-15.35-6.875-15.35-15.36s6.8655-15.36 15.35-15.36c8.4849 0 15.36 6.875 15.36 15.36s-6.875 15.36-15.36 15.36zm-7.0265-5.6629h14.356v-3.7784h-7.8599v-0.12311l2.3201-2.1402c4.2046-3.6648 5.303-5.5303 5.303-7.7557 0-3.4943-2.8504-5.8618-7.2538-5.8618-4.2898 0-7.1591 2.4716-7.1496 6.4205h4.4413c0-1.7519 1.0796-2.7652 2.6894-2.7652 1.5814 0 2.7273 0.97538 2.7273 2.5758 0 1.4489-0.9091 2.4337-2.5 3.8636l-7.0739 6.1932z"/>
  </g>
  <path id="arrow-1" class="order-arrow" d="m296.23 222.5a2.5 2.5 0 0 0-2.5 2.5v57.906h-9.8106l12.311 21.299 1.1543-1.998 11.156-19.301h-9.8105v-57.906a2.5 2.5 0 0 0-2.5-2.5z"/>
  <path id="arrow-2" class="order-arrow" d="m433.91 348.7v9.8105h-252.91a2.5 2.5 0 0 0-2.5 2.5 2.5 2.5 0 0 0 2.5 2.5h252.91v9.8106l21.299-12.311-1.998-1.1543z"/>
 </g>
</svg>
