<?xml version="1.0" encoding="UTF-8"?>
<svg id="svg5" width="500" height="500" version="1.1" viewBox="0 0 500 500" xmlns="http://www.w3.org/2000/svg">
 <style type="text/css">
  .order-arrow { stroke-linecap: round }
 </style>
 <g id="layer1">
  <g id="jamo" class="jamo" transform="matrix(1.4795 0 0 1.4795 -51.259 -189.34)">
   <path id="path843" d="m357 347.44q0 11.518-16.125 11.518-4.2232 0-28.41-1.9196-34.937-3.0714-77.936-3.0714h-72.561q-32.25 0-44.919 6.9106-10.366 6.1428-14.973 6.1428-8.0624 0-29.946-9.982-21.884-9.982-21.884-16.125 0-3.0714 4.6071-3.0714l10.366 1.1518q20.348 2.6875 44.535 2.6875h44.151v-71.41q0-11.134-7.6785-17.277t-15.357-8.8302q-7.2945-3.0714-7.2945-6.1428 0-5.3749 21.884-5.3749 36.089 0 36.089 12.669 0 3.8392-1.5357 11.134t-1.5357 11.134v74.097h56.053l12.669-78.32q0.76785-6.1428 0.76785-9.2142 0-5.3749-7.2945-9.2142-6.9106-4.2232-13.821-6.9106-6.9106-3.0714-6.9106-5.3749 0-5.7588 14.973-5.7588 11.518 0 28.026 4.2232 16.509 3.8392 16.509 11.518 0 5.3749-3.0714 14.973-3.0714 9.2142-3.4553 10.75l-16.125 73.329h10.75q18.812 0 29.178-3.8392 13.053-4.991 14.973-4.991 11.134 0 33.401 3.0714 11.902 1.9196 11.902 11.518z"/>
  </g>
  <g id="number-1" class="stroke-number">
   <path id="path834" d="m148.23 222.87c10.066 0 18.22-8.1534 18.22-18.22s-8.1534-18.22-18.22-18.22c-10.066 0-18.22 8.1534-18.22 18.22s8.1534 18.22 18.22 18.22zm0-2.8598c-8.4848 0-15.35-6.875-15.35-15.36s6.8655-15.36 15.35-15.36c8.4849 0 15.36 6.875 15.36 15.36s-6.875 15.36-15.36 15.36zm2.822-25.057h-4.3466l-4.7822 2.9735v4.053l4.3371-2.6515h0.11363v15.019h4.678z"/>
  </g>
  <g id="number-2" class="stroke-number">
   <path id="path837" d="m380.23 222.87c10.066 0 18.22-8.1534 18.22-18.22s-8.1534-18.22-18.22-18.22-18.22 8.1534-18.22 18.22 8.1534 18.22 18.22 18.22zm0-2.8598c-8.4849 0-15.35-6.875-15.35-15.36s6.8655-15.36 15.35-15.36 15.36 6.875 15.36 15.36-6.875 15.36-15.36 15.36zm-7.0265-5.6629h14.356v-3.7784h-7.8598v-0.12311l2.3201-2.1402c4.2046-3.6648 5.303-5.5303 5.303-7.7557 0-3.4943-2.8504-5.8618-7.2538-5.8618-4.2898 0-7.1591 2.4716-7.1496 6.4205h4.4413c0-1.7519 1.0796-2.7652 2.6894-2.7652 1.5814 0 2.7273 0.97538 2.7273 2.5758 0 1.4489-0.90909 2.4337-2.5 3.8636l-7.0739 6.1932z"/>
  </g>
  <g id="number-3" class="stroke-number">
   <path id="path840" d="m151.34 379.23c10.066 0 18.22-8.1534 18.22-18.22s-8.1534-18.22-18.22-18.22-18.22 8.1534-18.22 18.22 8.1534 18.22 18.22 18.22zm0-2.8598c-8.4848 0-15.35-6.875-15.35-15.36s6.8655-15.36 15.35-15.36c8.4849 0 15.36 6.875 15.36 15.36s-6.875 15.36-15.36 15.36zm-0.0663-5.3977c4.5455 0 7.7746-2.4053 7.7652-5.7765 9e-3 -2.3864-1.553-4.0909-4.5455-4.4413v-0.15152c2.2443-0.32197 3.8352-1.8276 3.8258-4.0057 9e-3 -3.1629-2.8504-5.5492-7.0076-5.5492-4.1856 0-7.2349 2.4242-7.2727 5.8712h4.4792c0.0379-1.3258 1.2311-2.2159 2.7936-2.2159 1.4867 0 2.5 0.89963 2.4905 2.197 9e-3 1.3447-1.1837 2.2727-2.9072 2.2727h-1.8845v3.3333h1.8845c1.9602 0 3.2386 0.96591 3.2197 2.3295 0.0189 1.3731-1.1553 2.3296-2.822 2.3296-1.6572 0-2.8788-0.88068-2.9261-2.1591h-4.7159c0.0379 3.5038 3.1913 5.9659 7.6231 5.9659z"/>
  </g>
  <path id="arrow-1" class="order-arrow" d="m148.23 226.5a2.5 2.5 0 0 0-2.5 2.5v57.906h-9.8106l12.311 21.299 1.1543-1.998 11.156-19.301h-9.8105v-57.906a2.5 2.5 0 0 0-2.5-2.5z"/>
  <path id="arrow-2" class="order-arrow" d="m380.23 226.5a2.5 2.5 0 0 0-2.5 2.5v57.906h-9.8106l12.311 21.299 1.1543-1.998 11.156-19.301h-9.8105v-57.906a2.5 2.5 0 0 0-2.5-2.5z"/>
  <path id="arrow-3" class="order-arrow" d="m429.91 348.7v9.8105h-252.91a2.5 2.5 0 0 0-2.5 2.5 2.5 2.5 0 0 0 2.5 2.5h252.91v9.8106l21.299-12.311-1.998-1.1543z"/>
 </g>
</svg>
