<?xml version="1.0" encoding="UTF-8"?>
<svg id="svg5" width="500" height="500" version="1.1" viewBox="0 0 500 500" xmlns="http://www.w3.org/2000/svg">
 <style type="text/css">
  .order-arrow { stroke-linecap: round }
 </style>
 <g id="layer1">
  <g id="jamo" class="jamo" transform="matrix(1.4795 0 0 1.4795 -51.259 -214.9)">
   <path id="path831" d="m357 246.85q0 11.518-14.205 11.518-20.348 0-61.044-1.9196-40.312-2.3035-60.66-2.3035v62.579q0 78.704-18.428 78.704-3.4553 0-5.3749-9.2142-1.5357-9.2142-1.1518-18.044 0.76785-8.8302 0.38393-12.669v-101.36h-36.089q-29.562 0-36.857 4.991-3.0714 2.6875-6.9106 4.991-3.4553 2.3035-7.6785 2.3035-8.8302 0-33.785-9.5981-24.955-9.5981-24.955-15.741 0-4.2232 4.2232-4.2232 1.9196 0 5.7588 0.76784 27.642 4.6071 76.785 4.6071h133.99q7.6785 0 21.116-4.6071 13.821-4.6071 21.116-4.6071h11.134q32.633 0 32.633 13.821z"/>
  </g>
  <g id="number-1" class="stroke-number">
   <path id="path834" d="m54.536 128.92c10.066 0 18.22-8.1534 18.22-18.22s-8.1534-18.22-18.22-18.22c-10.066 0-18.22 8.1534-18.22 18.22s8.1534 18.22 18.22 18.22zm0-2.8598c-8.4849 0-15.35-6.875-15.35-15.36s6.8655-15.36 15.35-15.36 15.36 6.875 15.36 15.36-6.875 15.36-15.36 15.36zm2.822-25.057h-4.3466l-4.7822 2.9735v4.053l4.3371-2.6515h0.11364v15.019h4.678z"/>
  </g>
  <g id="number-2" class="stroke-number">
   <path id="path837" d="m303.73 210.21c10.066 0 18.22-8.1534 18.22-18.22s-8.1534-18.22-18.22-18.22-18.22 8.1534-18.22 18.22 8.1534 18.22 18.22 18.22zm0-2.8598c-8.4849 0-15.35-6.875-15.35-15.36s6.8655-15.36 15.35-15.36 15.36 6.875 15.36 15.36-6.875 15.36-15.36 15.36zm-7.0265-5.6629h14.356v-3.7784h-7.8599v-0.12311l2.3201-2.1402c4.2046-3.6648 5.303-5.5303 5.303-7.7557 0-3.4943-2.8504-5.8618-7.2538-5.8618-4.2898 0-7.1591 2.4716-7.1496 6.4205h4.4413c0-1.7519 1.0796-2.7652 2.6894-2.7652 1.5814 0 2.7273 0.97538 2.7273 2.5758 0 1.4489-0.90909 2.4337-2.5 3.8636l-7.0739 6.1932z"/>
  </g>
  <path id="arrow-1" class="order-arrow" d="m363.91 98.391v9.8105h-282.91a2.5 2.5 0 0 0-2.5 2.5 2.5 2.5 0 0 0 2.5 2.5h282.91v9.8106l21.299-12.311-1.998-1.1543z"/>
  <path id="arrow-2" class="order-arrow" d="m303.73 216.5a2.5 2.5 0 0 0-2.5 2.5v107.91h-9.8106l12.311 21.299 1.1543-1.998 11.156-19.301h-9.8105v-107.91a2.5 2.5 0 0 0-2.5-2.5z"/>
 </g>
</svg>
