<?xml version="1.0" encoding="UTF-8"?>
<svg id="svg5" width="500" height="500" version="1.1" viewBox="0 0 500 500" xmlns="http://www.w3.org/2000/svg">
 <style type="text/css">
  .order-arrow { stroke-linecap: round }
 </style>
 <g id="layer1">
  <g id="text7842" class="jamo" transform="matrix(1.4795 0 0 1.4795 -51.543 -214.33)">
   <path id="path843" d="m357.39 244.17q0 10.75-15.357 10.75-13.053 0-38.776-1.1518t-38.776-1.1518q0 0.38392 0.38392 10.75t0.38392 22.268q0 11.518-0.38392 27.642 0 16.125-1.1518 30.33-1.1518 13.821-3.4553 26.491-1.9196 12.669-5.7588 19.964-3.8392 7.2945-8.8302 7.2945-5.3749 0-5.3749-16.893v-127.85h-67.57q0 7.6785 0.38392 22.268 0.38393 14.589 0.38393 22.268 0 92.525-19.964 92.525-4.991 0-4.991-9.2142v-127.85h-7.2945q-10.366 0-27.259 6.1428-16.893 5.7588-17.66 5.7588-6.1428 0-26.107-10.366-19.964-10.75-19.964-15.357 0-3.8392 5.3749-3.8392 2.3035 0 15.741 1.9196 25.339 3.4553 68.338 3.4553h117.1q17.66 0 31.482-1.5357 5.3749-0.76785 17.66-4.6071 12.286-3.8392 19.58-3.8392 31.866 0 31.866 13.821z"/>
  </g>
  <g id="number-1" class="stroke-number">
   <path id="path834" d="m56.536 128.92c10.066 0 18.22-8.1534 18.22-18.22s-8.1534-18.22-18.22-18.22c-10.066 0-18.22 8.1534-18.22 18.22s8.1534 18.22 18.22 18.22zm0-2.8598c-8.4849 0-15.35-6.875-15.35-15.36s6.8655-15.36 15.35-15.36 15.36 6.875 15.36 15.36-6.875 15.36-15.36 15.36zm2.822-25.057h-4.3466l-4.7822 2.9735v4.053l4.3371-2.6515h0.11364v15.019h4.678z"/>
  </g>
  <g id="number-2" class="stroke-number">
   <path id="path837" d="m143.73 206.21c10.066 0 18.22-8.1534 18.22-18.22s-8.1534-18.22-18.22-18.22-18.22 8.1534-18.22 18.22 8.1534 18.22 18.22 18.22zm0-2.8598c-8.4849 0-15.35-6.875-15.35-15.36s6.8655-15.36 15.35-15.36 15.36 6.875 15.36 15.36-6.875 15.36-15.36 15.36zm-7.0265-5.6629h14.356v-3.7784h-7.8599v-0.12311l2.3201-2.1402c4.2046-3.6648 5.303-5.5303 5.303-7.7557 0-3.4943-2.8504-5.8618-7.2538-5.8618-4.2898 0-7.1591 2.4716-7.1496 6.4205h4.4413c0-1.7519 1.0795-2.7652 2.6894-2.7652 1.5814 0 2.7273 0.97538 2.7273 2.5758 0 1.4489-0.90909 2.4337-2.5 3.8636l-7.0739 6.1932z"/>
  </g>
  <g id="number-3" class="stroke-number">
   <path id="path840" d="m365.73 206.21c10.066 0 18.22-8.1534 18.22-18.22s-8.1534-18.22-18.22-18.22-18.22 8.1534-18.22 18.22 8.1534 18.22 18.22 18.22zm0-2.8598c-8.4849 0-15.35-6.875-15.35-15.36s6.8655-15.36 15.35-15.36 15.36 6.875 15.36 15.36-6.875 15.36-15.36 15.36zm-0.0663-5.3977c4.5455 0 7.7746-2.4053 7.7652-5.7765 9e-3 -2.3864-1.553-4.0909-4.5455-4.4413v-0.15152c2.2443-0.32197 3.8352-1.8276 3.8258-4.0057 9e-3 -3.1629-2.8504-5.5492-7.0076-5.5492-4.1856 0-7.2349 2.4242-7.2727 5.8712h4.4792c0.0379-1.3258 1.2311-2.2159 2.7936-2.2159 1.4868 0 2.5 0.89962 2.4905 2.197 9e-3 1.3447-1.1837 2.2727-2.9072 2.2727h-1.8845v3.3333h1.8845c1.9602 0 3.2386 0.96591 3.2197 2.3295 0.0189 1.3731-1.1553 2.3296-2.822 2.3296-1.6572 0-2.8788-0.88068-2.9261-2.1591h-4.7159c0.0379 3.5038 3.1913 5.9659 7.6231 5.9659z"/>
  </g>
  <path id="arrow-1" class="order-arrow" d="m365.91 98.391v9.8105h-282.91a2.5 2.5 0 0 0-2.5 2.5 2.5 2.5 0 0 0 2.5 2.5h282.91v9.8106l21.299-12.311-1.998-1.1543z"/>
  <path id="arrow-2" class="order-arrow" d="m143.73 210.5a2.5 2.5 0 0 0-2.5 2.5v107.91h-9.8106l12.311 21.299 1.1543-1.998 11.156-19.301h-9.8105v-107.91a2.5 2.5 0 0 0-2.5-2.5z"/>
  <path id="arrow-3" class="order-arrow" d="m365.73 210.5a2.5 2.5 0 0 0-2.5 2.5v107.91h-9.8106l12.311 21.299 1.1543-1.998 11.156-19.301h-9.8105v-107.91a2.5 2.5 0 0 0-2.5-2.5z"/>
 </g>
</svg>
