<?xml version="1.0" encoding="UTF-8"?>
<svg id="svg5" width="500" height="500" version="1.1" viewBox="0 0 500 500" xmlns="http://www.w3.org/2000/svg">
 <style type="text/css">
  .order-arrow { stroke-linecap: round }
 </style>
 <g id="layer1">
  <g id="jamo" class="jamo" transform="matrix(1.4795 0 0 1.4795 -51.259 -257.78)">
   <path id="path831" d="m357 340.15q0 11.134-13.437 11.134-3.4553 0-9.5981-0.76784-36.473-3.8392-87.918-3.8392h-82.16q-29.562 0-48.758 10.75-7.6785 3.8392-9.982 3.8392-6.1428 0-30.714-12.669-24.187-12.669-24.187-16.893 0-4.991 6.1428-4.991 3.8392 0 11.518 1.5357 36.473 6.1428 96.365 6.1428h62.579q55.285 0 61.428-2.3035 10.366-4.2232 16.125-5.3749 5.7588-1.5357 17.277-1.5357 35.321 0 35.321 14.973z"/>
  </g>
  <g id="number-1" class="stroke-number">
   <path id="path828" d="m54.536 216.92c10.066 0 18.22-8.1534 18.22-18.22s-8.1534-18.22-18.22-18.22c-10.066 0-18.22 8.1534-18.22 18.22s8.1534 18.22 18.22 18.22zm0-2.8598c-8.4849 0-15.35-6.875-15.35-15.36s6.8655-15.36 15.35-15.36 15.36 6.875 15.36 15.36-6.875 15.36-15.36 15.36zm2.822-25.057h-4.3466l-4.7822 2.9735v4.053l4.3371-2.6515h0.11364v15.019h4.678z"/>
  </g>
  <path id="arrow-1" class="order-arrow" d="m363.91 186.39v9.8105h-282.91a2.5 2.5 0 0 0-2.5 2.5 2.5 2.5 0 0 0 2.5 2.5h282.91v9.8106l21.299-12.311-1.998-1.1543z"/>
 </g>
</svg>
