<?xml version="1.0" encoding="UTF-8"?>
<svg id="svg5" width="500" height="500" version="1.1" viewBox="0 0 500 500" xmlns="http://www.w3.org/2000/svg">
 <style type="text/css">
  .order-arrow { stroke-linecap: round }
 </style>
 <g id="layer1">
  <g id="jamo" class="jamo" transform="matrix(1.4795 0 0 1.4795 -183.04 -110.67)">
   <path id="path828" d="m323.99 100.58q0 1.5357-1.9196 8.0624-2.3035 7.2945-2.3035 23.035v181.21q0 91.374-18.044 91.374-1.5357 0-2.6875-3.8392-3.8392-12.286-3.8392-53.365v-215.38q0-26.107-23.419-35.705-10.366-4.6071-10.366-6.9106 0-5.7588 14.589-5.7588 11.134 0 29.562 4.991 18.428 4.6071 18.428 12.286z"/>
  </g>
  <g id="number-1" class="stroke-number">
   <path id="path831" d="m224.02 91.048c10.066 0 18.22-8.1534 18.22-18.22 0-10.066-8.1534-18.22-18.22-18.22s-18.22 8.1534-18.22 18.22c0 10.066 8.1534 18.22 18.22 18.22zm0-2.8599c-8.4849 0-15.35-6.875-15.35-15.36 0-8.4849 6.8655-15.36 15.35-15.36s15.36 6.875 15.36 15.36c0 8.4849-6.875 15.36-15.36 15.36zm2.822-25.057h-4.3466l-4.7822 2.9735v4.053l4.3371-2.6515h0.11363v15.019h4.678z"/>
  </g>
  <path id="arrow-1" class="order-arrow" d="m224.02 96.5a2.5 2.5 0 0 0-2.5 2.5v332.91h-9.8106l12.311 21.299 1.1543-1.998 11.156-19.301h-9.8105v-332.91a2.5 2.5 0 0 0-2.5-2.5z"/>
 </g>
</svg>
