<?xml version="1.0" encoding="UTF-8"?>
<svg id="svg5" width="500" height="500" version="1.1" viewBox="0 0 500 500" xmlns="http://www.w3.org/2000/svg">
 <style type="text/css">
  .order-arrow { stroke-linecap: round }
 </style>
 <g id="layer1">
  <g id="jamo" class="jamo" transform="matrix(1.4795 0 0 1.4795 -152.36 -109.25)">
   <path id="path849" d="m336.27 99.045q0 0.76785-1.9196 7.6785-2.6875 8.4463-2.6875 23.035v180.83q0 93.677-18.044 93.677-1.5357 0-2.6875-3.8392-3.4553-9.982-3.4553-45.687v-79.472h-47.99q0.38392 6.5267 0 23.419t-1.1518 34.553-4.6071 31.482q-3.8392 13.437-9.982 13.437-6.9106 0-6.9106-48.374v-198.1q0-6.1428-7.2945-11.134-7.2945-4.991-14.589-8.0624-7.2945-3.4553-7.2945-6.1428 0-5.7588 12.286-5.7588 10.366 0 26.875 4.2232 16.509 3.8392 16.509 10.75 0 1.1518-1.9196 8.8302-1.9196 9.2142-1.9196 22.268v37.624h47.99v-54.517q0-17.277-4.991-23.419-4.991-6.1428-21.5-12.669-7.6785-3.4553-7.6785-6.5267 0-2.6875 5.3749-4.2232t8.8302-1.5357q10.75 0 29.562 5.3749 19.196 4.991 19.196 12.286zm-28.794 163.94v-66.419h-47.99v66.419z"/>
  </g>
  <g id="number-1" class="stroke-number">
   <path id="path837" d="m172.02 113.05c10.066 0 18.22-8.1534 18.22-18.22 0-10.066-8.1534-18.22-18.22-18.22s-18.22 8.1534-18.22 18.22c0 10.066 8.1534 18.22 18.22 18.22zm0-2.8598c-8.4849 0-15.35-6.875-15.35-15.36s6.8655-15.36 15.35-15.36 15.36 6.875 15.36 15.36-6.875 15.36-15.36 15.36zm2.822-25.057h-4.3466l-4.7822 2.9735v4.053l4.3371-2.6515h0.11364v15.019h4.678z"/>
  </g>
  <g id="number-2" class="stroke-number">
   <path id="path840" d="m266.75 124.02c10.066 0 18.22-8.1534 18.22-18.22 0-10.066-8.1534-18.22-18.22-18.22s-18.22 8.1534-18.22 18.22c0 10.066 8.1534 18.22 18.22 18.22zm0-2.8598c-8.4849 0-15.35-6.875-15.35-15.36 0-8.4849 6.8655-15.36 15.35-15.36s15.36 6.875 15.36 15.36c0 8.4849-6.875 15.36-15.36 15.36zm-7.0265-5.6629h14.356v-3.7784h-7.8599v-0.12311l2.3201-2.1402c4.2046-3.6648 5.303-5.5303 5.303-7.7557 0-3.4943-2.8504-5.8617-7.2538-5.8617-4.2898 0-7.1591 2.4716-7.1496 6.4205h4.4413c0-1.7519 1.0796-2.7652 2.6894-2.7652 1.5814 0 2.7273 0.97538 2.7273 2.5758 0 1.4489-0.9091 2.4337-2.5 3.8636l-7.0739 6.1932z"/>
  </g>
  <g id="number-3" class="stroke-number">
   <path id="path843" d="m266.75 372.02c10.066 0 18.22-8.1534 18.22-18.22s-8.1534-18.22-18.22-18.22-18.22 8.1534-18.22 18.22 8.1534 18.22 18.22 18.22zm0-2.8598c-8.4849 0-15.35-6.875-15.35-15.36s6.8655-15.36 15.35-15.36 15.36 6.875 15.36 15.36-6.875 15.36-15.36 15.36zm-0.0663-5.3977c4.5455 0 7.7746-2.4053 7.7652-5.7765 9e-3 -2.3864-1.553-4.0909-4.5455-4.4413v-0.15152c2.2443-0.32197 3.8352-1.8276 3.8258-4.0057 9e-3 -3.1629-2.8504-5.5492-7.0076-5.5492-4.1856 0-7.2348 2.4242-7.2727 5.8712h4.4792c0.0379-1.3258 1.2311-2.2159 2.7936-2.2159 1.4868 0 2.5 0.89962 2.4905 2.197 9e-3 1.3447-1.1837 2.2727-2.9072 2.2727h-1.8845v3.3333h1.8845c1.9602 0 3.2386 0.96591 3.2197 2.3296 0.0189 1.3731-1.1553 2.3296-2.822 2.3296-1.6572 0-2.8788-0.88068-2.9261-2.1591h-4.7159c0.0379 3.5038 3.1913 5.9659 7.6231 5.9659z"/>
  </g>
  <g id="number-4" class="stroke-number">
   <path id="path846" d="m364.73 93.452c10.066 0 18.22-8.1534 18.22-18.22 0-10.066-8.1534-18.22-18.22-18.22s-18.22 8.1534-18.22 18.22c0 10.066 8.1534 18.22 18.22 18.22zm0-2.8599c-8.4849 0-15.35-6.875-15.35-15.36 0-8.4849 6.8655-15.36 15.35-15.36s15.36 6.875 15.36 15.36c0 8.4849-6.875 15.36-15.36 15.36zm-9.0625-8.8826h9.3655v3.2197h4.4792v-3.2197h2.3201v-3.6932h-2.3201v-12.481h-5.8996l-7.9451 12.519zm9.4602-3.6932h-4.8012v-0.15152l4.6496-7.3674h0.15152z"/>
  </g>
  <path id="arrow-1" class="order-arrow" d="m172.02 117.5a2.5 2.5 0 0 0-2.5 2.5v282.91h-9.8106l12.311 21.299 1.1543-1.998 11.156-19.301h-9.8106v-282.91a2.5 2.5 0 0 0-2.5-2.5z"/>
  <path id="arrow-2" class="order-arrow" d="m275 130.19v9.8106h-32.74a2.1593 2.5 0 0 0-2.1593 2.5 2.1593 2.5 0 0 0 2.1593 2.5h32.74v9.8105l18.396-12.311-1.7257-1.1543z"/>
  <path id="arrow-3" class="order-arrow" d="m275 306.19v9.8106h-32.74a2.1593 2.5 0 0 0-2.1593 2.5 2.1593 2.5 0 0 0 2.1593 2.5h32.74v9.8105l18.396-12.311-1.7257-1.1543z"/>
  <path id="arrow-4" class="order-arrow" d="m364.88 97.463a2.5365 2.5365 0 0 0-2.5371 2.5371v342.8h-9.9531l12.49 21.609 1.1699-2.0273 11.32-19.582h-9.9551v-342.8a2.5365 2.5365 0 0 0-2.5352-2.5371z"/>
 </g>
</svg>
