<?xml version="1.0" encoding="UTF-8"?>
<svg id="svg5" width="500" height="500" version="1.1" viewBox="0 0 500 500" xmlns="http://www.w3.org/2000/svg">
 <style type="text/css">
  .order-arrow { stroke-linecap: round }
 </style>
 <g id="layer1">
  <g id="jamo" class="jamo" transform="matrix(1.4795 0 0 1.4795 -119.14 -108.97)">
   <path id="path843" d="m333.97 98.277q0 5.3749-1.9196 15.741-1.9196 10.366-1.9196 15.741v183.52q0 90.99-17.277 90.99-4.2232 0-6.1428-9.5981-1.5357-9.2142-1.1518-18.428 0.38392-9.2142 0-13.437v-235.34q0-6.9106-0.38392-9.982-0.76785-8.4463-9.2142-14.205-8.4463-5.7588-16.509-9.2142-7.6785-3.8392-7.6785-6.9106 0-6.1428 14.205-6.1428 10.75 0 29.178 4.991 18.812 4.991 18.812 12.286zm-65.267 20.732q0 5.7588-1.9196 16.893-1.9196 11.134-1.9196 16.893v143.97q0 80.624-16.509 80.624-6.1428 0-6.1428-48.374v-98.284h-11.902q-8.4463 0-18.428 4.991-9.5981 4.6071-10.75 4.6071-6.1428 0-21.116-7.6785-14.973-8.0624-14.973-13.437 0-3.4553 3.8392-3.4553 9.2142 0 27.642 1.5357 18.428 1.5357 27.642 1.5357h18.044v-70.642q0-8.8302-0.38392-13.053-0.76784-6.9106-8.0624-11.518-6.9106-4.991-13.821-8.0624-6.9106-3.4553-6.9106-5.7588 0-6.1428 12.669-6.1428 7.6785 0 25.339 4.991 17.66 4.991 17.66 10.366z"/>
  </g>
  <g id="number-1" class="stroke-number">
   <path id="path834" d="m150.6 203.53c10.066 0 18.22-8.1534 18.22-18.22s-8.1534-18.22-18.22-18.22-18.22 8.1534-18.22 18.22 8.1534 18.22 18.22 18.22zm0-2.8598c-8.4849 0-15.35-6.875-15.35-15.36s6.8655-15.36 15.35-15.36 15.36 6.875 15.36 15.36-6.875 15.36-15.36 15.36zm2.822-25.057h-4.3466l-4.7822 2.9735v4.053l4.3371-2.6515h0.11364v15.019h4.678z"/>
  </g>
  <g id="number-2" class="stroke-number">
   <path id="path837" d="m300 115.05c10.066 0 18.22-8.1534 18.22-18.22 0-10.066-8.1534-18.22-18.22-18.22-10.066 0-18.22 8.1534-18.22 18.22 0 10.066 8.1534 18.22 18.22 18.22zm0-2.8598c-8.4849 0-15.35-6.875-15.35-15.36s6.8655-15.36 15.35-15.36c8.4848 0 15.36 6.875 15.36 15.36s-6.875 15.36-15.36 15.36zm-7.0265-5.6629h14.356v-3.7784h-7.8599v-0.12311l2.3201-2.1402c4.2046-3.6648 5.303-5.5303 5.303-7.7557 0-3.4943-2.8504-5.8618-7.2538-5.8618-4.2898 0-7.1591 2.4716-7.1496 6.4205h4.4413c0-1.7519 1.0796-2.7652 2.6894-2.7652 1.5814 0 2.7273 0.97538 2.7273 2.5758 0 1.4489-0.9091 2.4337-2.5 3.8636l-7.0739 6.1932z"/>
  </g>
  <g id="number-3" class="stroke-number">
   <path id="path840" d="m396.88 95.452c10.066 0 18.22-8.1534 18.22-18.22 0-10.066-8.1534-18.22-18.22-18.22s-18.22 8.1534-18.22 18.22c0 10.066 8.1534 18.22 18.22 18.22zm0-2.8599c-8.4849 0-15.35-6.875-15.35-15.36 0-8.4849 6.8655-15.36 15.35-15.36s15.36 6.875 15.36 15.36c0 8.4849-6.875 15.36-15.36 15.36zm-0.0663-5.3977c4.5455 0 7.7746-2.4053 7.7652-5.7765 9e-3 -2.3864-1.553-4.0909-4.5455-4.4413v-0.15152c2.2443-0.32197 3.8352-1.8277 3.8258-4.0057 9e-3 -3.1629-2.8504-5.5492-7.0076-5.5492-4.1856 0-7.2349 2.4242-7.2727 5.8712h4.4792c0.0379-1.3258 1.2311-2.2159 2.7936-2.2159 1.4868 0 2.5 0.89962 2.4905 2.197 9e-3 1.3447-1.1837 2.2727-2.9072 2.2727h-1.8845v3.3333h1.8845c1.9602 0 3.2386 0.96591 3.2197 2.3295 0.0189 1.3731-1.1553 2.3295-2.822 2.3295-1.6572 0-2.8788-0.88068-2.9261-2.1591h-4.7159c0.0379 3.5038 3.1913 5.9659 7.6231 5.9659z"/>
  </g>
  <path id="arrow-1" class="order-arrow" d="m209.6 173v9.8106h-32.74a2.1593 2.5 0 0 0-2.1593 2.5 2.1593 2.5 0 0 0 2.1593 2.5h32.74v9.8105l18.396-12.311-1.7257-1.1543z"/>
  <path id="arrow-2" class="order-arrow" d="m300 119.5a2.5 2.5 0 0 0-2.5 2.5v282.91h-9.8106l12.311 21.299 1.1543-1.998 11.156-19.301h-9.8106v-282.91a2.5 2.5 0 0 0-2.5-2.5z"/>
  <path id="arrow-3" class="order-arrow" d="m396.88 99.463a2.5365 2.5365 0 0 0-2.5371 2.5371v342.8h-9.9531l12.49 21.609 1.1699-2.0273 11.32-19.582h-9.9551v-342.8a2.5365 2.5365 0 0 0-2.5352-2.5371z"/>
 </g>
</svg>
