<?xml version="1.0" encoding="UTF-8"?>
<svg id="svg5" width="500" height="500" version="1.1" viewBox="0 0 500 500" xmlns="http://www.w3.org/2000/svg">
 <style type="text/css">
  .order-arrow { stroke-linecap: round }
 </style>
 <g id="layer1">
  <g id="jamo" class="jamo" transform="matrix(1.4795 0 0 1.4795 -22.575 -110.39)">
   <path id="path843" d="m324.37 100.58q0 1.5357-1.9196 8.0624-2.3035 7.6785-2.3035 23.035v179.29q0 93.293-17.277 93.293-3.8392 0-4.2232-3.0714-3.4553-5.7588-3.8392-53.749 0-48.374 0.76784-60.66-74.865 19.196-154.34 31.482-16.893 2.6875-27.259 8.4463-7.6785 4.2232-8.4463 4.6071l-3.4553 1.1518q-3.4553 0.76785-3.8392 0.76785-8.0624 0-31.098-11.518-23.035-11.902-23.035-18.428 0-3.4553 5.3749-3.4553 7.6785 0 23.035 1.9196 15.357 1.9196 23.035 1.9196 10.75 0 47.606-2.6875v-46.455q0-9.5981-1.1518-12.286-1.5357-3.8392-12.669-8.0624-11.134-4.2232-11.134-7.2945 0-6.5267 20.348-6.5267 31.098 0 31.098 10.75 0 3.8392-1.1518 11.518t-1.1518 11.902v43.767q47.223-4.991 128.23-21.116v-153.95q0-10.366-2.3035-14.205-1.9196-3.8392-16.893-9.982-14.589-6.5267-14.589-9.982 0-6.1428 13.821-6.1428 11.518 0 29.946 4.991 18.812 4.991 18.812 12.669z"/>
  </g>
  <g id="number-1" class="stroke-number">
   <path id="path834" d="m165.41 280.07c10.066 0 18.22-8.1534 18.22-18.22s-8.1534-18.22-18.22-18.22-18.22 8.1534-18.22 18.22 8.1534 18.22 18.22 18.22zm0-2.8598c-8.4849 0-15.35-6.875-15.35-15.36s6.8655-15.36 15.35-15.36 15.36 6.875 15.36 15.36-6.875 15.36-15.36 15.36zm2.822-25.057h-4.3466l-4.7822 2.9735v4.053l4.3371-2.6515h0.11363v15.019h4.678z"/>
  </g>
  <g id="number-2" class="stroke-number">
   <path id="path837" d="m163.54 409.37c10.066 0 18.22-8.1534 18.22-18.22 0-10.066-8.1534-18.22-18.22-18.22s-18.22 8.1534-18.22 18.22c0 10.066 8.1534 18.22 18.22 18.22zm0-2.8598c-8.4849 0-15.35-6.875-15.35-15.36 0-8.4848 6.8655-15.36 15.35-15.36s15.36 6.875 15.36 15.36c0 8.4849-6.875 15.36-15.36 15.36zm-7.0265-5.6629h14.356v-3.7784h-7.8598v-0.1231l2.3201-2.1402c4.2046-3.6648 5.303-5.5303 5.303-7.7557 0-3.4943-2.8504-5.8618-7.2538-5.8618-4.2898 0-7.1591 2.4716-7.1496 6.4205h4.4413c0-1.7519 1.0795-2.7652 2.6894-2.7652 1.5814 0 2.7273 0.97538 2.7273 2.5758 0 1.4489-0.90909 2.4337-2.5 3.8636l-7.0739 6.1932z"/>
  </g>
  <g id="number-3" class="stroke-number">
   <path id="path840" d="m475.96 94.804c10.066 0 18.22-8.1534 18.22-18.22 0-10.066-8.1534-18.22-18.22-18.22s-18.22 8.1534-18.22 18.22c0 10.066 8.1534 18.22 18.22 18.22zm0-2.8599c-8.4849 0-15.35-6.875-15.35-15.36s6.8655-15.36 15.35-15.36 15.36 6.875 15.36 15.36-6.875 15.36-15.36 15.36zm-0.0663-5.3977c4.5455 0 7.7746-2.4053 7.7652-5.7765 9e-3 -2.3864-1.553-4.0909-4.5455-4.4413v-0.15152c2.2443-0.32197 3.8352-1.8277 3.8258-4.0057 9e-3 -3.1629-2.8504-5.5492-7.0076-5.5492-4.1856 0-7.2348 2.4242-7.2727 5.8712h4.4792c0.0379-1.3258 1.2311-2.2159 2.7936-2.2159 1.4868 0 2.5 0.89962 2.4905 2.197 9e-3 1.3447-1.1837 2.2727-2.9072 2.2727h-1.8845v3.3333h1.8845c1.9602 0 3.2386 0.96591 3.2197 2.3295 0.0189 1.3731-1.1553 2.3295-2.822 2.3295-1.6572 0-2.8788-0.88068-2.9261-2.1591h-4.7159c0.0379 3.5038 3.1913 5.9659 7.6231 5.9659z"/>
  </g>
  <path id="arrow-1" class="order-arrow" d="m165.41 282.5a2.5 2.5 0 0 0-2.5 2.5v22.906h-9.8106l12.311 21.299 1.1543-1.998 11.156-19.301h-9.8105v-22.906a2.5 2.5 0 0 0-2.5-2.5z" style="-inkscape-stroke:none"/>
  <path id="arrow-2" class="order-arrow" d="m383.43 329.5 2.1035 9.584-198.07 43.479a2.5 2.5 0 0 0-1.9062 2.9766 2.5 2.5 0 0 0 2.9766 1.9062l198.07-43.479 2.1035 9.582 18.162-16.59-2.1973-0.69922z" style="-inkscape-stroke:none"/>
  <path id="arrow-3" class="order-arrow" d="m475.96 97.48a2.5186 2.5186 0 0 0-2.5176 2.5195v332.85h-9.8848l12.402 21.457 1.1641-2.0117 11.238-19.445h-9.8828v-332.85a2.5186 2.5186 0 0 0-2.5195-2.5195z" style="-inkscape-stroke:none"/>
 </g>
</svg>
