<?xml version="1.0" encoding="UTF-8"?>
<svg id="svg5" width="500" height="500" version="1.1" viewBox="0 0 500 500" xmlns="http://www.w3.org/2000/svg">
 <style type="text/css">
  .order-arrow { stroke-linecap: round }
 </style>
 <g id="layer1">
  <g id="jamo" class="jamo" transform="matrix(1.4795 0 0 1.4795 -26.267 -110.39)">
   <path id="path843" d="m324.37 100.2q0 4.991-2.3035 15.741-2.3035 10.366-2.3035 15.741v181.6q0 91.374-16.893 91.374-7.2945 0-7.2945-57.588v-120.55q-47.606 13.821-102.51 23.803 0 5.7588 0.38392 18.044 0.38393 11.902 0.38393 18.044 0 90.99-19.196 90.99-6.5267 0-6.5267-42.615v-81.392q-42.232 4.2232-47.223 4.991-3.8392 0.76785-14.205 5.3749-9.982 4.6071-12.286 4.6071-6.9106 0-26.107-11.134-19.196-11.518-19.196-17.277 0-3.4553 3.8392-3.4553 4.2232 0 12.669 1.1518 8.8302 0.76785 13.053 0.76785h34.937q81.008 0 181.98-20.732v-99.436q0-7.2945-8.8302-13.053-8.4463-6.1428-16.893-9.982t-8.4463-6.5267q0-6.1428 16.893-6.1428 10.366 0 28.026 5.3749 18.044 4.991 18.044 12.286z"/>
  </g>
  <g id="number-1" class="stroke-number">
   <path id="path834" d="m76.514 233.66c10.066 0 18.22-8.1534 18.22-18.22s-8.1534-18.22-18.22-18.22c-10.066 0-18.22 8.1534-18.22 18.22s8.1534 18.22 18.22 18.22zm0-2.8598c-8.4849 0-15.35-6.875-15.35-15.36s6.8655-15.36 15.35-15.36c8.4849 0 15.36 6.875 15.36 15.36s-6.875 15.36-15.36 15.36zm2.822-25.057h-4.3466l-4.7822 2.9735v4.053l4.3371-2.6515h0.11364v15.019h4.678z"/>
  </g>
  <g id="number-2" class="stroke-number">
   <path id="path837" d="m195.16 311.37c10.066 0 18.22-8.1534 18.22-18.22s-8.1534-18.22-18.22-18.22-18.22 8.1534-18.22 18.22 8.1534 18.22 18.22 18.22zm0-2.8598c-8.4849 0-15.35-6.875-15.35-15.36s6.8655-15.36 15.35-15.36 15.36 6.875 15.36 15.36-6.875 15.36-15.36 15.36zm-7.0265-5.6629h14.356v-3.7784h-7.8599v-0.12311l2.3201-2.1402c4.2046-3.6648 5.303-5.5303 5.303-7.7557 0-3.4943-2.8504-5.8618-7.2538-5.8618-4.2898 0-7.1591 2.4716-7.1496 6.4205h4.4413c0-1.7519 1.0796-2.7652 2.6894-2.7652 1.5814 0 2.7273 0.97538 2.7273 2.5758 0 1.4489-0.90909 2.4337-2.5 3.8636l-7.0739 6.1932z"/>
  </g>
  <g id="number-3" class="stroke-number">
   <path id="path840" d="m471.96 94.804c10.066 0 18.22-8.1534 18.22-18.22 0-10.066-8.1534-18.22-18.22-18.22s-18.22 8.1534-18.22 18.22c0 10.066 8.1534 18.22 18.22 18.22zm0-2.8599c-8.4849 0-15.35-6.875-15.35-15.36s6.8655-15.36 15.35-15.36 15.36 6.875 15.36 15.36-6.875 15.36-15.36 15.36zm-0.0663-5.3977c4.5455 0 7.7746-2.4053 7.7652-5.7765 9e-3 -2.3864-1.553-4.0909-4.5455-4.4413v-0.15152c2.2443-0.32197 3.8352-1.8277 3.8258-4.0057 9e-3 -3.1629-2.8504-5.5492-7.0076-5.5492-4.1856 0-7.2348 2.4242-7.2727 5.8712h4.4792c0.0379-1.3258 1.2311-2.2159 2.7936-2.2159 1.4868 0 2.5 0.89962 2.4905 2.197 9e-3 1.3447-1.1837 2.2727-2.9072 2.2727h-1.8845v3.3333h1.8845c1.9602 0 3.2386 0.96591 3.2197 2.3295 0.0189 1.3731-1.1553 2.3295-2.822 2.3295-1.6572 0-2.8788-0.88068-2.9261-2.1591h-4.7159c0.0379 3.5038 3.1913 5.9659 7.6231 5.9659z"/>
  </g>
  <path id="arrow-1" class="order-arrow" d="m379.86 176.07 0.85742 9.7734-277.93 24.381a2.5 2.5 0 0 0-2.2715 2.709 2.5 2.5 0 0 0 2.709 2.2715l277.93-24.381 0.85743 9.7734 20.141-14.125-2.0898-0.97461z" style="-inkscape-stroke:none"/>
  <path id="arrow-2" class="order-arrow" d="m195.16 315.5a2.5 2.5 0 0 0-2.5 2.5v92.906h-9.8125l12.312 21.299 1.1543-1.998 11.156-19.301h-9.8106v-92.906a2.5 2.5 0 0 0-2.5-2.5z" style="-inkscape-stroke:none"/>
  <path id="arrow-3" class="order-arrow" d="m471.96 99.48a2.5186 2.5186 0 0 0-2.5176 2.5195v332.85h-9.8848l12.402 21.457 1.1641-2.0117 11.238-19.445h-9.8828v-332.85a2.5186 2.5186 0 0 0-2.5195-2.5195z" style="-inkscape-stroke:none"/>
 </g>
</svg>
