<?xml version="1.0" encoding="UTF-8"?>
<svg id="svg5" width="500" height="500" version="1.1" viewBox="0 0 500 500" xmlns="http://www.w3.org/2000/svg">
 <style type="text/css">
  .order-arrow { stroke-linecap: round }
 </style>
 <g id="layer1">
  <g id="jamo" class="jamo" transform="matrix(1.4795 0 0 1.4795 -22.859 -110.39)">
   <path id="path831" d="m323.99 99.428q0 5.7588-2.3035 16.125-2.3035 10.366-2.3035 16.125v178.52q0 94.061-18.044 94.061-3.4553 0-5.3749-10.366-1.5357-9.982-1.1518-19.964 0.76784-9.5981 0.38392-13.821v-78.704q-49.91 14.205-160.86 33.785-12.669 1.9196-21.116 6.9106-9.2142 5.7588-13.821 5.7588-9.982 0-32.25-10.75-22.268-10.75-22.268-19.196 0-3.4553 4.2232-3.4553 1.1518 0 4.2232 0.76784 15.741 3.0714 41.848 3.0714 31.482 0 70.642-4.2232 39.16-4.6071 59.892-8.0624 20.732-3.8392 69.49-13.053v-141.28q0-23.419-19.58-33.401-14.589-7.2945-14.589-9.982 0-5.3749 13.437-5.3749 10.75 0 29.946 4.991 19.58 4.6071 19.58 11.518z"/>
  </g>
  <g id="number-1" class="stroke-number">
   <path id="path834" d="m163.54 405.37c10.066 0 18.22-8.1534 18.22-18.22 0-10.066-8.1534-18.22-18.22-18.22s-18.22 8.1534-18.22 18.22c0 10.066 8.1534 18.22 18.22 18.22zm0-2.8598c-8.4849 0-15.35-6.875-15.35-15.36 0-8.4848 6.8655-15.36 15.35-15.36s15.36 6.875 15.36 15.36c0 8.4849-6.875 15.36-15.36 15.36zm2.822-25.057h-4.3466l-4.7822 2.9735v4.053l4.3371-2.6515h0.11364v15.019h4.678z"/>
  </g>
  <g id="number-2" class="stroke-number">
   <path id="path837" d="m473.96 94.804c10.066 0 18.22-8.1534 18.22-18.22 0-10.066-8.1534-18.22-18.22-18.22s-18.22 8.1534-18.22 18.22c0 10.066 8.1534 18.22 18.22 18.22zm0-2.8599c-8.4849 0-15.35-6.875-15.35-15.36s6.8655-15.36 15.35-15.36 15.36 6.875 15.36 15.36-6.875 15.36-15.36 15.36zm-7.0265-5.6629h14.356v-3.7784h-7.8599v-0.12311l2.3201-2.1402c4.2046-3.6648 5.303-5.5303 5.303-7.7557 0-3.4943-2.8504-5.8618-7.2538-5.8618-4.2898 0-7.1591 2.4716-7.1496 6.4205h4.4413c0-1.7519 1.0796-2.7652 2.6894-2.7652 1.5814 0 2.7273 0.97538 2.7273 2.5758 0 1.4489-0.90909 2.4337-2.5 3.8636l-7.0739 6.1932z"/>
  </g>
  <path id="arrow-1" class="order-arrow" d="m383.43 325.5 2.1035 9.584-198.07 43.479a2.5 2.5 0 0 0-1.9062 2.9766 2.5 2.5 0 0 0 2.9766 1.9062l198.07-43.479 2.1035 9.582 18.162-16.59-2.1973-0.69922z"/>
  <path id="arrow-2" class="order-arrow" d="m473.96 99.48a2.5186 2.5186 0 0 0-2.5176 2.5195v332.85h-9.8848l12.402 21.457 1.1641-2.0117 11.238-19.445h-9.8828v-332.85a2.5186 2.5186 0 0 0-2.5195-2.5195z"/>
 </g>
</svg>
