<?xml version="1.0" encoding="UTF-8"?>
<svg id="svg5" width="500" height="500" version="1.1" viewBox="0 0 500 500" xmlns="http://www.w3.org/2000/svg">
 <style type="text/css">
  .order-arrow { stroke-linecap: round }
 </style>
 <g id="layer1">
  <g id="jamo" class="jamo" transform="matrix(1.4795 0 0 1.4795 -60.915 -110.1)">
   <path id="path849" d="m377.35 252.61q0 3.8392-2.6875 6.1428t-6.5267 3.0714q-3.8392 0.38392-8.0624 0.76785-3.8392 0-6.5267-0.38393h-50.678q0 6.5267 0 19.196 0.38392 12.669 0.38392 18.812 0 104.04-17.66 104.04-6.5267 0-6.5267-42.232v-77.169q-92.142 25.339-139.36 33.401-22.651 4.2232-27.259 7.2945-3.0714 2.6875-8.4463 5.7588-4.991 3.0714-9.2141 3.0714-7.6785 0-29.946-11.902-21.884-11.902-21.884-17.66 0-3.8392 5.3749-3.8392l6.9106 1.1518q12.669 2.3035 38.008 2.3035 13.821 0 40.696-3.0714v-47.606q0-8.8302-6.1428-13.821-6.1428-5.3749-12.286-8.0624-5.7588-2.6875-5.7588-5.3749 0-6.5267 16.125-6.5267 5.7588 0 12.669 0.76785 6.9106 0.38392 14.973 3.0714 8.4463 2.6875 8.4463 6.9106 0 3.8392-1.9196 11.518-1.9196 7.2945-1.9196 11.134v44.535q57.972-6.9106 120.94-22.268v-144.36q0-23.035-14.205-30.33-3.0714-0.76784-11.902-4.991-8.4463-4.2232-8.4463-7.2945 0-6.1428 13.437-6.1428 11.518 0 30.33 4.6071 19.196 4.6071 19.196 11.902 0 5.3749-2.3035 16.125-2.3035 10.75-2.3035 16.125v119.02h8.4463q6.9106 0 19.58-4.6071 12.669-4.6071 19.58-4.6071 26.875 0 26.875 11.518z"/>
  </g>
  <g id="number-1" class="stroke-number">
   <path id="path837" d="m113.41 282.07c10.066 0 18.22-8.1534 18.22-18.22s-8.1534-18.22-18.22-18.22-18.22 8.1534-18.22 18.22 8.1534 18.22 18.22 18.22zm0-2.8598c-8.4849 0-15.35-6.875-15.35-15.36s6.8655-15.36 15.35-15.36 15.36 6.875 15.36 15.36-6.875 15.36-15.36 15.36zm2.822-25.057h-4.3466l-4.7822 2.9735v4.053l4.3371-2.6515h0.11363v15.019h4.678z"/>
  </g>
  <g id="number-2" class="stroke-number">
   <path id="path840" d="m103.54 419.37c10.066 0 18.22-8.1534 18.22-18.22 0-10.066-8.1534-18.22-18.22-18.22-10.066 0-18.22 8.1534-18.22 18.22 0 10.066 8.1534 18.22 18.22 18.22zm0-2.8598c-8.4849 0-15.35-6.875-15.35-15.36 0-8.4848 6.8655-15.36 15.35-15.36 8.4849 0 15.36 6.875 15.36 15.36 0 8.4849-6.875 15.36-15.36 15.36zm-7.0265-5.6629h14.356v-3.7784h-7.8598v-0.1231l2.3201-2.1402c4.2046-3.6648 5.303-5.5303 5.303-7.7557 0-3.4943-2.8504-5.8618-7.2538-5.8618-4.2898 0-7.1591 2.4716-7.1496 6.4205h4.4413c0-1.7519 1.0795-2.7652 2.6894-2.7652 1.5814 0 2.7273 0.97538 2.7273 2.5758 0 1.4489-0.90909 2.4337-2.5 3.8636l-7.0739 6.1932z"/>
  </g>
  <g id="number-3" class="stroke-number">
   <path id="path843" d="m411.96 94.804c10.066 0 18.22-8.1534 18.22-18.22 0-10.066-8.1534-18.22-18.22-18.22s-18.22 8.1534-18.22 18.22c0 10.066 8.1534 18.22 18.22 18.22zm0-2.8599c-8.4849 0-15.35-6.875-15.35-15.36s6.8655-15.36 15.35-15.36 15.36 6.875 15.36 15.36-6.875 15.36-15.36 15.36zm-0.0663-5.3977c4.5455 0 7.7746-2.4053 7.7652-5.7765 9e-3 -2.3864-1.553-4.0909-4.5455-4.4413v-0.15152c2.2443-0.32197 3.8352-1.8277 3.8258-4.0057 9e-3 -3.1629-2.8504-5.5492-7.0076-5.5492-4.1856 0-7.2349 2.4242-7.2727 5.8712h4.4792c0.0379-1.3258 1.2311-2.2159 2.7936-2.2159 1.4867 0 2.5 0.89962 2.4905 2.197 9e-3 1.3447-1.1837 2.2727-2.9072 2.2727h-1.8845v3.3333h1.8845c1.9602 0 3.2386 0.96591 3.2197 2.3295 0.0189 1.3731-1.1553 2.3295-2.822 2.3295-1.6572 0-2.8788-0.88068-2.9261-2.1591h-4.7159c0.0379 3.5038 3.1913 5.9659 7.6231 5.9659z"/>
  </g>
  <g id="number-4" transform="translate(0,-2)" class="stroke-number">
   <path id="path846" d="m411.81 322.31c10.066 0 18.22-8.1534 18.22-18.22s-8.1534-18.22-18.22-18.22c-10.066 0-18.22 8.1534-18.22 18.22s8.1534 18.22 18.22 18.22zm0-2.8598c-8.4849 0-15.35-6.875-15.35-15.36s6.8655-15.36 15.35-15.36c8.4848 0 15.36 6.875 15.36 15.36s-6.875 15.36-15.36 15.36zm-9.0625-8.8826h9.3656v3.2197h4.4792v-3.2197h2.3201v-3.6932h-2.3201v-12.481h-5.8996l-7.9451 12.519zm9.4602-3.6932h-4.8011v-0.15151l4.6496-7.3674h0.15151z"/>
  </g>
  <path id="arrow-1" class="order-arrow" d="m113.41 286.5c-1.3807 0-2.5 1.1193-2.5 2.5v20.906h-9.8106l12.311 21.299 1.1543-1.998 11.156-19.301h-9.8105v-20.906c0-1.3807-1.1193-2.5-2.5-2.5z"/>
  <path id="arrow-2" class="order-arrow" d="m323.43 337.5 2.1035 9.584-198.07 43.479a2.5 2.5 0 0 0-1.9062 2.9766 2.5 2.5 0 0 0 2.9766 1.9062l198.07-43.479 2.1035 9.582 18.162-16.59-2.1973-0.69922z"/>
  <path id="arrow-3" class="order-arrow" d="m411.96 99.398a2.6021 2.6021 0 0 0-2.6016 2.6016v122.62h-10.211l12.812 22.168 1.2012-2.0801 11.613-20.088h-10.213v-122.62a2.6021 2.6021 0 0 0-2.6016-2.6016z"/>
  <path id="arrow-4" class="order-arrow" d="m470.91 289.78v9.8106h-32.906a2.5 2.5 0 0 0-2.5 2.5 2.5 2.5 0 0 0 2.5 2.5h32.906v9.8106l21.299-12.311-1.998-1.1543z"/>
 </g>
</svg>
