<?xml version="1.0" encoding="UTF-8"?>
<svg id="svg5" width="500" height="500" version="1.1" viewBox="0 0 500 500" xmlns="http://www.w3.org/2000/svg">
 <style type="text/css">
  .order-arrow { stroke-linecap: round }
 </style>
 <g id="layer1">
  <g id="jamo" class="jamo" transform="matrix(1.4795 0 0 1.4795 -26.551 -110.67)">
   <path id="path849" d="m324.75 99.045-2.3035 8.0624q-2.6875 7.6785-2.6875 24.571 0 29.946 0 89.838 0.38392 59.508 0.38392 89.454 0 93.677-17.66 93.677-6.5267 0-6.5267-29.562-0.38392-13.053-0.38392-78.32h-20.732q-17.66 0-28.026 4.991-3.8392 1.9196-5.3749 1.9196-4.6071 0-18.428-8.4463-13.821-8.4463-13.821-12.669 0-1.9196 2.3035-1.9196 2.3035 0 3.4553 0.38392 17.277 3.4553 34.937 3.4553h45.687v-152.8q0-13.053-2.6875-19.196-2.3035-6.1428-8.4463-9.2142-6.1428-3.0714-16.893-8.4463-6.1428-3.0714-6.1428-5.3749 0-6.5267 13.437-6.5267 9.982 0 29.946 4.991 19.964 4.991 19.964 11.134zm-40.696 125.93q0 10.75-104.43 29.178 0 6.1428 0 18.428 0.38393 11.902 0.38393 18.044 0 90.99-19.964 90.99-0.76784 0-2.3035-3.0714-2.6875-9.2142-2.6875-42.999v-78.704q-7.6785 0-24.571 2.3035-16.893 1.9196-22.268 5.3749-2.6875 2.3035-6.5267 4.6071-3.8392 2.3035-7.6785 2.3035-6.9106 0-26.107-10.75-18.812-10.75-18.812-16.509 0-3.8392 4.6071-3.8392 2.3035 0 6.1428 0.76785 16.509 2.3035 42.232 2.3035 89.454 0 162.4-16.893 13.053-3.4553 17.66-3.4553 1.9196 0 1.9196 1.9196z"/>
  </g>
  <g id="number-1" class="stroke-number">
   <path id="path837" d="m76.514 235.66c10.066 0 18.22-8.1534 18.22-18.22s-8.1534-18.22-18.22-18.22c-10.066 0-18.22 8.1534-18.22 18.22s8.1534 18.22 18.22 18.22zm0-2.8598c-8.4849 0-15.35-6.875-15.35-15.36s6.8655-15.36 15.35-15.36c8.4849 0 15.36 6.875 15.36 15.36s-6.875 15.36-15.36 15.36zm2.822-25.057h-4.3466l-4.7822 2.9735v4.053l4.3371-2.6515h0.11364v15.019h4.678z"/>
  </g>
  <g id="number-2" class="stroke-number">
   <path id="path840" d="m179.16 313.37c10.066 0 18.22-8.1534 18.22-18.22s-8.1534-18.22-18.22-18.22-18.22 8.1534-18.22 18.22 8.1534 18.22 18.22 18.22zm0-2.8598c-8.4849 0-15.35-6.875-15.35-15.36s6.8655-15.36 15.35-15.36 15.36 6.875 15.36 15.36-6.875 15.36-15.36 15.36zm-7.0265-5.6629h14.356v-3.7784h-7.8599v-0.12311l2.3201-2.1402c4.2046-3.6648 5.303-5.5303 5.303-7.7557 0-3.4943-2.8504-5.8618-7.2538-5.8618-4.2898 0-7.1591 2.4716-7.1496 6.4205h4.4413c0-1.7519 1.0796-2.7652 2.6894-2.7652 1.5814 0 2.7273 0.97538 2.7273 2.5758 0 1.4489-0.90909 2.4337-2.5 3.8636l-7.0739 6.1932z"/>
  </g>
  <g id="number-3" class="stroke-number">
   <path id="path843" d="m303.31 375.53c10.066 0 18.22-8.1534 18.22-18.22s-8.1534-18.22-18.22-18.22-18.22 8.1534-18.22 18.22 8.1534 18.22 18.22 18.22zm0-2.8599c-8.4849 0-15.35-6.875-15.35-15.36s6.8655-15.36 15.35-15.36 15.36 6.875 15.36 15.36-6.875 15.36-15.36 15.36zm-0.0663-5.3977c4.5455 0 7.7746-2.4053 7.7652-5.7765 9e-3 -2.3864-1.553-4.0909-4.5455-4.4413v-0.15151c2.2443-0.32197 3.8352-1.8277 3.8258-4.0057 9e-3 -3.1629-2.8504-5.5492-7.0076-5.5492-4.1856 0-7.2349 2.4242-7.2727 5.8712h4.4792c0.0379-1.3258 1.2311-2.2159 2.7936-2.2159 1.4867 0 2.5 0.89962 2.4905 2.197 9e-3 1.3447-1.1837 2.2727-2.9072 2.2727h-1.8845v3.3333h1.8845c1.9602 0 3.2386 0.96591 3.2197 2.3296 0.0189 1.3731-1.1553 2.3296-2.822 2.3296-1.6572 0-2.8788-0.88069-2.9261-2.1591h-4.7159c0.0379 3.5038 3.1913 5.9659 7.6231 5.9659z"/>
  </g>
  <g id="number-4" class="stroke-number">
   <path id="path846" d="m471.96 94.804c10.066 0 18.22-8.1534 18.22-18.22 0-10.066-8.1534-18.22-18.22-18.22s-18.22 8.1534-18.22 18.22c0 10.066 8.1534 18.22 18.22 18.22zm0-2.8599c-8.4849 0-15.35-6.875-15.35-15.36s6.8655-15.36 15.35-15.36 15.36 6.875 15.36 15.36-6.875 15.36-15.36 15.36zm-9.0625-8.8826h9.3655v3.2197h4.4792v-3.2197h2.3201v-3.6932h-2.3201v-12.481h-5.8996l-7.9451 12.519zm9.4602-3.6932h-4.8011v-0.15152l4.6496-7.3674h0.15151z"/>
  </g>
  <path id="arrow-1" class="order-arrow" d="m357.86 178.07 0.85742 9.7734-255.93 24.381c-1.3753 0.12091-2.3922 1.3337-2.2715 2.709 0.12091 1.3753 1.3337 2.3922 2.709 2.2715l255.93-24.381 0.85743 9.7734 20.141-14.125-2.0898-0.97461z"/>
  <path id="arrow-2" class="order-arrow" d="m179.16 317.5a2.5 2.5 0 0 0-2.5 2.5v92.906h-9.8125l12.312 21.299 1.1543-1.998 11.156-19.301h-9.8106v-92.906a2.5 2.5 0 0 0-2.5-2.5z"/>
  <path id="arrow-3" class="order-arrow" d="m380.91 345v9.8106h-50.906c-1.3807 0-2.5 1.1193-2.5 2.5s1.1193 2.5 2.5 2.5h50.906v9.8105l21.299-12.311-1.998-1.1543z"/>
  <path id="arrow-4" class="order-arrow" d="m471.96 99.48a2.5186 2.5186 0 0 0-2.5176 2.5195v332.85h-9.8848l12.402 21.457 1.1641-2.0117 11.238-19.445h-9.8828v-332.85a2.5186 2.5186 0 0 0-2.5195-2.5195z"/>
 </g>
</svg>
