<?xml version="1.0" encoding="UTF-8"?>
<svg id="svg5" width="500" height="500" version="1.1" viewBox="0 0 500 500" xmlns="http://www.w3.org/2000/svg">
 <style type="text/css">
  .order-arrow { stroke-linecap: round }
 </style>
 <g id="layer1">
  <g id="jamo" class="jamo" transform="matrix(1.4795 0 0 1.4795 -29.107 -108.97)">
   <path id="path855" d="m334.74 98.277q0 5.3749-2.3035 15.741-2.3035 10.366-2.3035 15.741v192.35q0 82.16-18.044 82.16-1.9196 0-3.0714-3.0714-1.1518-3.0714-1.9196-7.2945-0.38392-4.2232-0.76784-10.366-0.38393-5.7588-0.38393-10.366 0-4.2232 0-8.8302 0.38393-4.991 0.38393-5.3749v-112.49h-38.392v60.276q0 77.936-16.125 77.936-6.9106 0-6.9106-17.277 0-13.437-0.38393-40.312 0-27.259 0-41.08-57.588 21.5-114.03 31.098-26.491 4.2232-31.866 8.0624-2.3035 2.3035-5.7588 4.6071-3.0714 1.9196-6.5267 1.9196-6.5267 0-25.339-9.5981-18.428-9.5981-18.428-14.589 0-3.4553 5.3749-3.4553t15.741 0.76785q10.366 0.38392 15.357 0.38392 13.821 0 41.464-2.3035v-61.428q0-5.7588-11.902-11.902-11.518-6.5267-11.518-8.0624 0-4.2232 11.134-4.2232 9.5981 0 23.419 2.6875 13.821 2.3035 13.821 7.2945 0 3.4553-1.1518 10.366-1.1518 6.9106-1.1518 10.366v52.214q46.071-7.6785 101.36-23.035v-144.36q0-6.9106-7.2945-11.902-7.2945-5.3749-14.589-8.8302t-7.2945-5.7588q0-6.5267 13.053-6.5267 8.8302 0 25.723 4.991 16.893 4.991 16.893 11.134 0 4.2232-1.5357 12.669-1.5357 8.4463-1.5357 12.669v93.293h38.392v-115.56q0-10.75-8.8302-16.125-8.4463-5.3749-17.277-8.0624-8.4463-3.0714-8.4463-7.6785 0-2.6875 4.991-4.2232 4.991-1.9196 8.4463-1.9196 11.518 0 30.33 4.991 19.196 4.6071 19.196 12.286z"/>
  </g>
  <g id="number-1" class="stroke-number">
   <path id="path840" d="m125.41 278.07c10.066 0 18.22-8.1534 18.22-18.22s-8.1534-18.22-18.22-18.22-18.22 8.1534-18.22 18.22 8.1534 18.22 18.22 18.22zm0-2.8598c-8.4849 0-15.35-6.875-15.35-15.36s6.8655-15.36 15.35-15.36 15.36 6.875 15.36 15.36-6.875 15.36-15.36 15.36zm2.822-25.057h-4.3466l-4.7822 2.9735v4.053l4.3371-2.6515h0.11364v15.019h4.678z"/>
  </g>
  <g id="number-2" class="stroke-number">
   <path id="path843" d="m139.08 409.68c10.066 0 18.22-8.1534 18.22-18.22s-8.1534-18.22-18.22-18.22-18.22 8.1534-18.22 18.22 8.1534 18.22 18.22 18.22zm0-2.8598c-8.4849 0-15.35-6.875-15.35-15.36s6.8655-15.36 15.35-15.36 15.36 6.875 15.36 15.36-6.875 15.36-15.36 15.36zm-7.0265-5.6629h14.356v-3.7784h-7.8599v-0.12311l2.3201-2.1402c4.2046-3.6648 5.303-5.5303 5.303-7.7557 0-3.4943-2.8504-5.8618-7.2538-5.8618-4.2898 0-7.1591 2.4716-7.1496 6.4205h4.4413c0-1.7519 1.0795-2.7652 2.6894-2.7652 1.5814 0 2.7273 0.97538 2.7273 2.5758 0 1.4489-0.90909 2.4337-2.5 3.8636l-7.0739 6.1932z"/>
  </g>
  <g id="number-3" class="stroke-number">
   <path id="path846" d="m391.41 112.07c10.066 0 18.22-8.1534 18.22-18.22 0-10.066-8.1534-18.22-18.22-18.22s-18.22 8.1534-18.22 18.22c0 10.066 8.1534 18.22 18.22 18.22zm0-2.8598c-8.4849 0-15.35-6.875-15.35-15.36 0-8.4849 6.8655-15.36 15.35-15.36s15.36 6.875 15.36 15.36c0 8.4849-6.875 15.36-15.36 15.36zm-0.0663-5.3977c4.5455 0 7.7746-2.4053 7.7652-5.7765 9e-3 -2.3864-1.553-4.0909-4.5455-4.4413v-0.15152c2.2443-0.32197 3.8352-1.8277 3.8258-4.0057 9e-3 -3.1629-2.8504-5.5492-7.0076-5.5492-4.1856 0-7.2349 2.4242-7.2727 5.8712h4.4792c0.0379-1.3258 1.2311-2.2159 2.7936-2.2159 1.4868 0 2.5 0.89962 2.4905 2.197 9e-3 1.3447-1.1837 2.2727-2.9072 2.2727h-1.8845v3.3333h1.8845c1.9602 0 3.2386 0.96591 3.2197 2.3295 0.0189 1.3731-1.1553 2.3296-2.822 2.3296-1.6572 0-2.8788-0.88069-2.9261-2.1591h-4.7159c0.0379 3.5038 3.1913 5.9659 7.6231 5.9659z"/>
  </g>
  <g id="number-4" class="stroke-number">
   <path id="path849" d="m395.76 325.53c10.066 0 18.22-8.1534 18.22-18.22s-8.1534-18.22-18.22-18.22-18.22 8.1534-18.22 18.22 8.1534 18.22 18.22 18.22zm0-2.8598c-8.4849 0-15.35-6.875-15.35-15.36s6.8655-15.36 15.35-15.36 15.36 6.875 15.36 15.36-6.875 15.36-15.36 15.36zm-9.0625-8.8826h9.3656v3.2197h4.4792v-3.2197h2.3201v-3.6932h-2.3201v-12.481h-5.8996l-7.9451 12.519zm9.4602-3.6932h-4.8011v-0.15152l4.6496-7.3674h0.15151z"/>
  </g>
  <g id="number-5" class="stroke-number">
   <path id="path852" d="m481.41 96.073c10.066 0 18.22-8.1534 18.22-18.22s-8.1534-18.22-18.22-18.22-18.22 8.1534-18.22 18.22 8.1534 18.22 18.22 18.22zm0-2.8599c-8.4849 0-15.35-6.875-15.35-15.36s6.8655-15.36 15.35-15.36 15.36 6.875 15.36 15.36-6.875 15.36-15.36 15.36zm-0.0852-5.3977c4.5171 0 7.5284-2.8409 7.5284-6.8371 0-3.6932-2.5758-6.3258-6.0606-6.3258-1.8371 0-3.3618 0.78599-4.0057 1.8561h-0.11363l0.44507-4.5739h8.589v-3.7784h-12.443l-0.8428 10.455 4.1383 0.77652c0.52083-0.87121 1.6004-1.411 2.7367-1.4015 1.7803 0 3.0492 1.2595 3.0398 3.125 9e-3 1.8561-1.2405 3.1061-3.0114 3.1061-1.5057 0-2.7462-0.9375-2.8125-2.3674h-4.5455c0.0568 3.4849 3.1155 5.9659 7.358 5.9659z"/>
  </g>
  <path id="arrow-1" class="order-arrow" d="m125.41 282.5c-1.3807 0-2.5 1.1193-2.5 2.5v26.906h-9.8106l12.311 21.299 1.1543-1.998 11.156-19.301h-9.8105v-26.906c0-1.3807-1.1193-2.5-2.5-2.5z"/>
  <path id="arrow-2" class="order-arrow" d="m296.48 345.45 2.0566 9.5918-133.06 28.514a2.5 2.5 0 0 0-1.9219 2.9688 2.5 2.5 0 0 0 2.9688 1.9219l133.06-28.514 2.0566 9.5918 18.244-16.5-2.1934-0.70899z"/>
  <path id="arrow-3" class="order-arrow" d="m391.41 116.5c-1.3807 0-2.5 1.1193-2.5 2.5v90.906h-9.8106l12.311 21.299 1.1543-1.998 11.156-19.301h-9.8105v-90.906c0-1.3807-1.1193-2.5-2.5-2.5z"/>
  <path id="arrow-4" class="order-arrow" d="m373.41 272.95c0 1.3807 1.1193 2.5 2.5 2.5h20.906v9.8106l21.299-12.311-1.998-1.1543-19.301-11.156v9.8105h-20.906c-1.3807 0-2.5 1.1193-2.5 2.5z"/>
  <path id="arrow-5" class="order-arrow" d="m481.41 100.5c-1.3807 0-2.5 1.1193-2.5 2.5v338.91h-9.8106l12.311 21.299 1.1543-1.998 11.156-19.301h-9.8105v-338.91c0-1.3807-1.1193-2.5-2.5-2.5z"/>
 </g>
</svg>
