<?xml version="1.0" encoding="UTF-8"?>
<svg id="svg5" width="500" height="500" version="1.1" viewBox="0 0 500 500" xmlns="http://www.w3.org/2000/svg">
 <style type="text/css">
  .order-arrow { stroke-linecap: round }
 </style>
 <g id="layer1">
  <g id="jamo" class="jamo" transform="matrix(1.4795 0 0 1.4795 -30.243 -108.97)">
   <path id="path855" d="m333.97 99.428q0 4.991-1.9196 14.973-1.9196 9.982-1.9196 15.357v174.68q0 99.82-18.044 99.82-1.5357 0-2.6875-3.8392-3.4553-10.75-3.4553-48.758v-221.91q0-7.2945-0.38392-11.134-1.1518-8.8302-9.5981-14.973-8.4463-6.5267-16.509-9.982-7.6785-3.4553-7.6785-6.1428 0-6.5267 14.973-6.5267 5.7588 0 18.812 3.0714 13.053 2.6875 19.58 5.3749 8.8302 3.0714 8.8302 9.982zm-55.669 19.58q0 1.1518-1.9196 8.8302-1.9196 8.0624-1.9196 24.955v142.82q0 82.927-16.893 82.927-5.3749 0-5.3749-22.651v-73.329h-12.286q-5.7588 0-13.053 3.0714-7.2945 3.0714-8.8302 3.0714-4.2232 0-16.125-7.6785t-11.902-11.518q0-2.3035 2.3035-2.3035 1.9196 0 4.991 0.76785 11.902 2.3035 30.714 2.3035h24.187v-124.01q0-13.821-3.0714-18.044-1.5357-1.9196-14.205-9.2142-12.286-7.6785-12.286-9.2142 0-6.1428 15.741-6.1428 39.928 0 39.928 15.357zm-50.294 103.28q0 3.8392-17.66 10.75-17.66 6.5267-32.25 10.75-14.205 3.8392-24.571 6.5267 0 4.991 0 14.973 0.38392 9.982 0.38392 15.357 0 81.776-17.277 81.776-5.3749 0-5.3749-23.419v-84.463q-29.946 4.991-34.553 8.4463-0.76785 0.38392-3.0714 2.3035-1.9196 1.5357-3.8392 2.3035-1.5357 0.76784-3.4553 0.76784-6.5267 0-24.187-9.982-17.277-9.982-17.277-15.357 0-2.6875 3.4553-2.6875 4.991 0 15.741 1.1518 10.75 0.76785 15.741 0.76785 54.517 0 130.53-19.196 13.437-3.0714 14.973-3.0714 2.6875 0 2.6875 2.3035z"/>
  </g>
  <g id="number-1" class="stroke-number">
   <path id="path840" d="m56.514 237.66c10.066 0 18.22-8.1534 18.22-18.22s-8.1534-18.22-18.22-18.22c-10.066 0-18.22 8.1534-18.22 18.22s8.1534 18.22 18.22 18.22zm0-2.8598c-8.4849 0-15.35-6.875-15.35-15.36s6.8655-15.36 15.35-15.36c8.4849 0 15.36 6.875 15.36 15.36s-6.875 15.36-15.36 15.36zm2.822-25.057h-4.3466l-4.7822 2.9735v4.053l4.3371-2.6515h0.11364v15.019h4.678z"/>
  </g>
  <g id="number-2" class="stroke-number">
   <path id="path843" d="m140 313.37c10.066 0 18.22-8.1534 18.22-18.22s-8.1534-18.22-18.22-18.22-18.22 8.1534-18.22 18.22 8.1534 18.22 18.22 18.22zm0-2.8598c-8.4849 0-15.35-6.875-15.35-15.36s6.8655-15.36 15.35-15.36 15.36 6.875 15.36 15.36-6.875 15.36-15.36 15.36zm-7.0265-5.6629h14.356v-3.7784h-7.8599v-0.12311l2.3201-2.1402c4.2046-3.6648 5.303-5.5303 5.303-7.7557 0-3.4943-2.8504-5.8618-7.2538-5.8618-4.2898 0-7.1591 2.4716-7.1496 6.4205h4.4413c0-1.7519 1.0796-2.7652 2.6894-2.7652 1.5814 0 2.7273 0.97538 2.7273 2.5758 0 1.4489-0.90909 2.4337-2.5 3.8636l-7.0739 6.1932z"/>
  </g>
  <g id="number-3" class="stroke-number">
   <path id="path846" d="m267.31 353.53c10.066 0 18.22-8.1534 18.22-18.22s-8.1534-18.22-18.22-18.22-18.22 8.1534-18.22 18.22 8.1534 18.22 18.22 18.22zm0-2.8599c-8.4849 0-15.35-6.875-15.35-15.36s6.8655-15.36 15.35-15.36 15.36 6.875 15.36 15.36-6.875 15.36-15.36 15.36zm-0.0663-5.3977c4.5455 0 7.7746-2.4053 7.7652-5.7765 9e-3 -2.3864-1.553-4.0909-4.5455-4.4413v-0.15151c2.2443-0.32197 3.8352-1.8277 3.8258-4.0057 9e-3 -3.1629-2.8504-5.5492-7.0076-5.5492-4.1856 0-7.2349 2.4242-7.2727 5.8712h4.4792c0.0379-1.3258 1.2311-2.2159 2.7936-2.2159 1.4867 0 2.5 0.89962 2.4905 2.197 9e-3 1.3447-1.1837 2.2727-2.9072 2.2727h-1.8845v3.3333h1.8845c1.9602 0 3.2386 0.96591 3.2197 2.3296 0.0189 1.3731-1.1553 2.3296-2.822 2.3296-1.6572 0-2.8788-0.88069-2.9261-2.1591h-4.7159c0.0379 3.5038 3.1913 5.9659 7.6231 5.9659z"/>
  </g>
  <g id="number-4" class="stroke-number">
   <path id="path849" d="m399.96 110.8c10.066 0 18.22-8.1534 18.22-18.22 0-10.066-8.1534-18.22-18.22-18.22s-18.22 8.1534-18.22 18.22c0 10.066 8.1534 18.22 18.22 18.22zm0-2.8598c-8.4849 0-15.35-6.875-15.35-15.36 0-8.4849 6.8655-15.36 15.35-15.36s15.36 6.875 15.36 15.36c0 8.4849-6.875 15.36-15.36 15.36zm-9.0625-8.8826h9.3655v3.2197h4.4792v-3.2197h2.3201v-3.6932h-2.3201v-12.481h-5.8996l-7.9451 12.519zm9.4602-3.6932h-4.8011v-0.15152l4.6496-7.3674h0.15151z"/>
  </g>
  <g id="number-5" class="stroke-number">
   <path id="path852" d="m479.96 96.804c10.066 0 18.22-8.1534 18.22-18.22 0-10.066-8.1534-18.22-18.22-18.22s-18.22 8.1534-18.22 18.22c0 10.066 8.1534 18.22 18.22 18.22zm0-2.8599c-8.4849 0-15.35-6.875-15.35-15.36s6.8655-15.36 15.35-15.36 15.36 6.875 15.36 15.36-6.875 15.36-15.36 15.36zm-0.0852-5.3977c4.517 0 7.5284-2.8409 7.5284-6.8371 0-3.6932-2.5758-6.3258-6.0606-6.3258-1.8371 0-3.3618 0.78599-4.0057 1.8561h-0.11363l0.44507-4.5739h8.589v-3.7784h-12.443l-0.8428 10.455 4.1383 0.77652c0.52083-0.87121 1.6004-1.411 2.7368-1.4015 1.7803 0 3.0492 1.2595 3.0398 3.125 9e-3 1.8561-1.2405 3.1061-3.0114 3.1061-1.5057 0-2.7462-0.9375-2.8125-2.3674h-4.5455c0.0568 3.4849 3.1155 5.9659 7.358 5.9659z"/>
  </g>
  <path id="arrow-1" class="order-arrow" d="m271.86 180.07 0.85742 9.7734-189.93 24.381c-1.3753 0.12091-2.3922 1.3337-2.2715 2.709 0.12091 1.3753 1.3337 2.3922 2.709 2.2715l189.93-24.381 0.85743 9.7734 20.141-14.125-2.0898-0.97461z"/>
  <path id="arrow-2" class="order-arrow" d="m140 317.5c-1.3807 0-2.5 1.1193-2.5 2.5v72.906h-9.8125l12.312 21.299 1.1543-1.998 11.156-19.301h-9.8106v-72.906c0-1.3807-1.1193-2.5-2.5-2.5z"/>
  <path id="arrow-3" class="order-arrow" d="m314.91 323v9.8106h-20.906c-1.3807 0-2.5 1.1193-2.5 2.5s1.1193 2.5 2.5 2.5h20.906v9.8105l21.299-12.311-1.998-1.1543z"/>
  <path id="arrow-4" class="order-arrow" d="m399.96 115.48c-1.391 5.6e-4 -2.5181 1.1286-2.5176 2.5195v286.85h-9.8848l12.402 21.457 1.1641-2.0117 11.238-19.445h-9.8828v-286.85c5.2e-4 -1.3917-1.1278-2.52-2.5195-2.5195z"/>
  <path id="arrow-5" class="order-arrow" d="m479.96 101.48c-1.391 5.6e-4 -2.5181 1.1286-2.5176 2.5195v334.85h-9.8848l12.402 21.457 1.1641-2.0117 11.238-19.445h-9.8828v-334.85c5.2e-4 -1.3917-1.1278-2.52-2.5195-2.5195z"/>
 </g>
</svg>
