<?xml version="1.0" encoding="UTF-8"?>
<svg width="489.6pt" height="270pt" version="1.1" viewBox="0 0 489.6 270" xmlns="http://www.w3.org/2000/svg" xmlns:xlink="http://www.w3.org/1999/xlink">
 <style>
  svg { background-color: #fff }
  @media (prefers-color-scheme: dark) {
   path { fill: #fff }
  }
 </style>
 <defs>
  <clipPath id="clip2">
   <path d="m0.94531 7h61.055v49h-61.055z"/>
  </clipPath>
  <clipPath id="clip3">
   <path d="m3 0.66406h8v7.3359h-8z"/>
  </clipPath>
  <clipPath id="clip4">
   <path d="m11 3h55.953v48h-55.953z"/>
  </clipPath>
  <clipPath id="clip1">
   <rect width="67" height="56"/>
  </clipPath>
  <g id="surface5" clip-path="url(#clip1)">
   <g clip-path="url(#clip2)">
    <path d="m61.223 10.309c0 0.49609-0.31641 1.207-0.95703 2.1289-0.63672 0.92578-0.95703 1.707-0.95703 2.3438 0 6.4609-0.57031 12.215-1.707 17.254-1.0625 4.9688-2.9805 10.188-5.75 15.656-2.7695 5.5391-4.8281 8.3086-6.1758 8.3086-0.57031 0-0.85156-0.32031-0.85156-0.96094 0-0.21094 0.14062-0.81641 0.42578-1.8086 0.28125-1.0664 0.60156-2.2031 0.95703-3.4102 0.42578-1.207 0.67578-1.9141 0.74609-2.1289 2.8398-10.012 4.332-21.477 4.4727-34.402h-20.023c-5.4648 0-9.6211 0.71094-12.461 2.1328-2.1289 1.0625-3.4414 1.5977-3.9375 1.5977-1.1367 0-3.7656-0.96094-7.8828-2.8789-4.1172-1.9883-6.1758-3.3711-6.1758-4.1523 0-0.71094 0.53125-1.0664 1.5977-1.0664 0.99219 0 2.4141 0.10938 4.2578 0.32031 1.8477 0.21484 3.1602 0.32031 3.9414 0.32031 7.9531 0.28516 13.953 0.42578 18 0.42578h17.359c0.92188 0 2.2344-0.35547 3.9414-1.0664 1.7734-0.70703 3.1562-1.0625 4.1523-1.0625 4.6875 0 7.0273 0.81641 7.0273 2.4492z"/>
   </g>
   <g clip-path="url(#clip3)">
    <path d="m7.0156 7.4961c1.8906 0 3.418-1.5312 3.418-3.418s-1.5273-3.4141-3.418-3.4141c-1.8867 0-3.4141 1.5273-3.4141 3.4141s1.5273 3.418 3.4141 3.418zm0-0.53906c-1.5898 0-2.875-1.2891-2.875-2.8789s1.2852-2.8789 2.875-2.8789c1.5938 0 2.8828 1.2891 2.8828 2.8789s-1.2891 2.8789-2.8828 2.8789zm0.53125-4.6953h-0.81641l-0.89453 0.55469v0.76172l0.8125-0.49609h0.019531v2.8164h0.87891z"/>
   </g>
   <g clip-path="url(#clip4)">
    <path d="m12.336 3.6094c-0.26172 0-0.47266 0.20703-0.47266 0.46875 0 0.25781 0.20703 0.46875 0.46484 0.46875h51.848v41.801h-1.8398l2.3086 3.9922 0.21484-0.375 2.0938-3.6172h-1.8398v-42.738z"/>
   </g>
  </g>
  <clipPath id="clip6">
   <path d="m0.19922 0.94922h65.711v43.051h-65.711z"/>
  </clipPath>
  <clipPath id="clip7">
   <path d="m0.19922 7h7.8008v8h-7.8008z"/>
  </clipPath>
  <clipPath id="clip5">
   <rect width="66" height="50"/>
  </clipPath>
  <g id="surface8" clip-path="url(#clip5)">
   <g clip-path="url(#clip6)">
    <path d="m65.91 39.609c0 2.2734-1.5977 3.4102-4.793 3.4102h-39.086c-4.0469 0-7.1719-0.71094-9.3711-2.1289-2.1328-1.4219-3.1953-4.0469-3.1953-7.8828v-21.195c0-1.4883-0.5-2.8398-1.4922-4.0469-0.92188-1.207-1.9883-2.0586-3.1953-2.5547-1.1367-0.56641-2.1992-1.1016-3.1953-1.5977-0.92188-0.49609-1.3828-0.92188-1.3828-1.2773 0-0.92188 0.85156-1.3867 2.5547-1.3867 2.4844 0 5.4688 0.32031 8.9453 0.96094 3.5508 0.63672 5.3242 1.6328 5.3242 2.9805 0 0.49609-0.10547 1.2422-0.31641 2.2383-0.21484 0.99219-0.32031 1.7383-0.32031 2.2344v23.645c0 2.4844 0.56641 4.2266 1.7031 5.2188 1.1367 0.92188 2.9844 1.3828 5.5391 1.3828h13.098c5.4688 0 9.8008-0.74219 12.996-2.2344 2.0586-0.85156 4.0469-1.2773 5.9648-1.2773 6.8164 0 10.223 1.1719 10.223 3.5117z"/>
   </g>
   <g clip-path="url(#clip7)">
    <path d="m4.1875 14.262c1.8867 0 3.4141-1.5273 3.4141-3.4141 0-1.8867-1.5273-3.418-3.4141-3.418s-3.418 1.5312-3.418 3.418c0 1.8867 1.5312 3.4141 3.418 3.4141zm0-0.53516c-1.5938 0-2.8789-1.2891-2.8789-2.8789s1.2852-2.8789 2.8789-2.8789c1.5898 0 2.8789 1.2891 2.8789 2.8789s-1.2891 2.8789-2.8789 2.8789zm0.52734-4.6992h-0.8125l-0.89844 0.55859v0.76172l0.8125-0.5h0.023438v2.8164h0.875z"/>
   </g>
   <path d="m4.1875 15.891c-0.25781 0-0.46875 0.21094-0.46875 0.46875v31.801h55.379v1.8398l3.9922-2.3086-0.37109-0.21875-3.6211-2.0898v1.8398h-54.441v-30.863c0-0.25781-0.21094-0.46875-0.46875-0.46875z"/>
  </g>
  <clipPath id="clip9">
   <path d="m0.15625 9h64.008v44h-64.008z"/>
  </clipPath>
  <clipPath id="clip10">
   <path d="m1 0.83984h8v7.1602h-8z"/>
  </clipPath>
  <clipPath id="clip8">
   <rect width="65" height="59"/>
  </clipPath>
  <g id="surface11" clip-path="url(#clip8)">
   <g clip-path="url(#clip9)">
    <path d="m64.164 49.309c0 2.0586-1.8438 3.0859-5.5391 3.0859h-34.188c-4.4023 0-7.8438-0.70703-10.328-2.1289-2.4844-1.418-3.7305-4.1523-3.7305-8.1992v-20.664c0-2.0586-0.53125-3.6914-1.5977-4.8984-1.0625-1.2773-2.2344-2.0586-3.5117-2.3398-1.2773-0.35547-2.4492-0.71094-3.5156-1.0664-1.0664-0.42578-1.5977-0.92188-1.5977-1.4922 0-1.3477 2.3086-2.0234 6.9219-2.0234 4.6875 0 8.2734 0.53125 10.758 1.5977 1.8477 0.71094 3.2305 1.0664 4.1523 1.0664h13.527c2.4141 0 4.8281-0.10938 7.2422-0.32031 1.1367-0.14062 2.6641-0.64062 4.5781-1.4922 1.918-0.85156 3.8359-1.2773 5.7539-1.2773 5.4648 0 8.1992 1.1016 8.1992 3.3008 0 2.1328-2.9102 3.1953-8.7344 3.1953h-31.738c-2.7656 0-4.1523 1.7773-4.1523 5.3242v21.09c0 2.8398 0.67578 4.7227 2.0234 5.6445 1.4219 0.85156 3.6211 1.2773 6.6016 1.2773h15.766c4.543 0 7.8438-0.60156 9.9023-1.8086 1.1367-0.71094 2.2734-1.0664 3.4102-1.0664 6.5312 0 9.7969 1.0664 9.7969 3.1953z"/>
   </g>
   <g clip-path="url(#clip10)">
    <path d="m4.7148 7.6719c1.8867 0 3.4141-1.5273 3.4141-3.4141 0-1.8906-1.5273-3.418-3.4141-3.418-1.8867 0-3.418 1.5273-3.418 3.418 0 1.8867 1.5312 3.4141 3.418 3.4141zm0-0.53516c-1.5898 0-2.8789-1.2891-2.8789-2.8789 0-1.5938 1.2891-2.8828 2.8789-2.8828s2.8789 1.2891 2.8789 2.8828c0 1.5898-1.2891 2.8789-2.8789 2.8789zm0.52734-4.6992h-0.8125l-0.89844 0.55859v0.76172l0.8125-0.5h0.023438v2.8164h0.875z"/>
   </g>
   <path d="m4.7148 23.152c1.8867 0 3.4141-1.5312 3.4141-3.418s-1.5273-3.4141-3.4141-3.4141c-1.8867 0-3.418 1.5273-3.418 3.4141s1.5312 3.418 3.418 3.418zm0-0.53906c-1.5898 0-2.8789-1.2891-2.8789-2.8789s1.2891-2.8789 2.8789-2.8789 2.8789 1.2891 2.8789 2.8789-1.2891 2.8789-2.8789 2.8789zm-1.3164-1.0586h2.6914v-0.71094h-1.4766v-0.023438l0.4375-0.39844c0.78906-0.6875 0.99219-1.0391 0.99219-1.457 0-0.65234-0.53125-1.0977-1.3594-1.0977-0.80469 0-1.3398 0.46484-1.3398 1.2031h0.83203c0-0.32812 0.20312-0.51953 0.50391-0.51953 0.29687 0 0.51172 0.18359 0.51172 0.48438 0 0.27344-0.16797 0.45703-0.46875 0.72266l-1.3242 1.1641z"/>
   <path d="m54.828 1.9492v1.8398h-44.418c-0.26172 0-0.46875 0.20703-0.46875 0.46875 0 0.25781 0.20703 0.46875 0.46875 0.46875h44.418v1.8398l3.6211-2.3086v-0.21875z"/>
   <path d="m4.7148 24.68c-0.25781 0-0.46875 0.21094-0.46875 0.46875v32.012h50.582v1.8398l3.6211-2.3086v-0.21875l-3.6211-2.0898v1.8398h-49.645v-31.074c0-0.25781-0.21094-0.46875-0.46875-0.46875z"/>
  </g>
  <clipPath id="clip12">
   <path d="m0.41016 8h62.59v45h-62.59z"/>
  </clipPath>
  <clipPath id="clip13">
   <path d="m4 0.82422h7v7.1758h-7z"/>
  </clipPath>
  <clipPath id="clip14">
   <path d="m0.41016 33h7.5898v7h-7.5898z"/>
  </clipPath>
  <clipPath id="clip15">
   <path d="m12 3h52.18v27h-52.18z"/>
  </clipPath>
  <clipPath id="clip11">
   <rect width="65" height="59"/>
  </clipPath>
  <g id="surface14" clip-path="url(#clip11)">
   <g clip-path="url(#clip12)">
    <path d="m62.543 49.23c0 1.918-1.207 2.875-3.6211 2.875-1.8477 0-4.582 0.035156-8.2031 0.10547h-8.0938-21.727c-1.418 0-2.6602-0.070313-3.7266-0.21094-1.0625-0.21484-2.0234-0.39062-2.875-0.53516-0.85156-0.14062-1.5977-0.49609-2.2383-1.0625-0.56641-0.57031-1.0625-0.99609-1.4883-1.2773-0.35547-0.28516-0.67578-0.92578-0.96094-1.918-0.28125-0.99609-0.49609-1.668-0.63672-2.0234-0.070312-0.35547-0.14453-1.2422-0.21484-2.6641-0.070312-1.418-0.10547-2.3438-0.10547-2.7695v-3.4062c0-1.7031-0.67578-3.0547-2.0234-4.0469-1.3477-0.99609-2.7344-1.7422-4.1523-2.2383-1.3516-0.56641-2.0234-1.0625-2.0234-1.4922 0-0.99219 1.7031-1.4883 5.1094-1.4883 3.5508 0 6.8516 0.46094 9.9062 1.3828 1.0664 0.35547 2.0586 0.53516 2.9805 0.53516h25.242c1.3477 0 2.1641-0.21484 2.4492-0.64062s0.49609-1.3477 0.64062-2.7695c0.49609-5.8203 0.74609-9.5156 0.74609-11.074 0-0.71094-0.5-1.0664-1.4922-1.0664h-21.195c-3.3359 0-5.6445 0.35547-6.9219 1.0664-0.21484 0.14062-0.60156 0.42578-1.1719 0.85156-0.49609 0.35547-0.95703 0.63672-1.3828 0.85156-0.42578 0.14062-0.85156 0.21094-1.2812 0.21094-1.207 0-3.5117-0.85156-6.9219-2.5547-3.4062-1.7734-5.1094-3.125-5.1094-4.0469 0-0.49609 0.35156-0.74609 1.0625-0.74609 0.42578 0 1.0664 0.070313 1.918 0.21484 4.8984 0.63672 10.648 0.95703 17.254 0.95703 2.1992 0 5.5039-0.035156 9.9062-0.10547 4.3984-0.074219 7.7031-0.10938 9.9023-0.10938 0.85156 0 2.0938-0.28125 3.7266-0.85156 1.6328-0.63672 2.9141-0.95703 3.8359-0.95703s1.918 0.070313 2.9805 0.21094c1.0664 0.074219 2.2031 0.32031 3.4102 0.74609 1.207 0.42578 1.8086 0.99609 1.8086 1.707 0 0.49609-0.95703 2.9102-2.875 7.2422-1.918 4.3281-2.875 7.168-2.875 8.5195 0 0.56641 0.60547 1.1719 1.8125 1.8086 1.207 0.57031 1.8086 1.2422 1.8086 2.0234 0 1.2773-1.0312 1.918-3.0898 1.918h-35.57c-1.0664 0-1.5977 0.71094-1.5977 2.1289v8.2031c0 2.2695 0.56641 3.8672 1.7031 4.793 1.1367 0.85156 2.8398 1.2773 5.1133 1.2773h13.844c5.6797 0 9.8711-0.57031 12.57-1.7031 1.6328-0.71094 3.4414-1.0664 5.4297-1.0664 5.6094 0 8.4141 1.0664 8.4141 3.1953z"/>
   </g>
   <g clip-path="url(#clip13)">
    <path d="m7.4297 7.6562c1.8867 0 3.4141-1.5273 3.4141-3.4141 0-1.8867-1.5273-3.418-3.4141-3.418-1.8867 0-3.418 1.5312-3.418 3.418 0 1.8867 1.5312 3.4141 3.418 3.4141zm0-0.53516c-1.5938 0-2.8789-1.2891-2.8789-2.8789 0-1.5898 1.2891-2.8789 2.8789-2.8789 1.5898 0 2.8789 1.2891 2.8789 2.8789 0 1.5898-1.2891 2.8789-2.8789 2.8789zm0.52734-4.6992h-0.8125l-0.89844 0.55859v0.76172l0.8125-0.5h0.023437v2.8164h0.875z"/>
   </g>
   <path d="m7.4297 25.281c1.8867 0 3.4141-1.5273 3.4141-3.4141 0-1.8867-1.5273-3.418-3.4141-3.418-1.8867 0-3.418 1.5312-3.418 3.418 0 1.8867 1.5312 3.4141 3.418 3.4141zm0-0.53516c-1.5938 0-2.8789-1.2891-2.8789-2.8789 0-1.5898 1.2891-2.8789 2.8789-2.8789 1.5898 0 2.8789 1.2891 2.8789 2.8789 0 1.5898-1.2891 2.8789-2.8789 2.8789zm-1.3203-1.0625h2.6953v-0.70703h-1.4766v-0.023437l0.4375-0.40234c0.78516-0.6875 0.99219-1.0352 0.99219-1.4531 0-0.65625-0.53516-1.0977-1.3594-1.0977-0.80469 0-1.3438 0.46094-1.3398 1.2031h0.83203c0-0.32812 0.20312-0.51953 0.50391-0.51953 0.29688 0 0.51172 0.18359 0.51172 0.48438 0 0.26953-0.17188 0.45703-0.46875 0.72266l-1.3281 1.1641z"/>
   <g clip-path="url(#clip14)">
    <path d="m3.8281 39.855c1.8867 0 3.4141-1.5273 3.4141-3.418 0-1.8867-1.5273-3.4141-3.4141-3.4141s-3.418 1.5273-3.418 3.4141c0 1.8906 1.5273 3.418 3.418 3.418zm0-0.53516c-1.5938 0-2.8789-1.2891-2.8789-2.8828 0-1.5898 1.2852-2.8789 2.8789-2.8789 1.5898 0 2.8789 1.2891 2.8789 2.8789 0 1.5938-1.2891 2.8828-2.8789 2.8828zm-0.011719-1.0117c0.85156 0 1.457-0.45312 1.4531-1.0859 0.003907-0.44531-0.28906-0.76562-0.85156-0.83203v-0.027344c0.42188-0.058593 0.71875-0.34375 0.71875-0.75 0-0.59375-0.53516-1.043-1.3164-1.043-0.78516 0-1.3555 0.45703-1.3633 1.1016h0.83984c0.007813-0.24609 0.23047-0.41406 0.52344-0.41406 0.28125 0 0.46875 0.16797 0.46875 0.41016 0 0.25391-0.22266 0.42578-0.54687 0.42578h-0.35156v0.625h0.35156c0.36719 0 0.60937 0.18359 0.60547 0.4375 0.003906 0.25781-0.21875 0.4375-0.53125 0.4375-0.30859 0-0.53906-0.16406-0.54688-0.40625h-0.88281c0.003906 0.66016 0.59766 1.1211 1.4297 1.1211z"/>
   </g>
   <g clip-path="url(#clip15)">
    <path d="m12.746 3.7734c-0.26172 0-0.46875 0.21094-0.46875 0.46875 0 0.25781 0.20703 0.46875 0.46875 0.46875h48.656v20.426h-1.8398l2.3086 3.9922 0.21484-0.375 2.0898-3.6172h-1.8359v-21.363z"/>
   </g>
   <path d="m40.664 19.559v1.8398h-27.918c-0.26172 0-0.46875 0.21094-0.46875 0.46875 0 0.25781 0.20703 0.46875 0.46875 0.46875h27.918v1.8398l3.9961-2.3086-0.375-0.21484z"/>
   <path d="m3.8281 41.184c-0.26172 0-0.46875 0.21094-0.46875 0.46875v15.508h53.055v1.8398l3.9922-2.3086-0.375-0.21875-3.6172-2.0898v1.8398h-52.117v-14.57c0-0.25781-0.21094-0.46875-0.46875-0.46875z"/>
  </g>
  <clipPath id="clip17">
   <path d="m0.42578 7h61.574v49h-61.574z"/>
  </clipPath>
  <clipPath id="clip18">
   <path d="m0.42578 15h7.5742v7h-7.5742z"/>
  </clipPath>
  <clipPath id="clip19">
   <path d="m12 2h56.082v44h-56.082z"/>
  </clipPath>
  <clipPath id="clip16">
   <rect width="69" height="59"/>
  </clipPath>
  <g id="surface17" clip-path="url(#clip16)">
   <g clip-path="url(#clip17)">
    <path d="m61.895 11.406c0 0.42578-0.56641 1.3477-1.7031 2.7695-1.1367 1.418-1.7734 2.7695-1.918 4.0469l-2.6602 22.898c-0.14453 1.2773-0.21484 2.2695-0.21484 2.9805 0 0.57031 0.64062 1.1367 1.918 1.7031 1.3477 0.5 2.0234 1.207 2.0234 2.1328 0 1.4883-2.2031 2.2344-6.6055 2.2344h-35.57c-0.92187 3.4102-2.1641 5.1133-3.7266 5.1133s-2.5586-4.2969-2.9844-12.887l-1.0625-23.645c-0.070313-1.7734-0.85156-3.2656-2.3438-4.4727-1.4219-1.207-2.8398-2.0938-4.2617-2.6641-1.418-0.63672-2.1289-1.1719-2.1289-1.5977 0-1.0625 1.8828-1.5977 5.6445-1.5977 3.4102 0 6.8516 0.39062 10.332 1.1719 0.14063 0 0.42578 0.074219 0.85156 0.21484s0.74609 0.21094 0.95703 0.21094h27.266c0.99609 0 2.3086-0.31641 3.9414-0.95703 1.6328-0.71094 2.6602-1.0664 3.0898-1.0664 1.418 0 3.3008 0.32031 5.6445 0.96094 2.3398 0.63672 3.5117 1.4531 3.5117 2.4492zm-11.5 2.0234h-33.762l0.53125 33.336h32.273z"/>
   </g>
   <g clip-path="url(#clip18)">
    <path d="m3.8398 21.914c1.8906 0 3.418-1.5273 3.418-3.4141s-1.5273-3.418-3.418-3.418c-1.8867 0-3.4141 1.5312-3.4141 3.418s1.5273 3.4141 3.4141 3.4141zm0-0.53516c-1.5898 0-2.875-1.2891-2.875-2.8789s1.2852-2.8789 2.875-2.8789c1.5938 0 2.8828 1.2891 2.8828 2.8789s-1.2891 2.8789-2.8828 2.8789zm0.53125-4.6992h-0.81641l-0.89453 0.55859v0.76172l0.8125-0.5h0.019532v2.8164h0.87891z"/>
   </g>
   <path d="m7.2109 6.832c1.8867 0 3.4141-1.5273 3.4141-3.4141s-1.5273-3.418-3.4141-3.418c-1.8906 0-3.418 1.5273-3.418 3.418 0 1.8867 1.5273 3.4141 3.418 3.4141zm0-0.53516c-1.5938 0-2.8789-1.2891-2.8789-2.8789 0-1.5938 1.2852-2.8828 2.8789-2.8828 1.5898 0 2.8789 1.2891 2.8789 2.8828 0 1.5898-1.2891 2.8789-2.8789 2.8789zm-1.3203-1.0625h2.6914v-0.70703h-1.4727v-0.023438l0.43359-0.40234c0.78906-0.6875 0.99609-1.0352 0.99609-1.4531 0-0.65625-0.53516-1.0977-1.3594-1.0977-0.80469 0-1.3438 0.46094-1.3398 1.2031h0.83203c0-0.32812 0.20312-0.51953 0.50391-0.51953 0.29688 0 0.51172 0.18359 0.51172 0.48438 0 0.26953-0.17188 0.45312-0.46875 0.72266l-1.3281 1.1602z"/>
   <path d="m21.664 59c1.8867 0 3.4141-1.5312 3.4141-3.418s-1.5273-3.4141-3.4141-3.4141c-1.8867 0-3.418 1.5273-3.418 3.4141s1.5312 3.418 3.418 3.418zm0-0.53516c-1.5898 0-2.8789-1.2891-2.8789-2.8828 0-1.5898 1.2891-2.8789 2.8789-2.8789 1.5898 0 2.8789 1.2891 2.8789 2.8789 0 1.5938-1.2891 2.8828-2.8789 2.8828zm-0.011718-1.0156c0.85156 0 1.457-0.44922 1.4531-1.082 0.003906-0.44531-0.28906-0.76563-0.85156-0.83203v-0.027344c0.42188-0.0625 0.71875-0.34375 0.71875-0.75391 0-0.58984-0.53516-1.0391-1.3164-1.0391s-1.3555 0.45312-1.3633 1.1016h0.83984c0.007813-0.25 0.23047-0.41406 0.52344-0.41406 0.28125 0 0.46875 0.16797 0.46875 0.41016 0 0.25391-0.22266 0.42578-0.54688 0.42578h-0.35156v0.625h0.35156c0.37109 0 0.60938 0.17969 0.60547 0.4375 0.003906 0.25781-0.21484 0.4375-0.52734 0.4375s-0.54297-0.16797-0.55078-0.40625h-0.88281c0.007813 0.65625 0.59766 1.1172 1.4297 1.1172z"/>
   <path d="m3.8398 23.297c-0.25781 0-0.46875 0.21094-0.46875 0.46875v21.172h-1.8359l2.3047 3.9922 0.21875-0.375 2.0898-3.6172h-1.8398v-21.172c0-0.25781-0.20703-0.46875-0.46875-0.46875z"/>
   <g clip-path="url(#clip19)">
    <path d="m12.523 2.9492c-0.25781 0-0.46875 0.21094-0.46875 0.46875 0 0.25781 0.21094 0.46875 0.46875 0.46875h52.781v37.297h-1.8398l2.3086 3.9961 0.21875-0.375 2.0898-3.6211h-1.8398v-38.234z"/>
   </g>
   <path d="m51.898 53.273v1.8398h-24.918c-0.26172 0-0.46875 0.21094-0.46875 0.46875 0 0.26172 0.20703 0.46875 0.46875 0.46875h24.918v1.8398l3.9961-2.3086-0.375-0.21484z"/>
  </g>
  <clipPath id="clip21">
   <path d="m1 0.66406h55v49.336h-55z"/>
  </clipPath>
  <clipPath id="clip22">
   <path d="m0.94531 7h7.0547v8h-7.0547z"/>
  </clipPath>
  <clipPath id="clip23">
   <path d="m56 7h7.6523v8h-7.6523z"/>
  </clipPath>
  <clipPath id="clip24">
   <path d="m17 45h8v6.8438h-8z"/>
  </clipPath>
  <clipPath id="clip20">
   <rect width="64" height="52"/>
  </clipPath>
  <g id="surface20" clip-path="url(#clip20)">
   <g clip-path="url(#clip21)">
    <path d="m55.734 4.2891c0 0.49609-0.10547 1.207-0.32031 2.1289-0.21094 0.92188-0.32031 1.5977-0.32031 2.0234v26.094c0 9.0859-1.7383 13.633-5.2188 13.633-0.99219 0-1.4883-1.5977-1.4883-4.793h-32.059c-1.207 3.832-2.6992 5.75-4.4727 5.75-1.4922 0-2.2383-2.9453-2.2383-8.8398v-28.438c0-1.918-0.67188-3.5156-2.0234-4.793-1.2773-1.2773-2.5898-2.2344-3.9375-2.875-1.2812-0.64063-1.918-1.1367-1.918-1.4922 0-0.84766 0.95703-1.2773 2.875-1.2773 1.9883 0 4.543 0.39062 7.668 1.1719s4.6875 1.8125 4.6875 3.0898c0 0.49609-0.10938 1.2422-0.32031 2.2344-0.21484 0.99609-0.32031 1.7422-0.32031 2.2383v7.9883h32.059v-7.7773c0-1.4883-0.64062-2.8398-1.918-4.0469-1.2773-1.207-2.5547-2.1641-3.8359-2.875-1.2773-0.78125-1.9141-1.3125-1.9141-1.5938 0-0.78516 0.81641-1.1758 2.4492-1.1758 1.418 0 3.8672 0.39063 7.3477 1.1758 3.4805 0.77734 5.2188 1.5938 5.2188 2.4453zm-7.3477 35.57v-18.32h-32.059v18.32z"/>
   </g>
   <g clip-path="url(#clip22)">
    <path d="m4.3594 14.512c1.8867 0 3.418-1.5273 3.418-3.4141 0-1.8906-1.5312-3.418-3.418-3.418s-3.4141 1.5273-3.4141 3.418c0 1.8867 1.5273 3.4141 3.4141 3.4141zm0-0.53516c-1.5898 0-2.8789-1.2891-2.8789-2.8789 0-1.5938 1.2891-2.8828 2.8789-2.8828s2.8789 1.2891 2.8789 2.8828c0 1.5898-1.2891 2.8789-2.8789 2.8789zm0.53125-4.6992h-0.81641l-0.89844 0.55859v0.75781l0.81641-0.49609h0.019531v2.8164h0.87891z"/>
   </g>
   <g clip-path="url(#clip23)">
    <path d="m60.234 14.512c1.8867 0 3.418-1.5273 3.418-3.4141 0-1.8906-1.5312-3.418-3.418-3.418s-3.4141 1.5273-3.4141 3.418c0 1.8867 1.5273 3.4141 3.4141 3.4141zm0-0.53516c-1.5898 0-2.8789-1.2891-2.8789-2.8789 0-1.5938 1.2891-2.8828 2.8789-2.8828s2.8789 1.2891 2.8789 2.8828c0 1.5898-1.2891 2.8789-2.8789 2.8789zm-1.3164-1.0625h2.6914v-0.70703h-1.4727v-0.023437l0.43359-0.40234c0.78906-0.6875 0.99609-1.0352 0.99609-1.4531 0-0.65625-0.53516-1.1016-1.3633-1.1016-0.80078 0-1.3398 0.46484-1.3398 1.207h0.83203c0-0.33203 0.20313-0.51953 0.50781-0.51953 0.29297 0 0.50781 0.18359 0.50781 0.48047 0 0.27344-0.16797 0.45703-0.46875 0.72656l-1.3242 1.1602z"/>
   </g>
   <path d="m21.375 16.59c1.8867 0 3.4141-1.5273 3.4141-3.4141s-1.5273-3.418-3.4141-3.418-3.418 1.5312-3.418 3.418 1.5312 3.4141 3.418 3.4141zm0-0.53516c-1.5938 0-2.8789-1.2891-2.8789-2.8789 0-1.5898 1.2852-2.8789 2.8789-2.8789 1.5898 0 2.8789 1.2891 2.8789 2.8789 0 1.5898-1.2891 2.8789-2.8789 2.8789zm-0.011719-1.0117c0.85156 0 1.457-0.44922 1.4531-1.082 0.003906-0.44922-0.28906-0.76953-0.85156-0.83203v-0.03125c0.42188-0.058594 0.71875-0.33984 0.71875-0.75 0-0.59375-0.53516-1.0391-1.3164-1.0391-0.78516 0-1.3555 0.45312-1.3633 1.1016h0.83984c0.007812-0.25 0.23047-0.41797 0.52344-0.41797 0.28125 0 0.46875 0.16797 0.46875 0.41406 0 0.25-0.22266 0.42578-0.54688 0.42578h-0.35156v0.625h0.35156c0.36719 0 0.60938 0.17969 0.60547 0.4375 0.003907 0.25781-0.21875 0.43359-0.53125 0.43359-0.30859 0-0.53906-0.16406-0.54688-0.40234h-0.88281c0.003906 0.65625 0.59766 1.1172 1.4297 1.1172z"/>
   <g clip-path="url(#clip24)">
    <path d="m21.375 51.84c1.8867 0 3.4141-1.5273 3.4141-3.4141s-1.5273-3.418-3.4141-3.418-3.418 1.5312-3.418 3.418 1.5312 3.4141 3.418 3.4141zm0-0.53516c-1.5938 0-2.8789-1.2891-2.8789-2.8789 0-1.5898 1.2852-2.8789 2.8789-2.8789 1.5898 0 2.8789 1.2891 2.8789 2.8789 0 1.5898-1.2891 2.8789-2.8789 2.8789zm-1.6992-1.6641h1.7539v0.60156h0.83984v-0.60156h0.4375v-0.69141h-0.4375v-2.3438h-1.1055l-1.4883 2.3477zm1.7734-0.69141h-0.90234v-0.03125l0.875-1.3789h0.027344z"/>
   </g>
   <path d="m4.3594 15.895c-0.25781 0-0.46875 0.21094-0.46875 0.46875v23.047h-1.8398l2.3086 3.9922 0.21875-0.375 2.0898-3.6172h-1.8398v-23.047c0-0.25781-0.21094-0.46875-0.46875-0.46875z"/>
   <path d="m60.234 15.895c-0.25781 0-0.46875 0.21094-0.46875 0.46875v23.047h-1.8398l2.3086 3.9922 0.21875-0.375 2.0898-3.6172h-1.8398v-23.047c0-0.25781-0.21094-0.46875-0.46875-0.46875z"/>
   <path d="m42.609 10.867v1.8398h-15.918c-0.26172 0-0.46875 0.21094-0.46875 0.46875 0 0.25781 0.20703 0.46875 0.46875 0.46875h15.918v1.8398l3.9961-2.3086-0.375-0.21875z"/>
   <path d="m42.609 46.117v1.8398h-15.918c-0.26172 0-0.46875 0.21094-0.46875 0.46875 0 0.25781 0.20703 0.46875 0.46875 0.46875h15.918v1.8398l3.9961-2.3086-0.375-0.21875z"/>
  </g>
  <clipPath id="clip26">
   <path d="m0.89844 0.72656h67.102v46.117h-67.102z"/>
  </clipPath>
  <clipPath id="clip27">
   <path d="m49 20h20.641v18h-20.641z"/>
  </clipPath>
  <clipPath id="clip25">
   <rect width="70" height="47"/>
  </clipPath>
  <g id="surface23" clip-path="url(#clip25)">
   <g clip-path="url(#clip26)">
    <path d="m67.781 42.902c0 1.6328-0.85156 2.4492-2.5547 2.4492-1.7773 0-5.3633-2.3086-10.758-6.9219l-18.957-15.871c-3.6914 4.2617-9.3711 9.3711-17.039 15.336-7.5977 5.9648-13.137 8.9453-16.617 8.9453-0.63672 0-0.95703-0.24609-0.95703-0.74219 3.7617-3.0547 7.8789-6.6055 12.355-10.652 4.4727-4.0469 9.2305-8.875 14.27-14.484 5.043-5.6797 7.5625-9.7617 7.5625-12.246 0-1.1367-0.78125-2.4492-2.3438-3.9414-1.5625-1.4922-2.3438-2.5195-2.3438-3.0898 0-0.63672 0.67578-0.95703 2.0234-0.95703 1.4922 0 3.9766 0.85156 7.457 2.5547 3.5508 1.6328 5.3242 3.0547 5.3242 4.2617 0 1.8438-2.5898 6-7.7734 12.461l8.3047 6.4961c1.0664 0.85156 1.9531 1.4922 2.6641 1.918 0.78125 0.35547 1.5625 0.63672 2.3438 0.85156 0.78125 0.14062 1.8086 0.39062 3.0898 0.74609 1.5586 0.42578 4.2578 2.3398 8.0938 5.75 3.9023 3.4062 5.8555 5.7852 5.8555 7.1367z"/>
   </g>
   <path d="m28.926 12.742c1.8867 0 3.418-1.5273 3.418-3.418 0-1.8867-1.5312-3.4141-3.418-3.4141s-3.4141 1.5273-3.4141 3.4141c0 1.8906 1.5273 3.418 3.4141 3.418zm0-0.53516c-1.5898 0-2.8789-1.2891-2.8789-2.8828 0-1.5898 1.2891-2.8789 2.8789-2.8789 1.5898 0 2.8789 1.2891 2.8789 2.8789 0 1.5938-1.2891 2.8828-2.8789 2.8828zm0.53125-4.6992h-0.81641l-0.89844 0.55859v0.75781l0.81641-0.49609h0.019531v2.8164h0.87891z"/>
   <path d="m45.453 21.504c1.8867 0 3.4141-1.5273 3.4141-3.4141 0-1.8867-1.5273-3.418-3.4141-3.418s-3.418 1.5312-3.418 3.418c0 1.8867 1.5312 3.4141 3.418 3.4141zm0-0.53516c-1.5898 0-2.8789-1.2891-2.8789-2.8789s1.2891-2.8789 2.8789-2.8789 2.8789 1.2891 2.8789 2.8789-1.2891 2.8789-2.8789 2.8789zm-1.3164-1.0625h2.6914v-0.70703h-1.4766v-0.023438l0.4375-0.40234c0.78906-0.6875 0.99219-1.0352 0.99219-1.4531 0-0.65625-0.53125-1.0977-1.3594-1.0977-0.80469 0-1.3398 0.46094-1.3398 1.2031h0.83203c0-0.32812 0.20313-0.51953 0.50391-0.51953 0.29688 0 0.51172 0.18359 0.51172 0.48438 0 0.26953-0.16797 0.45703-0.46875 0.72266l-1.3242 1.1641z"/>
   <path d="m25.895 13.094c-0.17969-0.18359-0.47656-0.19141-0.66016-0.011719l-21.586 21.75-1.2812-1.3203-1.2617 4.4375 0.41797-0.10547 4.0547-1.0156-1.2773-1.3203 21.586-21.75c0.17969-0.18359 0.19141-0.47656 0.007812-0.66406z"/>
   <g clip-path="url(#clip27)">
    <path d="m49.316 20.863c-0.16016 0.20312-0.125 0.49609 0.078125 0.65625l16.816 13.512-1.1367 1.4453 4.5664 0.65625-0.16016-0.40234-1.5508-3.8828-1.1367 1.4492-16.816-13.512c-0.20312-0.16406-0.5-0.125-0.66016 0.078125z"/>
   </g>
  </g>
  <clipPath id="clip29">
   <path d="m6 0.67969h48.188v49.32h-48.188z"/>
  </clipPath>
  <clipPath id="clip30">
   <path d="m0.88672 7h32.113v49.844h-32.113z"/>
  </clipPath>
  <clipPath id="clip28">
   <rect width="55" height="57"/>
  </clipPath>
  <g id="surface26" clip-path="url(#clip28)">
   <g clip-path="url(#clip29)">
    <path d="m54.188 28.156c0 6.0352-2.4844 11.043-7.457 15.02-4.9688 3.9766-10.543 5.9648-16.719 5.9648-6.1094 0-11.574-1.8477-16.402-5.5391-4.7578-3.7656-7.1367-8.5938-7.1367-14.484 0-7.5273 3.6211-13.348 10.863-17.469 1.207-0.70703 2.9844-1.3477 5.3242-1.9141 2.4141-0.57031 4.1211-1.1016 5.1133-1.5977 0.49609-0.28516 0.74609-0.71094 0.74609-1.2812 0-0.92188-0.78125-1.9492-2.3438-3.0859-1.5625-1.207-2.3438-1.9883-2.3438-2.3438 0-0.49609 0.46094-0.74609 1.3867-0.74609 1.0625 0 2.8398 0.42578 5.3242 1.2773 2.5547 0.78125 3.832 1.5625 3.832 2.3438s-0.63672 2.0586-1.9141 3.8359c6.2461 0.92188 11.43 3.0156 15.547 6.2812 4.1211 3.2656 6.1797 7.8477 6.1797 13.738zm-7.7773 0.32031c0-4.7578-1.4883-8.6602-4.4727-11.715-2.9805-3.125-6.8516-4.6875-11.609-4.6875-4.6836 0-8.5547 1.5625-11.605 4.6875-2.9844 3.125-4.4766 7.0312-4.4766 11.715 0 4.5469 1.5273 8.4141 4.582 11.609 3.125 3.125 6.957 4.6875 11.5 4.6875 4.5469 0 8.3438-1.5625 11.398-4.6875 3.125-3.1953 4.6836-7.0625 4.6836-11.609z"/>
   </g>
   <path d="m20.16 8.9805c1.8867 0 3.4141-1.5273 3.4141-3.4141 0-1.8867-1.5273-3.418-3.4141-3.418-1.8867 0-3.418 1.5312-3.418 3.418 0 1.8867 1.5312 3.4141 3.418 3.4141zm0-0.53516c-1.5938 0-2.8789-1.2891-2.8789-2.8789 0-1.5938 1.2852-2.8828 2.8789-2.8828 1.5898 0 2.8789 1.2891 2.8789 2.8828 0 1.5898-1.2891 2.8789-2.8789 2.8789zm0.52734-4.6992h-0.8125l-0.89844 0.55859v0.76172l0.8125-0.5h0.023438v2.8164h0.875z"/>
   <g clip-path="url(#clip30)">
    <path d="m15.164 7.2188c-10.555 4.0312-15.801 15.977-13.891 26.91 1.8633 10.66 10.621 20.371 27.727 20.852v1.8594l3.9922-2.3047-0.375-0.21875-3.6172-2.0898v1.8164c-16.746-0.47266-25.008-9.8086-26.801-20.074-1.8398-10.535 3.2266-22.027 13.297-25.871 0.24219-0.09375 0.36328-0.36328 0.27344-0.60547-0.09375-0.24219-0.36328-0.36328-0.60547-0.26953z"/>
   </g>
  </g>
  <clipPath id="clip32">
   <path d="m0.43359 7h65.566v46h-65.566z"/>
  </clipPath>
  <clipPath id="clip33">
   <path d="m9 0.17578h7v7.8242h-7z"/>
  </clipPath>
  <clipPath id="clip34">
   <path d="m17 3h54.609v29h-54.609z"/>
  </clipPath>
  <clipPath id="clip35">
   <path d="m39 42h17v12.844h-17z"/>
  </clipPath>
  <clipPath id="clip31">
   <rect width="72" height="55"/>
  </clipPath>
  <g id="surface29" clip-path="url(#clip31)">
   <g clip-path="url(#clip32)">
    <path d="m65.188 49.371c0 1.7031-0.74609 2.5547-2.2383 2.5547-1.7031 0-5.5742-2.1641-11.609-6.4961-5.9648-4.3281-11.039-8.1992-15.23-11.609-0.63672 0.42578-2.4492 1.707-5.4297 3.8359-2.9844 2.0586-5.5039 3.7617-7.5625 5.1133-2.0586 1.2773-4.5078 2.7656-7.3477 4.4727-2.8398 1.6328-5.4336 2.9102-7.7773 3.832-2.3398 0.85156-4.3281 1.2773-5.9609 1.2773-1.0664 0-1.5977-0.28125-1.5977-0.85156 0-0.28125 0.63672-0.85156 1.9141-1.7031 1.2812-0.92188 2.7695-1.8828 4.4766-2.875 1.7734-1.0664 2.6953-1.6328 2.7656-1.7031 9.0898-5.7539 17.609-12.605 25.562-20.555 5.4688-5.4688 8.1992-9.0898 8.1992-10.863 0-0.5-0.88672-0.74609-2.6602-0.74609h-7.2422c-4.6875 0-7.668 0.35547-8.9492 1.0625-0.14062 0.074218-0.53125 0.32031-1.168 0.74609-0.64062 0.42578-1.1719 0.71094-1.5977 0.85156-0.42969 0.14453-0.89062 0.21484-1.3867 0.21484-1.2773 0-3.7266-0.78125-7.3477-2.3438-3.6211-1.6328-5.4336-2.9453-5.4336-3.9414 0-0.85156 0.46094-1.2773 1.3867-1.2773 0.49609 0 1.8086 0.17969 3.9414 0.53125 4.0469 0.57031 9.4766 0.85547 16.293 0.85547h11.82c0.92578 0 2.2383-0.32031 3.9414-0.96094 1.7031-0.63672 3.0195-0.95703 3.9414-0.95703 1.7734 0 3.9062 0.21094 6.3906 0.63672 2.4844 0.35547 3.7266 0.99609 3.7266 1.918 0 0.99609-1.0312 2.2031-3.0898 3.6211-1.6328 1.2773-3.3008 2.9453-5.0039 5.0078-2.8398 3.4062-6.6758 7.3125-11.504 11.715l5.6445 3.7266c1.1367 0.78125 2.9844 1.418 5.5391 1.918 2.6289 0.49609 4.5078 1.0977 5.6445 1.8086 2.0586 1.2773 4.0469 3.0195 5.9648 5.2188 1.9883 2.1289 2.9805 4.1172 2.9805 5.9648z"/>
   </g>
   <path d="m35.816 43.082c1.8906 0 3.418-1.5273 3.418-3.4141 0-1.8906-1.5273-3.418-3.418-3.418-1.8867 0-3.4141 1.5273-3.4141 3.418 0 1.8867 1.5273 3.4141 3.4141 3.4141zm0-0.53516c-1.5898 0-2.875-1.2891-2.875-2.8789 0-1.5938 1.2852-2.8828 2.875-2.8828 1.5938 0 2.8828 1.2891 2.8828 2.8828 0 1.5898-1.2891 2.8789-2.8828 2.8789zm-1.3164-1.0625h2.6914v-0.70703h-1.4727v-0.023438l0.43359-0.40234c0.78906-0.6875 0.99609-1.0352 0.99609-1.4531 0-0.65625-0.53516-1.1016-1.3594-1.1016-0.80469 0-1.3438 0.46484-1.3438 1.207h0.83594c0-0.32812 0.19922-0.51953 0.50391-0.51953 0.29688 0 0.51172 0.18359 0.51172 0.48438 0 0.26953-0.17188 0.45312-0.46875 0.72266l-1.3281 1.1602z"/>
   <g clip-path="url(#clip33)">
    <path d="m12.562 7.0078c1.8906 0 3.418-1.5273 3.418-3.418 0-1.8867-1.5273-3.4141-3.418-3.4141-1.8867 0-3.4141 1.5273-3.4141 3.4141 0 1.8906 1.5273 3.418 3.4141 3.418zm0-0.53516c-1.5898 0-2.875-1.2891-2.875-2.8828 0-1.5898 1.2852-2.8789 2.875-2.8789 1.5938 0 2.8828 1.2891 2.8828 2.8789 0 1.5938-1.2891 2.8828-2.8828 2.8828zm0.53125-4.6992h-0.81641l-0.89453 0.55859v0.75781l0.8125-0.49609h0.019532v2.8164h0.87891z"/>
   </g>
   <g clip-path="url(#clip34)">
    <path d="m17.996 3.1211c-0.25781 0-0.46875 0.21094-0.46875 0.46875 0 0.26172 0.21094 0.46875 0.46875 0.46875h51.5l-21.648 23.918-1.3633-1.2344-0.96875 4.5117 0.41016-0.13281 3.9805-1.2812-1.3633-1.2344 23.066-25.484z"/>
   </g>
   <g clip-path="url(#clip35)">
    <path d="m40.246 42.191c-0.125 0.015625-0.23438 0.082032-0.3125 0.17969-0.15625 0.20703-0.11328 0.5 0.089844 0.65625l12.195 9.7734-1.1133 1.4648 4.5781 0.57812-0.16797-0.40234-1.6172-3.8516-1.1133 1.4648-12.191-9.7734c-0.10156-0.074219-0.22656-0.10938-0.34766-0.089844z"/>
   </g>
  </g>
  <clipPath id="clip37">
   <path d="m0.85547 8h71.145v50h-71.145z"/>
  </clipPath>
  <clipPath id="clip38">
   <path d="m23 0.88281h8v7.1172h-8z"/>
  </clipPath>
  <clipPath id="clip39">
   <path d="m18 17h56.426v24h-56.426z"/>
  </clipPath>
  <clipPath id="clip40">
   <path d="m43 50h23v10.844h-23z"/>
  </clipPath>
  <clipPath id="clip36">
   <rect width="75" height="61"/>
  </clipPath>
  <g id="surface32" clip-path="url(#clip36)">
   <g clip-path="url(#clip37)">
    <path d="m47.184 13.188c0 1.707-1.457 2.5586-4.3672 2.5586h-11.926c-1.1367 0-3.0547-0.78125-5.7539-2.3438-2.625-1.5625-3.9414-2.8398-3.9414-3.8359 0-0.42578 0.35547-0.63672 1.0664-0.63672 0.99609 0 2.4492 0.24609 4.3672 0.74609 1.9883 0.49609 3.4805 0.74219 4.4727 0.74219h10.543c3.6914 0 5.5391 0.92578 5.5391 2.7695zm24.707 39.301c0 1.6328-0.81641 2.4492-2.4492 2.4492-1.2773 0-11.535-4.082-30.777-12.246-16.828 9.6562-29.039 14.484-36.637 14.484-0.78125 0-1.1719-0.28516-1.1719-0.85156 0-0.28516 0.25-0.57031 0.74609-0.85156 0.56641-0.28516 1.2773-0.60547 2.1289-0.96094l1.3867-0.42578c7.0977-2.5547 14.91-6.5664 23.43-12.035 11.359-7.3125 17.039-12.176 17.039-14.59 0-0.56641-0.39063-0.85156-1.1719-0.85156h-9.9023c-5.1836 0-9.4102 0.74609-12.676 2.2344-1.1367 0.57031-2.0234 0.85547-2.6602 0.85547-0.99609 0-3.3047-0.81641-6.9258-2.4492-3.5469-1.707-5.3242-2.8789-5.3242-3.5156 0-0.71094 0.49609-1.0664 1.4922-1.0664 1.6328 0 4.082 0.14453 7.3477 0.42578 3.2656 0.21484 5.7148 0.32031 7.3477 0.32031 2.4141 0 6.0742-0.035156 10.973-0.10547 4.8984-0.070313 8.5898-0.10938 11.074-0.10938 0.78125 0 2.0234-0.28125 3.7305-0.85156 1.7031-0.63672 3.1562-0.95703 4.3633-0.95703 5.5391 0 8.3086 0.99219 8.3086 2.9805 0 0.92578-2.5898 3.375-7.7734 7.3516-5.1836 3.9766-9.3008 6.957-12.355 8.9453 1.3477 0.42578 2.6641 0.85156 3.9414 1.2773 1.2773 0.42578 2.4844 0.78125 3.6211 1.0664 1.207 0.28125 2.4844 0.53125 3.832 0.74609 1.3516 0.14063 2.7344 0.21094 4.1562 0.21094 1.4883 0 4.3281 1.1367 8.5195 3.4102 4.2578 2.1992 6.3906 3.9023 6.3906 5.1094z"/>
   </g>
   <g clip-path="url(#clip38)">
    <path d="m26.629 7.7148c1.8867 0 3.418-1.5273 3.418-3.4141s-1.5312-3.418-3.418-3.418c-1.8867 0-3.418 1.5273-3.418 3.418 0 1.8867 1.5312 3.4141 3.418 3.4141zm0-0.53516c-1.5898 0-2.8789-1.2891-2.8789-2.8789 0-1.5938 1.2891-2.8828 2.8789-2.8828s2.8789 1.2891 2.8789 2.8828c0 1.5898-1.2891 2.8789-2.8789 2.8789zm0.52734-4.6992h-0.8125l-0.89844 0.55859v0.76172l0.8125-0.5h0.023438v2.8164h0.875z"/>
   </g>
   <path d="m13.879 21.59c1.8867 0 3.418-1.5273 3.418-3.4141 0-1.8906-1.5312-3.418-3.418-3.418-1.8867 0-3.418 1.5273-3.418 3.418 0 1.8867 1.5312 3.4141 3.418 3.4141zm0-0.53516c-1.5898 0-2.8789-1.2891-2.8789-2.8789 0-1.5938 1.2891-2.8828 2.8789-2.8828s2.8789 1.2891 2.8789 2.8828c0 1.5898-1.2891 2.8789-2.8789 2.8789zm-1.3164-1.0625h2.6914v-0.70703h-1.4727v-0.023437l0.43359-0.40234c0.78906-0.6875 0.99219-1.0352 0.99219-1.4531 0-0.65625-0.53125-1.0977-1.3594-1.0977-0.80469 0-1.3398 0.46094-1.3398 1.2031h0.83203c0-0.32812 0.20312-0.51953 0.50391-0.51953 0.29688 0 0.51172 0.18359 0.51172 0.48437 0 0.26953-0.16797 0.45313-0.46875 0.72266l-1.3242 1.1602z"/>
   <path d="m38.758 52.191c1.8867 0 3.4141-1.5312 3.4141-3.418 0-1.8867-1.5273-3.4141-3.4141-3.4141-1.8906 0-3.418 1.5273-3.418 3.4141 0 1.8867 1.5273 3.418 3.418 3.418zm0-0.53516c-1.5938 0-2.8789-1.2891-2.8789-2.8828 0-1.5898 1.2852-2.8789 2.8789-2.8789 1.5898 0 2.8789 1.2891 2.8789 2.8789 0 1.5938-1.2891 2.8828-2.8789 2.8828zm-0.015624-1.0156c0.85547 0 1.4609-0.44922 1.457-1.082 0.003906-0.44531-0.28906-0.76562-0.85156-0.83203v-0.027343c0.42188-0.0625 0.71875-0.34375 0.71875-0.75391 0-0.58984-0.53516-1.0391-1.3164-1.0391-0.78516 0-1.3555 0.45312-1.3633 1.1016h0.83984c0.007813-0.25 0.23047-0.41406 0.52344-0.41406 0.28125 0 0.46875 0.16797 0.46875 0.41016 0 0.25391-0.22266 0.42578-0.54688 0.42578h-0.35156v0.625h0.35156c0.36719 0 0.60938 0.17969 0.60547 0.4375 0.003906 0.25781-0.21875 0.4375-0.53125 0.4375-0.30859 0-0.53906-0.16797-0.54688-0.40625h-0.88281c0.003906 0.65625 0.59766 1.1172 1.4258 1.1172z"/>
   <path d="m40.293 1.9922v1.8398h-8.043c-0.26172 0-0.46875 0.21094-0.46875 0.46875 0 0.25781 0.20703 0.46875 0.46875 0.46875h8.043v1.8398l3.9961-2.3086-0.375-0.21875z"/>
   <g clip-path="url(#clip39)">
    <path d="m19.312 17.707c-0.26172 0-0.46875 0.20703-0.46875 0.46875 0 0.25781 0.20703 0.46875 0.46875 0.46875h53l-19.621 18.543-1.3672-1.2344-0.96875 4.5078 0.41406-0.13281 3.9805-1.2773-1.3672-1.2344 21.043-20.109z"/>
   </g>
   <g clip-path="url(#clip40)">
    <path d="m43.891 50.207c-0.058594-0.003906-0.12109 0.007813-0.17969 0.027344-0.11719 0.042969-0.21094 0.13281-0.26172 0.24609-0.10938 0.23438-0.007813 0.51172 0.23047 0.62109l17.539 8.0703-0.76953 1.6719 4.5938-0.42969-0.25-0.35547-2.4141-3.4102-0.76562 1.6719-17.543-8.0703c-0.054687-0.027344-0.11719-0.039062-0.17969-0.042969z"/>
   </g>
  </g>
  <clipPath id="clip42">
   <path d="m0.94531 9h82.055v65h-82.055z"/>
  </clipPath>
  <clipPath id="clip43">
   <path d="m5 0.17969h10v9.8203h-10z"/>
  </clipPath>
  <clipPath id="clip44">
   <path d="m16 4h74.508v61h-74.508z"/>
  </clipPath>
  <clipPath id="clip41">
   <rect width="91" height="74"/>
  </clipPath>
  <g id="surface35" clip-path="url(#clip41)">
   <g clip-path="url(#clip42)">
    <path d="m82.906 13.406c0 0.75-0.46875 1.8281-1.4062 3.2344-0.84375 1.4062-1.3125 2.5312-1.4062 3.375-0.75 6.5625-1.8281 13.496-3.2344 20.809-1.4062 7.2148-3.5156 13.918-6.3281 20.102-3.9336 8.7148-7.0742 13.074-9.418 13.074-0.65625 0-0.98438-0.375-0.98438-1.125 0-0.9375 0.14062-1.8281 0.42188-2.6719 3.5625-12.559 5.9062-22.633 7.0312-30.223-2.625 0.28125-6.375 0.65625-11.25 1.1211-4.7773 0.375-9.1836 0.79688-13.211 1.2695-3.9375 0.375-7.6406 0.83984-11.109 1.4023-1.1211 0.1875-3.2305 0.9375-6.3242 2.25-3 1.3125-4.7812 1.9688-5.3438 1.9688-1.875 0-5.5742-1.125-11.105-3.375-5.5273-2.2461-8.293-4.0742-8.293-5.4805 0-1.125 0.79688-1.6875 2.3867-1.6875 0.5625 0 1.3125 0.09375 2.25 0.28125 2.4375 0.375 6.0938 0.5625 10.969 0.5625 5.1523 0 10.449-0.14062 15.883-0.42188 5.4375-0.28125 11.996-0.70312 19.684-1.2656 7.7773-0.65625 13.074-1.0781 15.887-1.2656 0.18359-2.0625 0.375-5.1562 0.55859-9.2773 0.1875-4.125 0.37891-7.2188 0.5625-9.2812h-28.676c-6.4688 0-10.641 0.42188-12.512 1.2656-0.5625 0.1875-1.3125 0.5625-2.25 1.125s-1.8281 1.0312-2.6719 1.4062c-0.75 0.28125-1.5469 0.42188-2.3906 0.42188-1.5938 0-5.1055-1.1719-10.543-3.5156-5.3438-2.3398-8.0156-4.0742-8.0156-5.1992 0-0.9375 0.70703-1.4062 2.1094-1.4062 0.09375 0 1.9688 0.14062 5.625 0.42188 9.5586 0.75 18.605 1.125 27.133 1.125h23.055c1.4062 0 3.3281-0.42188 5.7656-1.2656 2.5312-0.84375 4.4492-1.2656 5.7617-1.2656 7.5938 0 11.387 1.1719 11.387 3.5156z"/>
   </g>
   <g clip-path="url(#clip43)">
    <path d="m10.156 9.1953c2.4922 0 4.5117-2.0156 4.5117-4.5078s-2.0195-4.5078-4.5117-4.5078-4.5078 2.0156-4.5078 4.5078 2.0156 4.5078 4.5078 4.5078zm0-0.70703c-2.1016 0-3.8008-1.7031-3.8008-3.8008 0-2.1016 1.6992-3.8008 3.8008-3.8008 2.0977 0 3.8008 1.6992 3.8008 3.8008 0 2.0977-1.7031 3.8008-3.8008 3.8008zm0.69922-6.1992h-1.0781l-1.1836 0.73438v1.0039l1.0742-0.65625h0.027343v3.7148h1.1602z"/>
   </g>
   <path d="m10.156 58.203c2.4922 0 4.5117-2.0195 4.5117-4.5117 0-2.4922-2.0195-4.5078-4.5117-4.5078s-4.5078 2.0156-4.5078 4.5078c0 2.4922 2.0156 4.5117 4.5078 4.5117zm0-0.71094c-2.1016 0-3.8008-1.6992-3.8008-3.8008 0-2.0977 1.6992-3.8008 3.8008-3.8008 2.0977 0 3.8008 1.7031 3.8008 3.8008 0 2.1016-1.7031 3.8008-3.8008 3.8008zm-1.7383-1.3984h3.5508v-0.9375h-1.9453v-0.027344l0.57422-0.53125c1.043-0.90625 1.3125-1.3711 1.3125-1.918 0-0.86719-0.70312-1.4531-1.793-1.4531-1.0625 0-1.7734 0.61328-1.7695 1.5898h1.0977c0-0.43359 0.26953-0.68359 0.66797-0.68359 0.39062 0 0.67188 0.24219 0.67188 0.63672 0 0.35938-0.22266 0.60156-0.61719 0.95703l-1.75 1.5312z"/>
   <g clip-path="url(#clip44)">
    <path d="m17.172 4.0703c-0.33984 0-0.61719 0.27734-0.61719 0.61719 0 0.34375 0.27734 0.62109 0.61719 0.62109h69.672v53.688h-2.4297l3.0508 5.2734 0.28516-0.49609 2.7578-4.7773h-2.4258v-54.926z"/>
   </g>
   <path d="m56.59 43.816 0.21094 2.418-39.688 6.1562c-0.33984 0.027344-0.59375 0.32812-0.5625 0.66797 0.027344 0.33984 0.32812 0.59375 0.66797 0.5625l39.688-6.1523 0.21094 2.418 4.9883-3.4883-0.51953-0.24219z"/>
  </g>
  <clipPath id="clip46">
   <path d="m0.75781 11h82.52v60h-82.52z"/>
  </clipPath>
  <clipPath id="clip47">
   <path d="m1 0.74609h10v9.2539h-10z"/>
  </clipPath>
  <clipPath id="clip45">
   <rect width="84" height="79"/>
  </clipPath>
  <g id="surface38" clip-path="url(#clip45)">
   <g clip-path="url(#clip46)">
    <path d="m83.277 66.059c0 2.8125-2.5312 4.2188-7.5898 4.2188-5.1562 0-12.84-0.046875-23.059-0.14062-10.215-0.09375-17.852-0.14062-22.914-0.14062-11.996 0-17.992-4.7812-17.992-14.34v-29.805c0-2.7148-0.9375-4.875-2.8125-6.4648-1.7812-1.5938-3.6094-2.7188-5.4844-3.375-1.7773-0.75-2.668-1.4062-2.668-1.9688 0-1.5 1.9648-2.25 5.9023-2.25 2.1562 0 5.3438 0.51562 9.5625 1.5469 4.2148 1.0312 7.4023 1.5469 9.5586 1.5469h27.836c2.2461 0 4.8242-0.60938 7.7305-1.8281s4.9219-1.8281 6.0469-1.8281c8.8086 0 13.215 1.4062 13.215 4.2188 0 2.7188-2.4375 4.0781-7.3125 4.0781-1.8711 0-4.7773-0.046875-8.7148-0.14062s-6.8398-0.14062-8.7148-0.14062h-29.523c-1.4062 0-2.4375 0.09375-3.0938 0.28125-0.65625 0.09375-1.2656 0.46875-1.8281 1.125-0.46875 0.5625-0.70312 1.5-0.70312 2.8086v15.324h33.32c2.7148 0 5.293-0.51562 7.7305-1.5469 2.4375-1.0273 3.9844-1.543 4.6406-1.543 8.3398 0 12.512 1.5 12.512 4.4961 0 2.3438-2.2969 3.5156-6.8906 3.5156-1.5938 0-3.8867-0.046875-6.8867-0.14062-3-0.1875-5.2969-0.28125-6.8867-0.28125h-37.539v12.371c0 3.375 0.65625 5.8594 1.9688 7.4531 1.4062 1.5898 3.7461 2.3867 7.0273 2.3867h26.711c1.6875 0 3.9844-0.55859 6.8906-1.6875 2.9062-1.1211 5.1055-1.6836 6.6055-1.6836 8.9062 0 13.355 1.3125 13.355 3.9336z"/>
   </g>
   <path d="m5.7891 30.195c2.4883 0 4.5078-2.0156 4.5078-4.5078s-2.0195-4.5117-4.5078-4.5117c-2.4922 0-4.5117 2.0195-4.5117 4.5117s2.0195 4.5078 4.5117 4.5078zm0-0.70703c-2.1016 0-3.8008-1.7031-3.8008-3.8008 0-2.1016 1.6992-3.8008 3.8008-3.8008 2.0977 0 3.8008 1.6992 3.8008 3.8008 0 2.0977-1.7031 3.8008-3.8008 3.8008zm-0.019531-1.3359c1.125 0 1.9258-0.59766 1.9219-1.4297 0.003906-0.58984-0.38281-1.0117-1.125-1.1016v-0.035156c0.55469-0.082032 0.94922-0.45313 0.94922-0.99219 0-0.78125-0.70703-1.375-1.7344-1.375-1.0352 0-1.7891 0.60156-1.8008 1.4531h1.1094c0.007812-0.32812 0.30469-0.54688 0.69141-0.54688 0.36719 0 0.61719 0.22266 0.61719 0.54297 0 0.33203-0.29297 0.5625-0.72266 0.5625h-0.46484v0.82422h0.46484c0.48828 0 0.80469 0.24219 0.79688 0.57812 0.007813 0.33984-0.28516 0.57813-0.69531 0.57813s-0.71484-0.21875-0.72656-0.53516h-1.168c0.011719 0.86719 0.79297 1.4766 1.8867 1.4766z"/>
   <path d="m27.07 53.82c2.4922 0 4.5117-2.0195 4.5117-4.5117 0-2.4922-2.0195-4.5078-4.5117-4.5078-2.4883 0-4.5078 2.0156-4.5078 4.5078 0 2.4922 2.0195 4.5117 4.5078 4.5117zm0-0.71094c-2.0977 0-3.7969-1.6992-3.7969-3.8008 0-2.0977 1.6992-3.8008 3.7969-3.8008 2.1016 0 3.8047 1.7031 3.8047 3.8008 0 2.1016-1.7031 3.8008-3.8047 3.8008zm-1.7383-1.3984h3.5547v-0.9375h-1.9453v-0.027344l0.57422-0.53125c1.0391-0.90625 1.3125-1.3711 1.3125-1.918 0-0.86719-0.70703-1.4531-1.7969-1.4531-1.0586 0-1.7695 0.61328-1.7695 1.5898h1.1016c0-0.43359 0.26562-0.68359 0.66406-0.68359 0.39062 0 0.67578 0.24219 0.67578 0.63672 0 0.35938-0.22656 0.60156-0.62109 0.95703l-1.75 1.5312z"/>
   <g clip-path="url(#clip47)">
    <path d="m5.7891 9.7617c2.4883 0 4.5078-2.0156 4.5078-4.5078 0-2.4922-2.0195-4.5078-4.5078-4.5078-2.4922 0-4.5117 2.0156-4.5117 4.5078 0 2.4922 2.0195 4.5078 4.5117 4.5078zm0-0.70703c-2.1016 0-3.8008-1.6992-3.8008-3.8008 0-2.0977 1.6992-3.8008 3.8008-3.8008 2.0977 0 3.8008 1.7031 3.8008 3.8008 0 2.1016-1.7031 3.8008-3.8008 3.8008zm0.69531-6.1992h-1.0742l-1.1836 0.73438v1.0039l1.0742-0.65625h0.027344v3.7188h1.1562z"/>
   </g>
   <path d="m71.938 2.207v2.4297h-58.633c-0.34375 0-0.62109 0.27734-0.62109 0.61719 0 0.34375 0.27734 0.62109 0.62109 0.62109h58.633v2.4258l4.7773-3.0469v-0.28516z"/>
   <path d="m71.938 46.262v2.4297h-37.348c-0.34375 0-0.62109 0.27734-0.62109 0.61719 0 0.34375 0.27734 0.62109 0.62109 0.62109h37.348v2.4258l4.7773-3.0469v-0.28516z"/>
   <path d="m5.7891 32.211c-0.34375 0-0.62109 0.27734-0.62109 0.62109v43.738h66.77v2.4297l4.7773-3.0469v-0.28516l-4.7773-2.7617v2.4297h-65.531v-42.504c0-0.34375-0.27734-0.62109-0.61719-0.62109z"/>
  </g>
  <clipPath id="clip49">
   <path d="m0.52344 9h84.773v63h-84.773z"/>
  </clipPath>
  <clipPath id="clip50">
   <path d="m3 0.69922h10v9.3008h-10z"/>
  </clipPath>
  <clipPath id="clip48">
   <rect width="86" height="81"/>
  </clipPath>
  <g id="surface41" clip-path="url(#clip48)">
   <g clip-path="url(#clip49)">
    <path d="m82.766 14.559c0 2.5273-1.7812 3.793-5.3398 3.793-2.625 0-6.5156-0.14062-11.672-0.41797-5.1523-0.375-8.9961-0.5625-11.527-0.5625h-16.59c-7.1211 0-11.668 0.46875-13.637 1.4023-0.375 0.19141-0.9375 0.51562-1.6836 0.98828-0.75 0.46484-1.4531 0.83984-2.1094 1.1211-0.5625 0.1875-1.1719 0.28125-1.8281 0.28125-1.6875 0-4.9219-1.1719-9.6992-3.5117-4.7812-2.4375-7.1719-4.3125-7.1719-5.625 0-0.75 0.65625-1.125 1.9688-1.125 0.75 0 1.5 0.046875 2.25 0.14062s1.5938 0.23438 2.5312 0.42188c0.9375 0.09375 1.6836 0.1875 2.25 0.28125 7.3086 0.84375 15.883 1.2656 25.723 1.2656h14.34c5.3438 0 9.8438-0.65625 13.496-1.9688 2.1562-0.84375 4.0781-1.2656 5.7656-1.2656 8.6211 0 12.934 1.5938 12.934 4.7812zm2.5312 50.609c0 2.3438-1.6875 3.5117-5.0625 3.5117-2.8086 0-7.0742-0.14063-12.793-0.42188-5.7148-0.375-9.9805-0.55859-12.793-0.55859h-18.695c-6.8438 0-11.574 0.69922-14.199 2.1055-2.625 1.3125-4.1719 1.9688-4.6406 1.9688-1.4062 0-4.543-1.1719-9.418-3.5156-4.7812-2.4336-7.1719-4.168-7.1719-5.1992 0-0.84375 0.70312-1.2656 2.1094-1.2656 0.75 0 1.7812 0.09375 3.0938 0.28125 7.125 0.84375 15.418 1.2656 24.883 1.2656h19.258c0.097656-0.1875 1.1719-3 3.2344-8.4336 2.0625-5.4375 3.7031-10.031 4.9219-13.777 1.3125-3.8438 1.9688-6.375 1.9688-7.5938 0-1.3125-1.3594-2.9492-4.0781-4.918-2.625-1.9688-3.9375-3.2344-3.9375-3.7969 0-1.125 1.1719-1.6875 3.5156-1.6875 1.9688 0 5.25 0.89063 9.8438 2.6719 4.5898 1.7812 6.8867 3.418 6.8867 4.918-2.0625 3.1875-4.125 6.7031-6.1875 10.547-2.0625 3.8398-3.8867 7.4961-5.4805 10.965-1.5938 3.375-3.3281 7.0742-5.2031 11.105h3.6562c3 0 5.7148-0.46875 8.1523-1.4062 2.4375-1.0312 4.4531-1.5469 6.0469-1.5469 8.0586 0 12.09 1.5938 12.09 4.7812zm-51.176-13.496c0 6.6523-1.8242 9.9805-5.4805 9.9805-0.9375 0-1.7344-0.70312-2.3906-2.1094-0.65625-1.5-1.125-2.9531-1.4062-4.3555-0.1875-1.4062-0.42188-3.1875-0.70312-5.3438-0.1875-2.25-0.28125-3.4219-0.28125-3.5156-0.65625-4.5-3.1406-10.121-7.4492-16.871-1.3125-2.1523-1.9688-3.2773-1.9688-3.3711 0-0.65625 0.32812-0.98438 0.98438-0.98438 0.46875 0 1.3594 0.51563 2.6719 1.5469 4.3086 3.4648 8.0586 7.4492 11.246 11.949 3.1875 4.4023 4.7773 8.7617 4.7773 13.074z"/>
   </g>
   <path d="m7.5469 81c2.4883 0 4.5078-2.0195 4.5078-4.5117 0-2.4883-2.0195-4.5078-4.5078-4.5078-2.4922 0-4.5117 2.0195-4.5117 4.5078 0 2.4922 2.0195 4.5117 4.5117 4.5117zm0-0.70703c-2.1016 0-3.8008-1.7031-3.8008-3.8047 0-2.0977 1.6992-3.8008 3.8008-3.8008 2.0977 0 3.8008 1.7031 3.8008 3.8008 0 2.1016-1.7031 3.8047-3.8008 3.8047zm-2.2461-2.1992h2.3203v0.79688h1.1055v-0.79688h0.57813v-0.91406h-0.57813v-3.0898h-1.457l-1.9688 3.0977zm2.3438-0.91406h-1.1875v-0.035157l1.1484-1.8242h0.039062z"/>
   <path d="m78.914 35.934c2.4922 0 4.5078-2.0156 4.5078-4.5078 0-2.4922-2.0156-4.5078-4.5078-4.5078-2.4922 0-4.5078 2.0156-4.5078 4.5078 0 2.4922 2.0156 4.5078 4.5078 4.5078zm0-0.70703c-2.1016 0-3.8008-1.6992-3.8008-3.8008 0-2.1016 1.6992-3.8008 3.8008-3.8008 2.1016 0 3.8008 1.6992 3.8008 3.8008 0 2.1016-1.6992 3.8008-3.8008 3.8008zm-0.015624-1.3359c1.125 0 1.9219-0.59375 1.9219-1.4297 0-0.58984-0.38672-1.0117-1.125-1.0977v-0.039062c0.55469-0.078125 0.94922-0.45312 0.94531-0.98828 0.003906-0.78516-0.70312-1.375-1.7344-1.375-1.0352 0-1.7891 0.60156-1.8008 1.4531h1.1094c0.011718-0.32812 0.30469-0.55078 0.69141-0.55078 0.36719 0 0.62109 0.22656 0.61719 0.54688 0.003906 0.33203-0.29297 0.5625-0.71875 0.5625h-0.46484v0.82422h0.46484c0.48437 0 0.80078 0.23828 0.79687 0.57812 0.003907 0.33594-0.28516 0.57422-0.69922 0.57422-0.41016 0-0.71094-0.21875-0.72266-0.53516h-1.168c0.007812 0.86719 0.78906 1.4766 1.8867 1.4766z"/>
   <path d="m8.7461 35.934c2.4922 0 4.5078-2.0156 4.5078-4.5078 0-2.4922-2.0156-4.5078-4.5078-4.5078-2.4922 0-4.5117 2.0156-4.5117 4.5078 0 2.4922 2.0195 4.5078 4.5117 4.5078zm0-0.70703c-2.1016 0-3.8008-1.6992-3.8008-3.8008 0-2.1016 1.6992-3.8008 3.8008-3.8008 2.0977 0 3.8008 1.6992 3.8008 3.8008 0 2.1016-1.7031 3.8008-3.8008 3.8008zm-1.7383-1.4023h3.5508v-0.93359h-1.9453v-0.03125l0.57422-0.52734c1.043-0.91016 1.3125-1.3711 1.3125-1.9219 0-0.86328-0.70312-1.4492-1.793-1.4492-1.0625 0-1.7734 0.60937-1.7695 1.5898h1.0977c0-0.43359 0.26953-0.6875 0.66797-0.6875 0.39062 0 0.67188 0.24219 0.67188 0.64062 0 0.35938-0.22266 0.60156-0.61719 0.95312l-1.75 1.5352z"/>
   <g clip-path="url(#clip50)">
    <path d="m7.5469 9.7188c2.4883 0 4.5078-2.0156 4.5078-4.5078 0-2.4922-2.0195-4.5117-4.5078-4.5117-2.4922 0-4.5117 2.0195-4.5117 4.5117 0 2.4922 2.0195 4.5078 4.5117 4.5078zm0-0.70703c-2.1016 0-3.8008-1.7031-3.8008-3.8008 0-2.1016 1.6992-3.8008 3.8008-3.8008 2.0977 0 3.8008 1.6992 3.8008 3.8008 0 2.0977-1.7031 3.8008-3.8008 3.8008zm0.69531-6.2031h-1.0742l-1.1836 0.73828v1.0039l1.0742-0.65625h0.027344v3.7148h1.1562z"/>
   </g>
   <path d="m58.75 2.1641v2.4258h-43.789c-0.33984 0-0.61719 0.27734-0.61719 0.62109 0 0.33984 0.27734 0.61719 0.61719 0.61719h43.789v2.4297l5.2695-3.0469-0.49609-0.28516z"/>
   <path d="m11.301 37.191c-0.082031-0.011718-0.16406-0.003906-0.24219 0.019532-0.32812 0.09375-0.51953 0.4375-0.42578 0.76562l4.9648 15.637-2.3359 0.66797 4.3789 4.2305 0.13672-0.55469 1.3438-5.3516-2.3359 0.66797-4.9609-15.637c-0.070313-0.24219-0.27344-0.41797-0.52344-0.44531z"/>
   <path d="m75.215 37.5c0-0.082031 0.16016 0.027344 0.23438 0.0625 0.30469 0.14844 0.43359 0.51953 0.28125 0.82812l-8.1602 15 2.1758 1.0703-5.0586 3.3867-0.039062-0.57031-0.36719-5.5078 2.1797 1.0742 8.1562-15c0.11328-0.22656 0.59766-0.09375 0.59766-0.34375z"/>
   <path d="m75.082 73.445v2.4258h-60.121c-0.33984 0-0.61719 0.27734-0.61719 0.61719 0 0.34375 0.27734 0.62109 0.61719 0.62109h60.121v2.4297l5.2734-3.0508-0.49609-0.28125z"/>
  </g>
  <clipPath id="clip52">
   <path d="m9 11h88.633v72h-88.633z"/>
  </clipPath>
  <clipPath id="clip53">
   <path d="m35 0.72656h10v9.2734h-10z"/>
  </clipPath>
  <clipPath id="clip54">
   <path d="m0.54297 18h9.457v10h-9.457z"/>
  </clipPath>
  <clipPath id="clip51">
   <rect width="98" height="92"/>
  </clipPath>
  <g id="surface44" clip-path="url(#clip51)">
   <g clip-path="url(#clip52)">
    <path d="m64.172 13.211c4.9688 0 7.4531 1.1719 7.4531 3.5156s-2.0156 3.5156-6.0469 3.5156h-18.555c-2.5312 0-5.6719-0.84375-9.4219-2.5312-3.6562-1.7812-5.4844-3.75-5.4844-5.9062 0.375-0.375 0.70703-0.5625 0.98437-0.5625 1.4062 0 3.4219 0.32812 6.0469 0.98437s4.6406 0.98438 6.0469 0.98438zm33.461 17.574c0 2.5273-2.1562 3.793-6.4688 3.793-4.5898 0-11.48-0.18359-20.664-0.55859s-16.074-0.56641-20.668-0.56641c-8.1523 0-13.637 0.75-16.449 2.25-2.7148 1.5-4.4961 2.25-5.3398 2.25-1.4062 0-4.8281-1.2656-10.262-3.793-5.4375-2.5312-8.1562-4.2656-8.1562-5.2031 0-1.0312 0.98438-1.5469 2.9531-1.5469 1.125 0 1.9688 0.046875 2.5312 0.14062 9.0898 0.9375 18.605 1.4062 28.539 1.4062h24.18c2.5312 0 5.4336-0.46875 8.7148-1.4062 3.375-1.0312 6.375-1.5469 9-1.5469 8.0586 0 12.09 1.5938 12.09 4.7812zm-16.871 31.633c0 6.0898-2.7656 11.012-8.293 14.758-5.4375 3.75-11.344 5.625-17.715 5.625-6.375 0-12.324-1.7812-17.855-5.3438-5.5273-3.5586-8.293-8.3398-8.293-14.34 0-2.7148 0.42188-5.1055 1.2656-7.168 0.9375-2.1562 2.1562-3.8438 3.6562-5.0625 1.4961-1.3125 3.1836-2.4844 5.0586-3.5117 1.9688-1.125 4.0312-1.9688 6.1875-2.5312 2.25-0.65625 4.4961-1.3594 6.7461-2.1094 0.84375-0.28125 1.2656-0.79688 1.2656-1.5469 0-0.84375-0.42188-1.7344-1.2656-2.6719s-1.5938-1.6875-2.25-2.25v-0.13672c0.28125-0.28125 0.65625-0.42188 1.125-0.42188 1.125 0 3 0.42188 5.625 1.2617 2.625 0.84375 3.9375 1.6875 3.9375 2.5312s-0.79688 1.9219-2.3906 3.2344c3.375 0.65625 6.2305 1.3594 8.5742 2.1094s4.7344 1.875 7.1719 3.375c2.4336 1.4023 4.2617 3.3242 5.4805 5.7617 1.3125 2.3438 1.9688 5.1562 1.9688 8.4375zm-9-0.28125c0-4.5-1.7305-8.1094-5.1992-10.828-3.375-2.8086-7.3555-4.2188-11.949-4.2188s-8.5742 1.4102-11.949 4.2188c-3.375 2.7188-5.0625 6.3281-5.0625 10.828 0 4.4023 1.6875 8.0117 5.0625 10.824 3.4648 2.7188 7.4492 4.0742 11.949 4.0742 4.4023 0 8.3398-1.4062 11.809-4.2148 3.5625-2.8125 5.3398-6.375 5.3398-10.684z"/>
   </g>
   <g clip-path="url(#clip53)">
    <path d="m40.422 9.7461c2.4922 0 4.5117-2.0156 4.5117-4.5078 0-2.4922-2.0195-4.5117-4.5117-4.5117s-4.5078 2.0195-4.5078 4.5117c0 2.4922 2.0156 4.5078 4.5078 4.5078zm0-0.70703c-2.1016 0-3.8008-1.7031-3.8008-3.8008 0-2.1016 1.6992-3.8008 3.8008-3.8008 2.0977 0 3.8008 1.6992 3.8008 3.8008 0 2.0977-1.6992 3.8008-3.8008 3.8008zm0.69922-6.2031h-1.0742l-1.1875 0.73828v1.0039l1.0742-0.66016h0.027344v3.7188h1.1602z"/>
   </g>
   <g clip-path="url(#clip54)">
    <path d="m5.0508 27.199c2.4922 0 4.5117-2.0195 4.5117-4.5078 0-2.4922-2.0195-4.5117-4.5117-4.5117-2.4883 0-4.5078 2.0195-4.5078 4.5117 0 2.4883 2.0156 4.5078 4.5078 4.5078zm0-0.70703c-2.0977 0-3.7969-1.7031-3.7969-3.8008 0-2.1016 1.6992-3.8008 3.7969-3.8008 2.1016 0 3.8047 1.6992 3.8047 3.8008 0 2.0977-1.7031 3.8008-3.8047 3.8008zm-1.7383-1.4023h3.5547v-0.93359h-1.9453v-0.03125l0.57422-0.52734c1.0391-0.91016 1.3125-1.3711 1.3125-1.9219 0-0.86328-0.70703-1.4492-1.7969-1.4492-1.0586 0-1.7695 0.60938-1.7695 1.5859h1.1016c0-0.43359 0.26562-0.68359 0.66406-0.68359 0.39063 0 0.67578 0.24219 0.67578 0.63672 0 0.35938-0.22656 0.60547-0.62109 0.95703l-1.75 1.5352z"/>
   </g>
   <path d="m42.898 43.902c2.4883 0 4.5078-2.0195 4.5078-4.5117s-2.0195-4.5078-4.5078-4.5078c-2.4922 0-4.5117 2.0156-4.5117 4.5078s2.0195 4.5117 4.5117 4.5117zm0-0.70703c-2.1016 0-3.8008-1.7031-3.8008-3.8047 0-2.0977 1.6992-3.8008 3.8008-3.8008 2.0977 0 3.8008 1.7031 3.8008 3.8008 0 2.1016-1.7031 3.8047-3.8008 3.8047zm-0.015626-1.3359c1.1211 0 1.9219-0.59766 1.9219-1.4297 0-0.59375-0.38672-1.0156-1.1289-1.1016v-0.035156c0.55859-0.082031 0.94922-0.45312 0.94922-0.99219 0-0.78516-0.70703-1.375-1.7344-1.375-1.0352 0-1.793 0.60156-1.8008 1.4531h1.1094c0.007812-0.32812 0.30469-0.54688 0.69141-0.54688 0.36719 0 0.61719 0.22266 0.61719 0.54297 0 0.33203-0.29297 0.5625-0.72266 0.5625h-0.46484v0.82422h0.46484c0.48438 0 0.80469 0.23828 0.79688 0.57812 0.007813 0.33984-0.28516 0.57422-0.69531 0.57422-0.41016 0-0.71484-0.21484-0.72656-0.53516h-1.168c0.011718 0.87109 0.79297 1.4805 1.8906 1.4805z"/>
   <path d="m62.266 2.1914v2.4258h-14.578c-0.34375 0-0.62109 0.27734-0.62109 0.62109 0 0.33984 0.27734 0.61719 0.62109 0.61719h14.578v2.4297l5.2734-3.0469-0.49609-0.28906z"/>
   <path d="m73.922 19.645v2.4297h-61.605c-0.34375 0-0.61719 0.27344-0.61719 0.61719 0 0.33984 0.27344 0.61719 0.61719 0.61719h61.605v2.4297l5.2695-3.0469-0.49219-0.28516z"/>
   <path d="m36.43 41.465c-0.16406-0.03125-0.33203 0-0.46875 0.089844-6.8867 4.5078-11.164 9.6133-13.156 14.812-1.9883 5.2031-1.6719 10.488 0.5625 15.234 4.2969 9.1523 15.578 16.324 30.938 17.949l-0.1875 2.4492 5.4883-2.6328-0.46875-0.32422-4.5508-3.1211-0.1875 2.3945c-15.016-1.6016-25.867-8.6289-29.91-17.242-2.1016-4.4688-2.4023-9.3633-0.52734-14.266 1.8789-4.8984 5.9531-9.8164 12.68-14.219 0.28516-0.1875 0.36719-0.57031 0.17969-0.85547-0.089843-0.14062-0.23047-0.23438-0.39062-0.26953z"/>
  </g>
 </defs>
 <g id="surface1">
  <use transform="translate(32 21)" xlink:href="#surface5"/>
  <use transform="translate(122 27)" xlink:href="#surface8"/>
  <use transform="translate(211 18)" xlink:href="#surface11"/>
  <use transform="translate(298 18)" xlink:href="#surface14"/>
  <use transform="translate(385 18)" xlink:href="#surface17"/>
  <use transform="translate(32 97)" xlink:href="#surface20"/>
  <use transform="translate(118 102)" xlink:href="#surface23"/>
  <use transform="translate(210 92)" xlink:href="#surface26"/>
  <use transform="translate(287 94)" xlink:href="#surface29"/>
  <use transform="translate(381 88)" xlink:href="#surface32"/>
  <use transform="translate(32 178)" xlink:href="#surface35"/>
  <use transform="translate(145 173)" xlink:href="#surface38"/>
  <use transform="translate(251 171)" xlink:href="#surface41"/>
  <use transform="translate(359 160)" xlink:href="#surface44"/>
 </g>
</svg>
